<?xml version="1.0" standalone="no"?> <!DOCTYPE svg PUBLIC "-//W3C//DTD SVG 1.0//EN" "http://www.w3.org/TR/2001/REC-SVG-20010904/DTD/svg10.dtd" > <svg xmlns="http://www.w3.org/2000/svg" width="100%" height="100%">
<defs >
<font id="neosansstdmedium" horiz-adv-x="955" ><font-face
    font-family="Neo Sans Std Medium"
    units-per-em="2048"
    panose-1="2 11 7 4 3 5 4 4 2 4"
    ascent="1567"
    descent="-481"
    alphabetic="0" />
<missing-glyph horiz-adv-x="1024" d="M25 0V1362H997V0H25ZM180 1266L512 768L842 1266H180ZM123 1178V186Q123 185 205 309T370 558L453 682L123 1178ZM901 1178L569 682L901 184V1178ZM842 98L512 594L180 98H842Z" />
<glyph unicode=" " glyph-name="space" horiz-adv-x="512" />
<glyph unicode="!" glyph-name="exclam" horiz-adv-x="524" d="M401 1520L371 479Q371 462 359 450T330 438H197Q180 438 167 450T154 479L123 1520Q123 1535 136 1547T166 1559H360Q377 1559 389 1547T401 1520ZM393 35Q393 18 382 6T354 -6H170Q153 -6 142 6T131
35V266Q131 283 142 294T170 305H354Q371 305 382 294T393 266V35Z" />
<glyph unicode="&quot;" glyph-name="quotedbl" horiz-adv-x="860" d="M834 1536Q834 1535 829 1520L690 1096Q684 1074 676 1066T651 1057H487Q469 1057 469 1077Q469 1090 471 1096L575 1520Q585 1559 616 1559H809Q820 1559 827 1553T834 1536ZM424 1536Q424
1532 420 1520L281 1096Q274 1074 266 1066T242 1057H78Q59 1057 59 1077Q59 1090 61 1096L166 1520Q174 1559 207 1559H399Q424 1559 424 1536Z" />
<glyph unicode="#" glyph-name="numbersign" horiz-adv-x="1400" d="M1298 1077V1073L1288 981Q1286 963 1275 952T1247 940Q1245 940 1173 939T1065 938L1032 575H1206Q1223 575 1235 565T1247 539V535L1237 440Q1235 423 1224 411T1196 399H1016L985 39Q981
0 948 0H786Q771 0 763 10T754 35V39L784 399H518L487 39Q485 23 476 12T451 0H287Q273 0 264 10T254 35V39L285 399H115Q99 399 87 410T74 436V440L84 535Q86 552 97 563T125 575H301L334 938L168 940Q152 940 140 951T127 977V981L137 1073Q139 1090 150 1102T178
1114H348L381 1483Q383 1499 394 1510T420 1522H584Q597 1522 605 1512T614 1487V1483L582 1114H848L881 1483Q883 1499 893 1510T920 1522H1081Q1096 1522 1104 1512T1112 1487V1483L1079 1114H1257Q1273 1114 1285 1103T1298 1077ZM834 938H567L535 575H801L834
938Z" />
<glyph unicode="$" glyph-name="dollar" horiz-adv-x="1290" d="M1137 412Q1137 343 1118 281T1057 161T943 60T770 -2V-188Q770 -205 758 -217T729 -229H543Q526 -229 514 -217T502 -188V-14Q373 -9 236 20Q197 29 197 61V209Q197 225 208 236T236 248H240Q299
241 421 234T602 227Q733 227 786 272T840 412Q840 471 805 511T666 612L395 774Q260 854 207 944T154 1149Q154 1470 502 1526V1698Q502 1715 514 1727T543 1739H729Q746 1739 758 1727T770 1698V1534Q956 1524 1059 1501Q1075 1498 1085 1488T1096 1462V1311Q1096
1295 1086 1285T1061 1274H1057Q832 1294 653 1294Q438 1294 438 1149Q438 1097 472 1059T606 967L852 829Q1012 741 1074 642T1137 412Z" />
<glyph unicode="%" glyph-name="percent" horiz-adv-x="1660" d="M1581 332Q1581 159 1506 74T1290 -12T1073 74T997 332V500Q997 672 1073 758T1290 844T1506 758T1581 500V332ZM1380 1505Q1380 1494 1372 1481L518 37Q508 20 503 13T490 0T471 -6H299Q279 -6
279 12Q279 26 287 37L1141 1481Q1156 1506 1165 1514T1190 1522H1362Q1380 1522 1380 1505ZM666 1022Q666 850 591 764T375 678T158 764T82 1022V1190Q82 1362 157 1447T375 1532Q516 1532 591 1447T666 1190V1022ZM1407 332V500Q1407 604 1378 647T1290 690Q1232
690 1202 647T1171 500V332Q1171 228 1201 185T1290 141Q1349 141 1378 184T1407 332ZM492 1022V1190Q492 1294 463 1337T375 1380T286 1337T256 1190V1022Q256 918 286 874T375 829Q433 829 462 873T492 1022Z" />
<glyph unicode="&amp;" glyph-name="ampersand" horiz-adv-x="1470" d="M1407 23Q1407 0 1384 0H1155Q1137 0 1120 16L1044 96Q883 -16 655 -16Q564 -16 485 -3T337 41T219 117T141 228T113 377V397Q113 481 147 550T239 674T393 786L379 803Q259 942 222 1023T184
1182V1200Q184 1356 303 1447T651 1538Q853 1538 972 1446T1092 1200V1182Q1092 1126 1075 1074T1030 981T960 902T879 834T788 774L739 743L1047 416Q1100 540 1100 709V733Q1100 751 1109 762T1135 774H1284Q1301 774 1311 763T1321 733V709Q1321 441 1198 256L1399
43Q1407 35 1407 23ZM848 1182V1200Q848 1270 798 1308T651 1346Q547 1346 487 1308T426 1200V1182Q426 1152 429 1133T445 1083T488 1013T569 924L588 905L649 942Q766 1012 807 1060T848 1182ZM903 246L545 627Q456 573 425 523T393 397V377Q393 282 465 233T655
184Q803 184 903 246Z" />
<glyph unicode="&apos;" glyph-name="quotesingle" horiz-adv-x="450" d="M424 1536Q424 1532 420 1520L281 1096Q274 1074 266 1066T242 1057H78Q59 1057 59 1077Q59 1090 61 1096L166 1520Q174 1559 207 1559H399Q424 1559 424 1536Z" />
<glyph unicode="(" glyph-name="parenleft" horiz-adv-x="681" d="M621 -379Q621 -399 596 -399H451Q401 -399 381 -371Q246 -181 180 35T113 541V580Q113 869 179 1086T381 1493Q401 1522 451 1522H596Q621 1522 621 1501Q621 1488 610 1468Q389 1058 389 580V541Q389
66 610 -346Q621 -364 621 -379Z" />
<glyph unicode=")" glyph-name="parenright" horiz-adv-x="681" d="M569 541Q569 252 503 36T301 -371Q281 -399 231 -399H86Q61 -399 61 -379Q61 -364 72 -346Q293 66 293 541V580Q293 1058 72 1468Q61 1488 61 1501Q61 1522 86 1522H231Q281 1522 301 1493Q436
1303 502 1086T569 580V541Z" />
<glyph unicode="*" glyph-name="asterisk" horiz-adv-x="968" d="M891 1194Q891 1171 860 1161L616 1087L768 881Q778 866 778 852Q778 840 766 829L682 768Q673 762 664 762Q646 762 633 782L485 991L338 782Q325 762 307 762Q298 762 289 768L203 829Q190 840
190 852Q190 865 201 881L354 1087L113 1161Q80 1171 80 1194Q80 1200 82 1204L115 1305Q121 1325 141 1325Q150 1325 162 1321L406 1241L401 1497Q401 1536 432 1536H539Q569 1536 569 1495L567 1241L809 1321Q821 1325 829 1325Q850 1325 856 1305L889 1204Q891
1200 891 1194Z" />
<glyph unicode="+" glyph-name="plus" horiz-adv-x="1290" d="M1122 729Q1122 696 1081 696H750V367Q750 326 717 326H573Q541 326 541 367V696H211Q170 696 170 729V872Q170 905 211 905H541V1237Q541 1278 573 1278H717Q750 1278 750 1237V905H1081Q1122 905
1122 872V729Z" />
<glyph unicode="," glyph-name="comma" horiz-adv-x="530" d="M416 287Q416 286 412 272L233 -158Q226 -174 223 -180T213 -192T195 -199H53Q40 -199 32 -191T23 -170Q23 -162 25 -158L150 272Q162 311 190 311H387Q399 311 407 304T416 287Z" />
<glyph unicode="-" glyph-name="hyphen" horiz-adv-x="657" d="M569 565Q569 549 558 539T530 528H129Q112 528 100 538T88 565V694Q88 711 100 722T129 733H530Q547 733 558 722T569 694V565Z" />
<glyph unicode="." glyph-name="period" horiz-adv-x="530" d="M397 41Q397 24 385 12T356 0H174Q157 0 145 12T133 41V272Q133 289 145 300T174 311H356Q373 311 385 300T397 272V41Z" />
<glyph unicode="/" glyph-name="slash" horiz-adv-x="747" d="M479 1481Q491 1522 518 1522H684Q701 1522 711 1512T715 1481L270 43Q257 0 231 0H66Q45 0 37 13T33 43L479 1481Z" />
<glyph unicode="0" glyph-name="zero" horiz-adv-x="1290" d="M1180 684Q1180 496 1144 360T1037 142T870 22T645 -16T421 22T254 142T147 360T111 684V836Q111 1024 147 1160T254 1378T421 1499T645 1538T869 1500T1036 1379T1143 1161T1180 836V684ZM895 684V836Q895
944 883 1026T848 1161T794 1247T725 1294T645 1307T565 1294T497 1248T442 1162T408 1027T395 836V684Q395 575 407 493T442 359T496 274T564 228T645 215T725 228T793 273T848 358T882 493T895 684Z" />
<glyph unicode="1" glyph-name="one" horiz-adv-x="1290" d="M1096 0H264Q247 0 235 12T223 41V197Q223 213 235 223T264 233H539V1241L270 1159Q260 1155 246 1155Q223 1155 223 1180V1372Q223 1390 238 1395L600 1513Q622 1522 647 1522H782Q799 1522 810 1511T821
1483V233H1096Q1113 233 1125 223T1137 197V41Q1137 24 1125 12T1096 0Z" />
<glyph unicode="2" glyph-name="two" horiz-adv-x="1290" d="M1133 1163Q1133 1040 1071 947T877 766L692 643Q589 574 530 519T436 394T401 242V233H1075Q1093 233 1104 223T1116 197V41Q1116 24 1104 12T1075 0H207Q190 0 178 12T166 41V242Q166 403 254 546T477
778L680 913Q801 993 834 1036T868 1163T813 1280T629 1315Q491 1315 219 1284H215Q199 1284 189 1296T178 1325V1448Q178 1475 217 1487Q298 1509 414 1523T629 1538Q894 1538 1013 1447T1133 1163Z" />
<glyph unicode="3" glyph-name="three" horiz-adv-x="1290" d="M1118 426Q1118 315 1079 229T970 90T808 11T604 -16Q417 -16 211 35Q194 38 183 48T172 74V201Q172 217 182 227T209 238H213Q489 209 604 209Q726 209 780 262T834 426V469Q834 564 793 620T645
676H283Q266 676 255 687T244 715V844Q244 861 255 872T283 883H645Q701 883 740 898T798 943T826 1005T834 1083V1116Q834 1207 784 1260T604 1313Q568 1313 536 1312T480 1310T420 1306T364 1300T293 1293T213 1284H209Q193 1284 183 1294T172 1321V1448Q172
1462 183 1473T211 1487Q417 1538 604 1538Q695 1538 771 1524T912 1479T1022 1399T1092 1279T1118 1116V1083Q1118 875 942 780Q1026 735 1072 652T1118 469V426Z" />
<glyph unicode="4" glyph-name="four" horiz-adv-x="1290" d="M1212 408Q1212 391 1200 379T1171 367H1020V41Q1020 23 1010 12T983 0H772Q756 0 746 12T735 41V367H121Q104 367 92 379T80 408V573Q80 610 102 639L733 1485Q761 1522 793 1522H979Q996 1522 1008
1510T1020 1481V592H1171Q1188 592 1200 580T1212 551V408ZM737 592V1112Q737 1124 731 1124T717 1112L358 614Q352 608 352 602Q352 592 369 592H737Z" />
<glyph unicode="5" glyph-name="five" horiz-adv-x="1290" d="M1130 485Q1130 247 999 116T604 -16Q403 -16 211 35Q192 40 182 49T172 80V201Q172 217 182 227T209 238H213Q437 209 604 209Q741 209 793 278T846 485V496Q846 622 763 673T483 725H207Q198 725
191 734T184 752V756L250 1485Q252 1500 263 1511T291 1522H1034Q1051 1522 1063 1511T1075 1483V1327Q1075 1311 1063 1300T1034 1288H479L449 948H483Q556 948 618 944T748 927T870 894T974 839T1057 758T1110 645T1130 496V485Z" />
<glyph unicode="6" glyph-name="six" horiz-adv-x="1290" d="M1188 492Q1188 260 1049 122T659 -16Q542 -16 446 21T277 133T164 331T123 616V852Q123 1215 262 1376T690 1538Q880 1538 1069 1499Q1093 1494 1104 1485T1116 1456V1329Q1116 1286 1077 1286H1069Q1005
1296 891 1304T690 1313Q534 1313 470 1232T401 940Q528 963 686 963Q790 963 877 939T1035 864T1147 724T1188 512V492ZM909 492V512Q909 756 629 756Q520 756 401 733V616Q401 516 414 442T448 323T504 251T574 215T659 205Q776 205 842 269T909 492Z" />
<glyph unicode="7" glyph-name="seven" horiz-adv-x="1290" d="M1135 1329Q1135 1314 1098 1235L545 39Q534 16 522 8T489 0H276Q263 0 256 9T248 31Q248 37 252 49L840 1274V1278Q840 1288 829 1288H199Q182 1288 170 1298T158 1325V1483Q158 1499 170 1510T199
1522H1053Q1087 1522 1111 1498T1135 1440V1329Z" />
<glyph unicode="8" glyph-name="eight" horiz-adv-x="1290" d="M1182 440Q1182 346 1154 269T1077 140T961 52T818 0T655 -16H635Q549 -16 473 0T330 51T215 139T139 269T111 440V459Q111 559 161 646T297 793Q119 908 119 1112V1120Q119 1231 159 1314T272 1444T435
1515T635 1538H655Q742 1538 817 1525T959 1480T1073 1401T1148 1282T1176 1120V1112Q1176 910 995 793Q1081 732 1131 646T1182 459V440ZM911 1104V1112Q911 1329 655 1329H635Q383 1329 383 1112V1104Q383 1009 437 951T604 893H688Q801 893 856 951T911 1104ZM905
440V459Q905 498 894 536T858 608T790 663T688 684H604Q546 684 502 663T434 608T399 536T387 459V440Q387 332 451 265T635 197H655Q775 197 840 265T905 440Z" />
<glyph unicode="9" glyph-name="nine" horiz-adv-x="1290" d="M1165 670Q1165 307 1026 146T598 -16Q396 -16 219 23Q195 28 184 37T172 66V193Q172 214 182 225T211 236H219Q280 226 394 218T598 209Q754 209 818 290T887 582Q770 559 602 559Q498 559 411 583T253
658T141 798T100 1010V1030Q100 1261 240 1399T629 1538Q746 1538 842 1501T1011 1389T1124 1191T1165 905V670ZM887 788V905Q887 1005 874 1079T840 1198T784 1270T714 1307T629 1317Q573 1317 530 1304T452 1259T398 1170T379 1030V1010Q379 766 659 766Q773
766 887 788Z" />
<glyph unicode=":" glyph-name="colon" horiz-adv-x="530" d="M397 848Q397 831 385 820T356 809H174Q157 809 145 820T133 848V1079Q133 1096 145 1108T174 1120H356Q373 1120 385 1108T397 1079V848ZM397 41Q397 24 385 12T356 0H174Q157 0 145 12T133 41V272Q133
289 145 300T174 311H356Q373 311 385 300T397 272V41Z" />
<glyph unicode=";" glyph-name="semicolon" horiz-adv-x="530" d="M397 848Q397 831 385 820T356 809H174Q157 809 145 820T133 848V1079Q133 1096 145 1108T174 1120H356Q373 1120 385 1108T397 1079V848ZM401 287Q401 286 397 272L219 -158Q212 -174 209 -180T199
-192T180 -199H39Q25 -199 17 -191T8 -170Q8 -162 10 -158L135 272Q147 311 176 311H373Q385 311 393 304T401 287Z" />
<glyph unicode="&lt;" glyph-name="less" horiz-adv-x="1290" d="M1053 313Q1053 302 1046 294T1028 285H803Q797 285 792 286T784 288T777 292T771 296T765 301T758 307L285 721Q259 744 249 760T238 801T248 841T285 881L758 1294Q779 1313 791 1316Q796 1317
803 1317H1028Q1038 1317 1045 1308T1053 1288Q1053 1273 1040 1264L508 801L1040 338Q1053 329 1053 313Z" />
<glyph unicode="=" glyph-name="equal" horiz-adv-x="1290" d="M1102 977Q1102 944 1061 944H231Q190 944 190 977V1120Q190 1153 231 1153H1061Q1102 1153 1102 1120V977ZM1102 481Q1102 449 1061 449H231Q190 449 190 481V625Q190 657 231 657H1061Q1102 657
1102 625V481Z" />
<glyph unicode="&gt;" glyph-name="greater" horiz-adv-x="1290" d="M1053 824T1053 801T1043 762T1006 721L532 307Q510 288 499 286Q494 285 487 285H262Q252 285 245 293T238 313Q238 329 250 338L782 801L250 1264Q238 1273 238 1288Q238 1300 245 1308T262
1317H487Q508 1317 528 1298Q531 1295 532 1294L1006 881Q1032 857 1042 841Z" />
<glyph unicode="?" glyph-name="question" horiz-adv-x="894" d="M834 1186Q834 1140 827 1106T786 1009T688 870L563 723Q558 717 538 694T514 664T497 640T481 612T473 587T469 555V477Q469 462 457 450T428 438H258Q242 438 231 449T219 477V555Q219 651 243
711T340 856L471 1008Q505 1048 517 1089T530 1186V1219Q530 1294 412 1294Q304 1294 104 1272H96Q61 1272 61 1317V1444Q61 1463 63 1472T73 1489T98 1501Q236 1538 412 1538Q622 1538 728 1466T834 1219V1186ZM477 39Q477 22 465 11T436 0H252Q235 0 223 11T211
39V270Q211 287 223 299T252 311H436Q453 311 465 299T477 270V39Z" />
<glyph unicode="@" glyph-name="at" horiz-adv-x="1581" d="M1509 741Q1509 595 1473 484T1374 300T1214 182T1006 117T754 98Q594 98 500 173T406 391Q406 397 407 409T408 428L426 668Q439 837 544 921T823 1006Q908 1006 1094 975Q1141 968 1141 922V913L1081
295Q1158 307 1212 344T1296 441T1339 574T1352 741Q1352 836 1322 919T1234 1069T1080 1173T860 1212Q594 1212 441 1080T264 705L233 381Q229 331 229 313Q229 126 359 13T741 -100Q903 -100 1038 -86H1051Q1060 -86 1062 -89T1065 -104V-180Q1065 -204 1038
-207Q885 -227 741 -227Q544 -227 394 -164T159 22T74 315Q74 358 76 381L106 715Q133 1008 332 1180T862 1352Q1020 1352 1146 1301T1350 1164T1468 969T1509 741ZM913 813Q853 823 801 823Q723 823 688 786T643 659L621 430Q618 418 618 395Q618 333 653 307T768
281H809Q848 281 866 283L913 813Z" />
<glyph unicode="A" glyph-name="A" horiz-adv-x="1323" d="M1284 35Q1284 19 1274 10T1247 0H1030Q1017 0 1006 10T991 35L897 424H426L332 35Q329 21 318 11T293 0H76Q60 0 50 9T39 35Q39 36 40 39T41 45L377 1329Q431 1538 662 1538Q892 1538 946 1329L1282
45Q1282 43 1283 40T1284 35ZM842 657L694 1266Q689 1285 683 1291T662 1298T641 1292T629 1266L481 657H842Z" />
<glyph unicode="B" glyph-name="B" horiz-adv-x="1331" d="M1229 426Q1229 192 1068 88T606 -16Q368 -16 252 6Q199 15 177 38T154 117V1407Q154 1461 174 1485T246 1518Q379 1538 588 1538Q1219 1538 1219 1122V1081Q1219 977 1170 894T1030 772Q1126 732 1177
653T1229 461V426ZM942 1077V1106Q942 1214 863 1258T588 1303Q546 1303 438 1298V883H698Q942 883 942 1077ZM950 430V457Q950 552 891 613T698 674H438V223Q463 223 524 221T606 219Q797 219 873 269T950 430Z" />
<glyph unicode="C" glyph-name="C" horiz-adv-x="1153" d="M1061 63Q1061 44 1050 34T1016 16Q979 6 887 -5T692 -16Q636 -16 582 -8T470 20T361 71T264 151T185 264T133 416T113 610V911Q113 1059 150 1173T245 1354T382 1465T536 1523T692 1538Q795 1538 886
1527T1016 1505Q1038 1498 1049 1488T1061 1458V1321Q1061 1278 1020 1278H1016Q824 1294 696 1294Q556 1294 478 1206T399 911V610Q399 227 696 227Q812 227 1016 244H1020Q1061 244 1061 201V63Z" />
<glyph unicode="D" glyph-name="D" horiz-adv-x="1366" d="M1253 610Q1253 307 1086 146T610 -16Q507 -16 382 -8T207 8Q154 17 154 72V1450Q154 1480 167 1494T207 1513Q255 1522 380 1530T610 1538Q919 1538 1086 1376T1253 911V610ZM971 610V911Q971 1001 953
1069T904 1180T825 1250T727 1287T610 1298Q567 1298 438 1292V229Q567 223 610 223Q692 223 754 241T866 301T944 420T971 610Z" />
<glyph unicode="E" glyph-name="E" horiz-adv-x="1179" d="M1057 55Q1057 34 1048 25T1016 12Q1014 12 983 7T939 0T889 -6T820 -11T737 -14T627 -16Q541 -16 475 -6T346 31T243 105T178 226T154 403V1118Q154 1220 178 1295T242 1416T345 1490T474 1528T627 1538Q671
1538 711 1537T780 1535T840 1532T887 1528T928 1523T961 1519T991 1514T1016 1509Q1039 1506 1048 1497T1057 1466V1335Q1057 1318 1045 1306T1016 1294H598Q508 1294 472 1256T436 1118V897H991Q1008 897 1020 885T1032 856V709Q1032 692 1020 680T991 668H436V403Q436
303 472 265T598 227H1016Q1033 227 1045 215T1057 186V55Z" />
<glyph unicode="F" glyph-name="F" horiz-adv-x="1179" d="M1057 1335Q1057 1318 1045 1306T1016 1294H598Q508 1294 472 1256T436 1118V897H991Q1008 897 1020 885T1032 856V709Q1032 692 1020 680T991 668H436V41Q436 24 424 12T395 0H195Q178 0 166 12T154
41V1118Q154 1220 178 1295T242 1416T345 1490T474 1528T627 1538Q671 1538 711 1537T780 1535T840 1532T887 1528T928 1523T961 1519T991 1514T1016 1509Q1039 1506 1048 1497T1057 1466V1335Z" />
<glyph unicode="G" glyph-name="G" horiz-adv-x="1300" d="M1147 68Q1147 28 1108 18Q935 -16 662 -16Q591 -16 520 2T374 67T242 182T149 362T113 612V907Q113 1047 147 1158T237 1339T367 1455T516 1519T668 1538Q898 1538 1108 1501Q1129 1496 1138 1487T1147
1458V1321Q1147 1298 1139 1288T1106 1278H1100Q912 1294 668 1294Q613 1294 567 1274T482 1211T421 1090T399 907V612Q399 528 415 461T456 351T517 280T588 239T662 227Q770 227 864 233V756Q864 773 875 785T903 797H1106Q1122 797 1134 785T1147 756V68Z" />
<glyph unicode="H" glyph-name="H" horiz-adv-x="1458" d="M1305 41Q1305 24 1293 12T1264 0H1061Q1044 0 1032 12T1020 41V668H438V41Q438 24 426 12T397 0H195Q178 0 166 12T154 41V1483Q154 1499 166 1510T195 1522H397Q414 1522 426 1511T438 1483V918H1020V1483Q1020
1499 1032 1510T1061 1522H1264Q1281 1522 1293 1511T1305 1483V41Z" />
<glyph unicode="I" glyph-name="I" horiz-adv-x="591" d="M438 41Q438 24 426 12T397 0H195Q178 0 166 12T154 41V1483Q154 1499 166 1510T195 1522H397Q414 1522 426 1511T438 1483V41Z" />
<glyph unicode="J" glyph-name="J" horiz-adv-x="591" d="M438 -43Q438 -203 359 -272T111 -342Q70 -342 16 -336T-53 -326Q-74 -320 -74 -297V-152Q-74 -135 -62 -125T-33 -115H102Q131 -115 142 -101T154 -43V1483Q154 1499 166 1510T195 1522H397Q414 1522
426 1511T438 1483V-43Z" />
<glyph unicode="K" glyph-name="K" horiz-adv-x="1316" d="M1260 18Q1260 0 1229 0H954Q922 0 907 23L438 721V41Q438 24 426 12T397 0H195Q178 0 166 12T154 41V1481Q154 1497 166 1508T195 1520H397Q414 1520 426 1509T438 1481V829L940 1503Q951 1520 987 1520H1221Q1260
1520 1260 1495Q1260 1483 1245 1462L721 784L1249 43Q1260 25 1260 18Z" />
<glyph unicode="L" glyph-name="L" horiz-adv-x="1056" d="M1016 55Q1016 34 1008 26T975 12Q929 2 819 -7T627 -16Q541 -16 475 -6T346 31T243 105T178 226T154 403V1481Q154 1498 166 1510T195 1522H397Q414 1522 426 1510T438 1481V403Q438 303 473 265T598
227H975Q992 227 1004 215T1016 186V55Z" />
<glyph unicode="M" glyph-name="M" horiz-adv-x="1622" d="M1468 31Q1468 16 1458 8T1434 0H1227Q1213 0 1204 12T1194 41V993Q1194 1014 1188 1014Q1185 1014 1178 1001L981 610Q962 575 915 575H709Q662 575 643 610L444 1001Q437 1014 434 1014Q428 1014 428
993V41Q428 25 419 13T395 0H188Q174 0 164 8T154 31V1440Q154 1474 178 1498T236 1522H403Q454 1522 479 1473L788 846Q803 819 811 817Q818 817 829 837Q832 843 834 846L1143 1473Q1168 1522 1219 1522H1386Q1420 1522 1444 1498T1468 1440V31Z" />
<glyph unicode="N" glyph-name="N" horiz-adv-x="1458" d="M1305 82Q1305 48 1281 24T1223 0H1016Q984 0 968 2T929 22T891 74L436 1071Q428 1087 418 1087T408 1071V41Q408 24 397 12T369 0H195Q178 0 166 12T154 41V1440Q154 1474 178 1498T236 1522H457Q490
1522 509 1509T547 1456L1024 403Q1030 387 1040 387Q1051 387 1051 406V1483Q1051 1500 1062 1511T1090 1522H1266Q1282 1522 1293 1511T1305 1483V82Z" />
<glyph unicode="O" glyph-name="O" horiz-adv-x="1392" d="M1280 623Q1280 490 1252 384T1172 203T1048 80T887 7T696 -16Q566 -16 462 21T278 133T156 333T113 623V899Q113 1064 156 1188T278 1388T461 1501T696 1538Q799 1538 886 1515T1047 1443T1172 1319T1251
1139T1280 899V623ZM993 623V899Q993 1100 921 1195T696 1290Q545 1290 472 1195T399 899V623Q399 421 472 326T696 231Q848 231 920 326T993 623Z" />
<glyph unicode="P" glyph-name="P" horiz-adv-x="1282" d="M1210 1047Q1210 941 1179 858T1094 721T964 632T804 582T621 567Q597 567 563 568T491 572T438 575V41Q438 24 427 12T399 0H195Q178 0 166 12T154 41V1450Q154 1479 170 1492T219 1511Q389 1538 621
1538Q720 1538 804 1524T964 1476T1093 1388T1178 1253T1210 1065V1047ZM928 1047V1065Q928 1191 853 1247T621 1303Q521 1303 438 1294V807Q537 801 621 801Q784 801 856 861T928 1047Z" />
<glyph unicode="Q" glyph-name="Q" horiz-adv-x="1413" d="M1290 623Q1290 344 1171 188T842 -6V-49Q842 -86 858 -100T903 -115H1102Q1123 -115 1137 -123T1151 -147V-274Q1151 -305 1106 -317Q1020 -340 903 -340Q749 -340 660 -271T571 -53V-6Q362 31 243 187T123
623V899Q123 1032 151 1138T231 1319T355 1442T516 1515T707 1538Q836 1538 940 1501T1124 1389T1247 1189T1290 899V623ZM1004 623V899Q1004 1100 931 1195T707 1290Q555 1290 483 1195T410 899V623Q410 421 482 326T707 231Q858 231 931 326T1004 623Z" />
<glyph unicode="R" glyph-name="R" horiz-adv-x="1337" d="M1260 25Q1260 0 1235 0H985Q970 0 962 10T944 41L649 588H621Q597 588 563 589T491 593T438 596V41Q438 24 427 12T399 0H195Q178 0 166 12T154 41V1450Q154 1479 170 1492T219 1511Q389 1538 621 1538Q719
1538 803 1524T964 1476T1093 1390T1178 1257T1210 1075V1057Q1210 899 1138 795T934 639L1255 41Q1260 35 1260 25ZM928 1057V1075Q928 1189 852 1241T621 1294Q512 1294 438 1286V825Q537 819 621 819Q783 819 855 872T928 1057Z" />
<glyph unicode="S" glyph-name="S" horiz-adv-x="1167" d="M1075 412Q1075 347 1059 288T1003 173T904 75T750 9T537 -16Q334 -16 174 20Q135 30 135 61V209Q135 225 147 236T174 248H178Q237 241 359 234T541 227Q672 227 725 272T778 412Q778 471 743 511T604
612L334 774Q198 854 145 943T92 1149Q92 1538 604 1538Q701 1538 822 1526T997 1501Q1034 1494 1034 1462V1311Q1034 1295 1025 1285T999 1274H995Q770 1294 592 1294Q377 1294 377 1149Q377 1097 411 1059T545 967L791 829Q951 741 1013 642T1075 412Z" />
<glyph unicode="T" glyph-name="T" horiz-adv-x="1185" d="M1135 1321Q1135 1304 1123 1294T1094 1284H735V41Q735 24 723 12T694 0H492Q475 0 463 12T451 41V1284H92Q75 1284 63 1294T51 1321V1483Q51 1499 63 1510T92 1522H1094Q1111 1522 1123 1511T1135 1483V1321Z" />
<glyph unicode="U" glyph-name="U" horiz-adv-x="1413" d="M1270 563Q1270 404 1229 290T1111 110T935 14T707 -16Q578 -16 479 14T302 109T184 289T143 563V1483Q143 1499 155 1510T184 1522H387Q404 1522 416 1511T428 1483V563Q428 472 440 411T484 305T569
240T707 219Q867 219 926 299T985 563V1483Q985 1499 997 1510T1026 1522H1229Q1246 1522 1258 1511T1270 1483V563Z" />
<glyph unicode="V" glyph-name="V" horiz-adv-x="1343" d="M1294 1487Q1294 1485 1293 1482T1292 1477L956 193Q902 -16 672 -16Q441 -16 387 193L51 1477Q51 1479 50 1482T49 1487Q49 1502 60 1512T86 1522H303Q317 1522 328 1512T342 1487L639 256Q644 237 650
230T672 223T693 230T705 256L1001 1487Q1005 1501 1016 1511T1040 1522H1257Q1273 1522 1283 1512T1294 1487Z" />
<glyph unicode="W" glyph-name="W" horiz-adv-x="1765" d="M1716 1493V1487L1524 150Q1510 56 1467 20T1339 -16H1229Q1159 -16 1120 21T1059 147L897 823Q894 839 893 842T885 846Q875 846 870 823L709 147Q687 59 648 22T539 -16H428Q344 -16 301 20T244 150L51
1487V1493Q51 1506 61 1514T86 1522H303Q316 1522 326 1512T338 1485L485 262Q488 231 496 231Q502 231 506 251Q507 258 508 262L684 981Q694 1024 723 1048T813 1073H954Q1015 1073 1044 1049T1083 981L1260 262Q1266 234 1268 232Q1270 231 1272 231Q1279 231
1282 262L1430 1485Q1431 1501 1441 1511T1464 1522H1681Q1696 1522 1706 1514T1716 1493Z" />
<glyph unicode="X" glyph-name="X" horiz-adv-x="1331" d="M1284 25Q1284 0 1251 0H1010Q984 0 956 41L655 524L373 41Q350 0 319 0H96Q63 0 63 27Q63 31 68 41L504 768L55 1483Q51 1491 51 1495Q51 1506 61 1514T84 1522H326Q353 1522 379 1483L678 1006L954
1483Q978 1522 1008 1522H1231Q1244 1522 1254 1514T1264 1495Q1264 1491 1260 1483L829 762L1280 41Q1284 35 1284 25Z" />
<glyph unicode="Y" glyph-name="Y" horiz-adv-x="1259" d="M1208 1491Q1208 1487 1204 1475L893 764Q841 645 768 614V41Q768 24 757 12T729 0H524Q508 0 497 12T485 41V614Q412 645 360 764L51 1475Q47 1487 47 1491Q47 1504 56 1513T80 1522H307Q334 1522 346
1489L592 879Q608 838 627 838T664 879L909 1489Q914 1502 924 1512T948 1522H1174Q1189 1522 1198 1513T1208 1491Z" />
<glyph unicode="Z" glyph-name="Z" horiz-adv-x="1204" d="M1122 41Q1122 24 1110 12T1081 0H186Q82 0 82 76V188Q82 227 109 266L758 1239Q764 1248 764 1257Q764 1274 743 1274H174Q157 1274 146 1284T135 1311V1483Q135 1500 146 1511T174 1522H999Q1047 1522
1077 1502T1108 1444V1325Q1108 1284 1079 1241L440 285Q432 273 432 262Q432 250 451 250H1081Q1099 250 1110 240T1122 213V41Z" />
<glyph unicode="[" glyph-name="bracketleft" horiz-adv-x="729" d="M672 -365Q672 -380 661 -388T633 -397H178Q163 -397 153 -386T143 -358V1483Q143 1498 153 1510T178 1522H633Q650 1522 661 1513T672 1489V1339Q672 1324 661 1315T633 1305H418V-180H633Q650
-180 661 -190T672 -215V-365Z" />
<glyph unicode="\" glyph-name="backslash" horiz-adv-x="788" d="M760 16Q760 4 749 -6T725 -16H518Q493 -16 481 27L33 1481Q33 1483 32 1486T31 1491Q31 1503 41 1512T66 1522H270Q299 1522 311 1481L758 27Q758 25 759 22T760 16Z" />
<glyph unicode="]" glyph-name="bracketright" horiz-adv-x="729" d="M586 -358Q586 -374 576 -385T551 -397H96Q79 -397 68 -389T57 -365V-215Q57 -200 68 -190T96 -180H311V1305H96Q79 1305 68 1313T57 1337V1487Q57 1502 68 1512T96 1522H551Q566 1522 576
1510T586 1483V-358Z" />
<glyph unicode="^" glyph-name="asciicircum" horiz-adv-x="1290" d="M1122 1174Q1122 1155 1098 1155H889Q867 1155 856 1162T827 1188L645 1397L463 1188Q445 1169 434 1162T401 1155H193Q168 1155 168 1174Q168 1185 178 1198L410 1501Q427 1524 439 1531T475
1538H815Q839 1538 851 1531T881 1501L1112 1198Q1122 1185 1122 1174Z" />
<glyph unicode="_" glyph-name="underscore" horiz-adv-x="1071" d="M1135 -201Q1135 -233 1094 -233H-23Q-63 -233 -63 -201V-121Q-63 -88 -23 -88H1094Q1135 -88 1135 -121V-201Z" />
<glyph unicode="`" glyph-name="grave" horiz-adv-x="849" d="M559 1298Q559 1284 541 1284H365Q353 1284 345 1287T332 1295T317 1311L74 1565Q66 1573 66 1581Q66 1595 88 1595H305Q324 1595 333 1589T358 1565L551 1319Q559 1311 559 1298Z" />
<glyph unicode="a" glyph-name="a" horiz-adv-x="1122" d="M989 41Q989 24 977 12T948 0H774Q757 0 745 12T733 41V74Q587 -16 444 -16Q389 -16 342 -8T247 24T166 85T111 184T90 326V334Q90 513 208 600T590 688H719V778Q719 874 677 909T539 944Q339 944 205
928H195Q158 928 158 963V1094Q158 1127 197 1137Q361 1169 539 1169Q759 1169 874 1071T989 778V41ZM719 256V508H590Q499 508 448 488T380 431T362 334V326Q362 253 396 226T510 199Q615 199 719 256Z" />
<glyph unicode="b" glyph-name="b" horiz-adv-x="1181" d="M1090 498Q1090 253 967 119T600 -16Q392 -16 188 37Q154 46 144 57T133 92V1518Q133 1534 145 1546T174 1559H362Q379 1559 391 1547T403 1518V1155Q509 1169 600 1169Q843 1169 966 1035T1090 655V498ZM819
498V655Q819 722 809 772T776 863T708 926T600 948Q505 948 403 934V219Q471 205 600 205Q664 205 708 226T775 289T809 381T819 498Z" />
<glyph unicode="c" glyph-name="c" horiz-adv-x="958" d="M866 63Q866 38 858 27T823 10Q721 -16 559 -16Q423 -16 320 37T154 205T92 481V672Q92 834 154 948T319 1115T559 1169Q721 1169 823 1143Q849 1137 857 1126T866 1090V956Q866 926 829 926H823Q708 940
559 940Q520 940 487 928T425 887T379 803T362 672V481Q362 405 379 350T425 267T487 226T559 213Q708 213 823 227H829Q866 227 866 197V63Z" />
<glyph unicode="d" glyph-name="d" horiz-adv-x="1181" d="M1049 92Q1049 68 1038 57T993 37Q789 -16 582 -16Q339 -16 216 118T92 498V655Q92 900 215 1034T582 1169Q672 1169 778 1155V1518Q778 1534 790 1546T819 1559H1008Q1024 1559 1036 1547T1049 1518V92ZM778
219V934Q678 948 582 948Q518 948 474 927T406 864T372 773T362 655V498Q362 431 372 381T405 289T473 227T582 205Q710 205 778 219Z" />
<glyph unicode="e" glyph-name="e" horiz-adv-x="1175" d="M1077 535Q1077 483 1036 483H369V477Q369 439 375 404T399 334T443 274T513 233T614 217Q790 217 991 238H997Q1013 238 1023 230T1034 207V72Q1034 46 1026 35T991 18Q884 -1 805 -8T594 -16Q528 -16
464 -2T332 49T214 142T131 290T98 498V649Q98 891 227 1030T590 1169Q821 1169 949 1027T1077 649V535ZM805 676V684Q805 802 746 869T590 936Q492 936 432 870T371 684V676H805Z" />
<glyph unicode="f" glyph-name="f" horiz-adv-x="808" d="M768 1413Q768 1396 759 1387T737 1378H645Q571 1378 548 1354T524 1255V1155H721Q738 1155 750 1143T762 1114V991Q762 975 750 964T721 952H524V43Q524 26 512 13T483 0H297Q280 0 267 13T254 43V952L72
981Q31 988 31 1020V1114Q31 1131 43 1143T72 1155H254V1255Q254 1352 278 1417T352 1518T462 1568T608 1583Q653 1583 731 1567Q768 1558 768 1534V1413Z" />
<glyph unicode="g" glyph-name="g" horiz-adv-x="1196" d="M1139 1014Q1139 992 1133 985T1106 969L1038 942Q1090 868 1090 778V764Q1090 575 965 483T604 391Q471 391 381 426Q346 404 346 373Q346 343 362 328T416 305L657 248Q869 198 944 165Q1068 111 1101
16Q1116 -26 1116 -80V-94Q1116 -254 994 -335T614 -416Q368 -416 237 -327T106 -76V-57Q106 74 211 168Q168 200 144 250T119 356V358Q119 467 201 524Q117 611 117 764V778Q117 858 144 924T227 1043T379 1125T604 1155H1083Q1106 1155 1122 1139T1139 1100V1014ZM823
758V774Q823 856 775 902T604 948Q383 948 383 774V758Q383 726 391 700T422 649T490 610T604 596Q726 596 774 636T823 758ZM846 -94V-80Q846 -55 831 -39T763 -2T604 43L422 86Q402 59 394 45T379 5T371 -57V-76Q371 -144 424 -177T614 -211Q709 -211 761 -197T830
-158T846 -94Z" />
<glyph unicode="h" glyph-name="h" horiz-adv-x="1212" d="M1079 43Q1079 26 1067 13T1038 0H850Q833 0 821 13T809 43V717Q809 851 776 895T641 940Q537 940 403 870V43Q403 26 391 13T362 0H174Q158 0 146 13T133 43V1518Q133 1534 145 1546T174 1559H362Q379
1559 391 1547T403 1518V1094Q527 1169 713 1169Q1079 1169 1079 717V43Z" />
<glyph unicode="i" glyph-name="i" horiz-adv-x="548" d="M416 1350Q416 1333 404 1321T375 1309H176Q159 1309 146 1321T133 1350V1530Q133 1546 146 1558T176 1571H375Q392 1571 404 1559T416 1530V1350ZM410 43Q410 26 398 13T369 0H180Q164 0 152 13T139 43V1114Q139
1131 151 1143T180 1155H369Q386 1155 398 1143T410 1114V43Z" />
<glyph unicode="j" glyph-name="j" horiz-adv-x="548" d="M416 1350Q416 1333 403 1321T373 1309H176Q159 1309 147 1321T135 1350V1530Q135 1546 147 1558T176 1571H373Q390 1571 403 1559T416 1530V1350ZM410 -86Q410 -265 334 -337T106 -410Q42 -410 -29 -397Q-68
-391 -68 -360V-227Q-68 -195 -25 -195H68Q114 -195 126 -174T139 -86V1114Q139 1131 151 1143T180 1155H369Q386 1155 398 1143T410 1114V-86Z" />
<glyph unicode="k" glyph-name="k" horiz-adv-x="1124" d="M1063 25Q1063 15 1055 8T1034 0H784Q769 0 752 12T725 41L403 508V43Q403 26 391 13T362 0H174Q158 0 146 13T133 43V1518Q133 1534 145 1546T174 1559H362Q379 1559 391 1547T403 1518V664L754 1130Q772
1155 801 1155H1030Q1061 1155 1061 1133Q1061 1123 1053 1112L641 606L1057 41Q1063 32 1063 25Z" />
<glyph unicode="l" glyph-name="l" horiz-adv-x="557" d="M414 43Q414 26 403 13T375 0H184Q168 0 156 13T143 43V1518Q143 1534 155 1546T184 1559H375Q391 1559 402 1547T414 1518V43Z" />
<glyph unicode="m" glyph-name="m" horiz-adv-x="1736" d="M1604 43Q1604 26 1592 13T1563 0H1374Q1358 0 1346 13T1333 43V739Q1333 857 1303 897T1186 938Q1092 938 995 887Q1004 820 1004 739V43Q1004 26 992 13T963 0H774Q758 0 746 13T733 43V739Q733 858
706 898T592 938Q530 938 403 870V43Q403 26 391 13T362 0H174Q158 0 146 13T133 43V1114Q133 1131 145 1143T174 1155H352Q369 1155 381 1143T393 1114V1071Q468 1119 535 1144T686 1169Q851 1169 926 1077Q1011 1124 1087 1146T1264 1169Q1345 1169 1406 1147T1504
1088T1564 994T1595 877T1604 739V43Z" />
<glyph unicode="n" glyph-name="n" horiz-adv-x="1212" d="M1079 43Q1079 26 1067 13T1038 0H850Q833 0 821 13T809 43V711Q809 760 807 790T799 849T782 893T750 920T703 936T635 940Q544 940 403 866V43Q403 26 391 13T362 0H174Q158 0 146 13T133 43V1114Q133
1131 145 1143T174 1155H352Q369 1155 381 1143T393 1114V1071Q482 1128 552 1148T725 1169Q811 1169 875 1146T977 1083T1039 984T1070 859T1079 711V43Z" />
<glyph unicode="o" glyph-name="o" horiz-adv-x="1175" d="M1077 494Q1077 345 1023 232T856 51T588 -16Q354 -16 226 125T98 494V659Q98 887 226 1028T588 1169Q744 1169 856 1102T1022 922T1077 659V494ZM807 494V659Q807 787 750 861T588 936Q482 936 426 862T369
659V494Q369 365 425 291T588 217Q693 217 750 291T807 494Z" />
<glyph unicode="p" glyph-name="p" horiz-adv-x="1181" d="M1090 498Q1090 253 967 119T600 -16Q509 -16 403 -2V-365Q403 -382 391 -394T362 -406H174Q158 -406 146 -394T133 -365V1061Q133 1085 143 1096T188 1116Q392 1169 600 1169Q843 1169 966 1035T1090
655V498ZM819 498V655Q819 722 809 772T776 863T708 926T600 948Q471 948 403 934V219Q505 205 600 205Q664 205 708 226T775 289T809 381T819 498Z" />
<glyph unicode="q" glyph-name="q" horiz-adv-x="1181" d="M1049 -365Q1049 -382 1037 -394T1008 -406H819Q802 -406 790 -394T778 -365V-2Q672 -16 582 -16Q339 -16 216 118T92 498V655Q92 900 215 1034T582 1169Q789 1169 993 1116Q1027 1107 1038 1096T1049
1061V-365ZM778 219V934Q710 948 582 948Q518 948 474 927T406 864T372 773T362 655V498Q362 431 372 381T405 289T473 227T582 205Q678 205 778 219Z" />
<glyph unicode="r" glyph-name="r" horiz-adv-x="768" d="M727 981Q727 964 715 952T686 940Q544 940 403 866V43Q403 26 391 13T362 0H174Q158 0 146 13T133 43V1114Q133 1131 145 1143T174 1155H352Q369 1155 381 1143T393 1114V1071Q520 1169 686 1169Q703
1169 715 1157T727 1128V981Z" />
<glyph unicode="s" glyph-name="s" horiz-adv-x="1001" d="M909 303Q909 163 805 74T508 -16Q431 -16 325 -6T141 25Q102 35 102 72V195Q102 207 112 217T137 227H145Q215 219 326 212T489 205Q576 205 605 230T635 303Q635 331 615 353T545 408L264 580Q186 628
139 702T92 862Q92 1169 481 1169Q659 1169 846 1128Q883 1119 883 1081V963Q883 924 850 924H842Q668 948 504 948Q429 948 396 929T362 862Q362 839 380 822T444 778L713 614Q775 576 815 537T875 458T902 382T909 303Z" />
<glyph unicode="t" glyph-name="t" horiz-adv-x="829" d="M778 35Q778 4 739 -2Q653 -16 600 -16Q526 -16 477 -9T386 19T322 76T287 170T274 309V952L82 981Q41 988 41 1022V1114Q41 1131 53 1143T82 1155H274V1323Q274 1339 285 1350T315 1364L506 1397H514Q528
1397 537 1389T547 1366V1155H731Q748 1155 760 1143T772 1114V993Q772 976 760 964T731 952H547V309Q547 232 559 214T627 195H735Q778 195 778 164V35Z" />
<glyph unicode="u" glyph-name="u" horiz-adv-x="1212" d="M1079 41Q1079 24 1067 12T1038 0H850Q833 0 821 12T809 41V88Q725 33 654 10T487 -14Q321 -14 236 72Q133 174 133 444V1112Q133 1129 145 1142T174 1155H362Q379 1155 391 1142T403 1112V444Q403 363
413 318T451 248Q492 211 578 211Q658 211 809 293V1112Q809 1129 821 1142T850 1155H1038Q1055 1155 1067 1142T1079 1112V41Z" />
<glyph unicode="v" glyph-name="v" horiz-adv-x="1128" d="M1079 1122Q1079 1112 1077 1108L819 176Q767 -16 563 -16Q361 -16 309 176L51 1108Q49 1112 49 1122Q49 1136 58 1145T82 1155H287Q301 1155 312 1145T328 1114L524 256Q534 205 563 205T602 256L799
1114Q808 1155 842 1155H1047Q1061 1155 1070 1146T1079 1122Z" />
<glyph unicode="w" glyph-name="w" horiz-adv-x="1677" d="M1624 1114V1108L1438 166Q1418 69 1382 32T1255 -6H1200Q1119 -6 1073 33T1006 154L844 780Q841 791 838 791T831 780L670 154Q649 72 603 33T475 -6H420Q330 -6 294 31T238 166L51 1108V1114Q51 1131
63 1143T92 1155H291Q305 1155 315 1144T328 1118L457 252Q460 223 467 223Q475 223 481 252L651 940Q666 997 688 1012T766 1028H909Q965 1028 987 1013T1024 940L1194 252Q1200 223 1208 223T1219 252L1348 1118Q1350 1133 1360 1144T1384 1155H1583Q1600 1155
1612 1143T1624 1114Z" />
<glyph unicode="x" glyph-name="x" horiz-adv-x="1140" d="M1100 27Q1100 16 1091 8T1069 0H836Q818 0 808 7T780 41L547 401L326 41Q309 15 299 8T270 0H59Q35 0 35 23Q35 32 41 41L408 596L61 1114Q57 1122 57 1126Q57 1137 67 1146T90 1155H324Q340 1155 350
1147T377 1114L584 795L776 1114Q792 1140 802 1147T831 1155H1042Q1067 1155 1067 1133Q1067 1123 1061 1114L723 598L1096 41Q1100 33 1100 27Z" />
<glyph unicode="y" glyph-name="y" horiz-adv-x="1146" d="M1096 1120Q1096 1112 1094 1108L752 -88Q726 -178 699 -233T624 -331T507 -392T334 -410Q283 -410 218 -402T117 -383Q74 -372 74 -348V-217Q74 -201 86 -191T115 -180H119Q140 -181 229 -187T350 -193Q419
-193 455 -166T512 -61L528 0H498Q471 0 451 5T405 26T357 78T319 170L51 1108Q49 1114 49 1122Q49 1155 88 1155H295Q308 1155 319 1144T334 1118L541 285Q551 240 569 240H571H582H588L809 1120Q812 1135 823 1145T850 1155H1059Q1074 1155 1085 1145T1096 1120Z"
/>
<glyph unicode="z" glyph-name="z" horiz-adv-x="1003" d="M922 41Q922 24 910 12T881 0H164Q130 0 106 24T82 82V170Q82 200 109 236L604 918Q610 927 610 930Q610 936 598 936H135Q119 936 109 945T98 969V1114Q98 1131 110 1143T139 1155H836Q870 1155 894
1130T918 1071V954Q918 922 907 907L430 254L426 248Q426 240 438 240H885Q900 240 911 231T922 207V41Z" />
<glyph unicode="{" glyph-name="braceleft" horiz-adv-x="743" d="M723 -371Q723 -386 712 -396T684 -406H569Q452 -406 381 -390T268 -332T212 -228T197 -63V248Q197 328 169 381T76 477V641Q140 684 167 737T195 870V1180Q195 1283 209 1344T266 1448T379 1506T567
1522H684Q701 1522 712 1512T723 1487V1337Q723 1322 713 1314T684 1305H588Q512 1305 491 1280T469 1180V870Q469 761 432 686T309 559Q395 508 433 432T471 248V-63Q471 -139 492 -163T590 -188H684Q701 -188 712 -197T723 -221V-371Z" />
<glyph unicode="|" glyph-name="bar" horiz-adv-x="561" d="M418 -356Q418 -373 407 -385T379 -397H184Q167 -397 155 -385T143 -356V1481Q143 1498 155 1510T184 1522H379Q395 1522 406 1510T418 1481V-356Z" />
<glyph unicode="}" glyph-name="braceright" horiz-adv-x="743" d="M668 477Q604 434 576 381T547 248V-63Q547 -146 538 -200T505 -297T438 -361T331 -395T174 -406H59Q42 -406 31 -396T20 -371V-221Q20 -206 31 -197T59 -188H154Q229 -188 250 -164T272 -63V248Q272
356 310 432T434 559Q349 610 312 685T274 870V1180Q274 1255 253 1280T156 1305H59Q42 1305 31 1313T20 1337V1487Q20 1502 31 1512T59 1522H176Q293 1522 364 1506T477 1449T534 1345T549 1180V870Q549 790 576 737T668 641V477Z" />
<glyph unicode="~" glyph-name="asciitilde" horiz-adv-x="1290" d="M1130 973Q1130 821 1066 755T866 688Q771 688 713 729L532 854Q494 881 453 881Q379 881 379 795V741Q379 700 344 700H199Q162 700 162 741V795Q162 945 227 1013T428 1081Q465 1081 508 1070T580
1038L760 915Q799 889 842 889Q880 889 896 907T913 973V1026Q913 1067 948 1067H1092Q1130 1067 1130 1026V973Z" />
</font>
</defs>
</svg>
