<?xml version="1.0" standalone="no"?> <!DOCTYPE svg PUBLIC "-//W3C//DTD SVG 1.0//EN" "http://www.w3.org/TR/2001/REC-SVG-20010904/DTD/svg10.dtd" > <svg xmlns="http://www.w3.org/2000/svg" width="100%" height="100%">
<defs >
<font id="neosansstdultra" horiz-adv-x="1040" ><font-face
    font-family="Neo Sans Std Ultra"
    units-per-em="2048"
    panose-1="2 11 11 4 3 5 4 4 2 4"
    ascent="1567"
    descent="-481"
    alphabetic="0" />
<missing-glyph horiz-adv-x="1024" d="M25 0V1362H997V0H25ZM180 1266L512 768L842 1266H180ZM123 1178V186Q123 185 205 309T370 558L453 682L123 1178ZM901 1178L569 682L901 184V1178ZM842 98L512 594L180 98H842Z" />
<glyph unicode=" " glyph-name="space" horiz-adv-x="495" />
<glyph unicode="!" glyph-name="exclam" horiz-adv-x="632" d="M551 1554V1552L489 565Q487 546 477 533T449 520H188Q170 520 158 533T143 565L82 1552V1554Q82 1571 95 1583T127 1595H510Q527 1595 539 1583T551 1554ZM537 41Q537 24 525 12T496 0H137Q120 0
108 12T96 41V352Q96 369 108 381T137 393H496Q513 393 525 381T537 352V41Z" />
<glyph unicode="&quot;" glyph-name="quotedbl" horiz-adv-x="1017" d="M1073 1573Q1073 1570 1069 1556L889 1061Q881 1040 873 1031T850 1022H553Q535 1022 535 1042Q535 1055 537 1061L662 1556Q673 1595 702 1595H1049Q1073 1595 1073 1573ZM547 1573Q547
1570 543 1556L362 1061Q354 1039 346 1031T324 1022H27Q8 1022 8 1042Q8 1055 10 1061L135 1556Q146 1595 176 1595H522Q547 1595 547 1573Z" />
<glyph unicode="#" glyph-name="numbersign" horiz-adv-x="1464" d="M1409 1135V1130L1386 924Q1385 909 1374 900T1346 891H1198L1174 627H1323Q1337 627 1348 618T1360 596V592L1337 385Q1336 370 1324 361T1296 352H1149L1122 39Q1118 0 1085 0H780Q765 0 757
10T748 35V39L774 352H610L584 39Q582 23 572 12T547 0H240Q226 0 217 10T207 35V39L233 352H92Q77 352 66 360T55 381V385L78 592Q79 607 91 617T119 627H258L283 891H141Q126 891 115 899T104 920V924L127 1130Q128 1145 140 1155T168 1165H305L334 1483Q336
1499 347 1510T373 1522H680Q693 1522 702 1512T711 1487V1483L682 1165H846L874 1483Q876 1499 886 1510T913 1522H1219Q1233 1522 1241 1512T1249 1487V1483L1221 1165H1372Q1387 1165 1398 1157T1409 1135ZM823 891H659L635 627H799L823 891Z" />
<glyph unicode="$" glyph-name="dollar" horiz-adv-x="1372" d="M1253 469Q1253 391 1230 319T1159 183T1030 70T844 -2V-209Q844 -226 832 -238T803 -250H500Q483 -250 471 -238T459 -209V-10Q341 3 213 41Q170 52 170 82V387Q170 403 181 415T209 428H213Q514
393 653 393Q729 393 729 457Q729 473 717 487T672 520L365 698Q294 739 245 788T169 894T131 1005T119 1126Q119 1453 459 1524V1710Q459 1727 471 1739T500 1751H803Q820 1751 832 1739T844 1710V1534Q1053 1518 1165 1485Q1206 1474 1206 1444V1139Q1206 1122
1196 1110T1169 1098H1165Q841 1128 668 1128Q625 1128 625 1096Q625 1081 638 1068T700 1030L991 877Q1127 804 1190 704T1253 469Z" />
<glyph unicode="%" glyph-name="percent" horiz-adv-x="1835" d="M1763 356Q1763 -12 1440 -12Q1116 -12 1116 356V479Q1116 664 1198 756T1440 848Q1763 848 1763 479V356ZM1530 1499Q1530 1488 1524 1479L676 45Q664 26 659 19T646 6T625 0H334Q322 0 315 7T307
27T311 45L1159 1479Q1174 1503 1185 1512T1214 1522H1505Q1530 1522 1530 1499ZM719 1040Q719 855 637 764T395 672Q72 672 72 1040V1163Q72 1532 395 1532Q554 1532 636 1440T719 1163V1040ZM1495 356V479Q1495 539 1488 571T1471 612T1440 621Q1410 621 1396
594T1382 479V356Q1382 269 1396 241T1440 213Q1469 213 1482 240T1495 356ZM451 1040V1163Q451 1223 444 1255T426 1296T395 1305Q365 1305 352 1278T338 1163V1040Q338 953 351 925T395 897Q415 897 426 906T444 947T451 1040Z" />
<glyph unicode="&amp;" glyph-name="ampersand" horiz-adv-x="1558" d="M1577 45T1577 31T1568 9T1546 0H1133Q1120 0 1114 3T1096 18L1061 53Q906 -20 698 -20Q583 -20 490 -7T320 37T190 115T109 234T80 397V434Q80 565 147 656T336 823L317 846Q226 957 193
1017T160 1145V1161Q160 1240 187 1305T272 1425T435 1511T682 1542Q957 1542 1080 1443T1204 1157V1141Q1204 1028 1155 953T997 803L909 741L1075 569Q1090 631 1090 707V733Q1090 750 1101 762T1130 774H1405Q1422 774 1434 762T1446 733V707Q1446 478 1335
299L1563 59Q1577 45 1577 31ZM776 1141V1157Q776 1191 753 1214T682 1237Q588 1237 588 1157V1141Q588 1105 599 1079T641 1022L653 1010L694 1036Q745 1070 760 1090T776 1141ZM819 309L596 547Q543 510 543 424V408Q543 357 580 325T698 293Q760 293 819 309Z"
/>
<glyph unicode="&apos;" glyph-name="quotesingle" horiz-adv-x="491" d="M547 1573Q547 1570 543 1556L362 1061Q354 1039 346 1031T324 1022H27Q8 1022 8 1042Q8 1055 10 1061L135 1556Q146 1595 176 1595H522Q547 1595 547 1573Z" />
<glyph unicode="(" glyph-name="parenleft" horiz-adv-x="823" d="M772 -379Q772 -399 748 -399H420Q372 -399 350 -371Q215 -181 149 35T82 541V580Q82 869 148 1086T350 1493Q371 1522 420 1522H748Q772 1522 772 1501Q772 1486 762 1468Q541 1061 541 580V541Q541
63 762 -346Q772 -363 772 -379Z" />
<glyph unicode=")" glyph-name="parenright" horiz-adv-x="823" d="M741 541Q741 252 675 36T473 -371Q453 -399 403 -399H76Q51 -399 51 -379Q51 -363 61 -346Q283 65 283 541V580Q283 1059 61 1468Q51 1486 51 1501Q51 1522 76 1522H403Q453 1522 473 1493Q608
1303 674 1086T741 580V541Z" />
<glyph unicode="*" glyph-name="asterisk" horiz-adv-x="983" d="M944 1124Q944 1100 911 1090L692 1028L831 844Q844 830 844 813T829 786L676 676Q667 670 655 670Q634 670 621 690L492 883L362 690Q349 670 328 670Q316 670 307 676L154 786Q139 796 139 813T152
844L291 1028L74 1090Q39 1100 39 1126Q39 1133 41 1137L100 1319Q108 1341 131 1341Q134 1341 152 1337L369 1262L362 1489V1491Q362 1534 395 1534H588Q621 1534 621 1491V1489L616 1262L831 1337Q849 1341 852 1341Q875 1341 883 1319L942 1137Q944 1133 944
1124Z" />
<glyph unicode="+" glyph-name="plus" horiz-adv-x="1372" d="M1184 668Q1184 635 1143 635H852V346Q852 305 819 305H553Q520 305 520 346V635H231Q190 635 190 668V934Q190 950 202 958T231 967H520V1257Q520 1298 553 1298H819Q852 1298 852 1257V967H1143Q1160
967 1172 959T1184 934V668Z" />
<glyph unicode="," glyph-name="comma" horiz-adv-x="606" d="M543 365Q543 356 541 352L311 -164Q295 -205 270 -205H10Q-6 -205 -18 -195T-31 -170V-164L113 352Q124 393 156 393H510Q523 393 533 385T543 365Z" />
<glyph unicode="-" glyph-name="hyphen" horiz-adv-x="536" d="M506 487Q506 470 494 458T465 446H72Q55 446 43 458T31 487V729Q31 746 43 758T72 770H465Q482 770 494 758T506 729V487Z" />
<glyph unicode="." glyph-name="period" horiz-adv-x="606" d="M524 41Q524 24 511 12T481 0H125Q108 0 95 12T82 41V352Q82 369 95 381T125 393H481Q498 393 511 381T524 352V41Z" />
<glyph unicode="/" glyph-name="slash" horiz-adv-x="911" d="M891 1487Q891 1485 890 1483T889 1479L479 45Q467 0 436 0H68Q50 0 35 12T20 39V45L430 1479Q435 1497 447 1509T477 1522H846Q863 1522 877 1511T891 1487Z" />
<glyph unicode="0" glyph-name="zero" horiz-adv-x="1372" d="M1274 649Q1274 312 1125 146T686 -20T248 146T98 649V872Q98 1209 247 1375T686 1542T1124 1376T1274 872V649ZM788 649V872Q788 981 775 1039T741 1114T686 1130Q660 1130 644 1122T613 1087T591
1008T584 872V649Q584 540 598 482T632 407T686 391Q712 391 728 400T759 434T781 513T788 649Z" />
<glyph unicode="1" glyph-name="one" horiz-adv-x="1372" d="M217 408H465V1044L219 965Q201 958 195 958Q174 958 174 983V1329Q174 1359 203 1370L573 1511Q600 1522 618 1522H905Q922 1522 934 1510T946 1481V408H1194Q1211 408 1224 396T1237 367V41Q1237
24 1224 12T1194 0H217Q200 0 187 12T174 41V367Q174 383 187 395T217 408Z" />
<glyph unicode="2" glyph-name="two" horiz-adv-x="1372" d="M1239 1122Q1239 1042 1212 972T1132 845T1023 743T889 653Q798 600 749 569T651 494T584 408H1171Q1188 408 1201 396T1214 367V41Q1214 24 1201 12T1171 0H176Q159 0 146 12T133 41V266Q133 359 154
440T207 583T291 701T392 798T508 883Q545 908 583 933T643 972T686 1000T718 1023T738 1041T751 1058T756 1076T758 1098Q758 1121 749 1132T701 1151T588 1159Q445 1159 193 1139H190Q174 1139 163 1151T152 1180V1415Q152 1440 193 1456Q419 1542 678 1542Q832
1542 940 1516T1114 1435T1209 1305T1239 1122Z" />
<glyph unicode="3" glyph-name="three" horiz-adv-x="1372" d="M1237 432Q1237 193 1093 87T664 -20Q538 -20 394 6T180 63Q178 64 169 69T156 76T147 83T139 93T137 104V342Q137 359 149 371T178 383H180Q466 362 623 362Q770 362 770 477Q770 527 741 559T649
592H295Q278 592 266 604T254 633V897Q254 914 266 926T295 938H625Q696 938 732 971T768 1055Q768 1159 623 1159Q561 1159 488 1156T310 1147T195 1139H193Q176 1139 164 1151T152 1180V1417Q152 1427 158 1435T170 1446T189 1455Q193 1457 195 1458Q265 1490
402 1516T664 1542Q807 1542 909 1521T1087 1450T1200 1316T1237 1110Q1237 1026 1210 960T1145 852T1047 772Q1237 678 1237 432Z" />
<glyph unicode="4" glyph-name="four" horiz-adv-x="1372" d="M1294 332Q1294 315 1282 303T1253 291H1151V41Q1151 24 1139 12T1110 0H711Q694 0 682 12T670 41V291H121Q104 291 92 303T80 332V598Q80 629 100 655L780 1511Q790 1522 807 1522H825H1110Q1127
1522 1139 1510T1151 1481V653H1253Q1270 653 1282 641T1294 612V332ZM692 653V985L430 653H692Z" />
<glyph unicode="5" glyph-name="five" horiz-adv-x="1372" d="M1227 481Q1227 351 1183 254T1056 98T865 9T618 -20Q384 -20 193 55Q150 71 150 96V342Q150 359 161 371T188 383H193Q239 378 363 370T510 362Q608 362 656 375T719 411T733 481V506Q733 559 704
584T588 610H190Q173 610 160 622T147 649V651L211 1481Q213 1498 224 1510T252 1522H1151Q1168 1522 1180 1510T1192 1481V1180Q1192 1163 1180 1151T1151 1139H594L580 973H688Q816 973 912 949T1067 884T1163 782T1213 655T1227 506V481Z" />
<glyph unicode="6" glyph-name="six" horiz-adv-x="1372" d="M1257 520Q1257 267 1113 124T688 -20Q407 -20 261 122T115 520V987Q115 1104 147 1198T233 1356T361 1462T516 1523T688 1542Q930 1542 1143 1479Q1170 1470 1178 1458T1186 1425V1171Q1186 1130 1149
1130H1139Q923 1159 778 1159Q724 1159 692 1153T634 1129T599 1077T588 987V977Q679 991 739 991Q1257 991 1257 532V520ZM786 520V532Q786 615 763 645T688 676Q648 676 588 670V520Q588 416 614 375T688 334Q735 334 760 375T786 520Z" />
<glyph unicode="7" glyph-name="seven" horiz-adv-x="1372" d="M1229 1253Q1229 1216 1204 1163L653 41Q637 8 625 3Q619 0 612 0H176Q143 0 143 20Q143 30 150 41L702 1139H190Q173 1139 160 1151T147 1180V1481Q147 1497 160 1509T190 1522H1188Q1204 1522 1216
1510T1229 1481V1253Z" />
<glyph unicode="8" glyph-name="eight" horiz-adv-x="1372" d="M1280 430Q1280 355 1260 290T1194 167T1081 68T916 4T698 -20H674Q554 -20 456 3T291 68T179 166T113 289T92 430V471Q92 567 133 648T246 786Q178 838 140 905T102 1067V1120Q102 1215 134 1290T233
1423T411 1511T674 1542H698Q849 1542 960 1512T1139 1424T1238 1291T1270 1120V1067Q1270 972 1232 905T1126 786Q1199 730 1239 649T1280 471V430ZM811 1053V1069Q811 1118 785 1155T698 1192H674Q614 1192 588 1155T561 1069V1053Q561 997 592 969T674 940H698Q748
940 779 968T811 1053ZM813 459V481Q813 621 698 621H674Q559 621 559 481V459Q559 399 589 364T674 328H698Q752 328 782 363T813 459Z" />
<glyph unicode="9" glyph-name="nine" horiz-adv-x="1372" d="M1245 535Q1245 418 1213 324T1127 166T999 60T844 -1T672 -20Q424 -20 217 43Q190 51 182 63T174 96V350Q174 391 211 391H221Q453 362 582 362Q689 362 730 395T772 535V545Q671 530 621 530Q102
530 102 989V1001Q102 1254 247 1398T672 1542Q953 1542 1099 1399T1245 1001V535ZM772 852V1001Q772 1106 746 1147T672 1188T599 1147T573 1001V989Q573 906 596 876T672 846Q712 846 772 852Z" />
<glyph unicode=":" glyph-name="colon" horiz-adv-x="606" d="M524 776Q524 760 511 748T481 735H125Q108 735 95 747T82 776V1087Q82 1104 95 1116T125 1128H481Q498 1128 511 1116T524 1087V776ZM524 41Q524 24 511 12T481 0H125Q108 0 95 12T82 41V352Q82 369
95 381T125 393H481Q498 393 511 381T524 352V41Z" />
<glyph unicode=";" glyph-name="semicolon" horiz-adv-x="606" d="M530 776Q530 760 517 748T487 735H131Q114 735 101 747T88 776V1087Q88 1104 101 1116T131 1128H487Q504 1128 517 1116T530 1087V776ZM131 393H485Q504 393 514 383T516 352L287 -164Q271 -205
246 -205H-14Q-34 -205 -47 -195T-55 -164L88 352Q99 393 131 393Z" />
<glyph unicode="&lt;" glyph-name="less" horiz-adv-x="1372" d="M1188 297Q1188 288 1180 281T1161 274H758Q726 274 700 295L217 741Q186 774 186 801Q186 829 217 860L700 1307Q724 1327 758 1327H1161Q1172 1327 1180 1321T1188 1305Q1188 1291 1174 1280L649
801L1174 322Q1188 309 1188 297Z" />
<glyph unicode="=" glyph-name="equal" horiz-adv-x="1372" d="M1184 958Q1184 926 1143 926H231Q190 926 190 958V1225Q190 1257 231 1257H1143Q1184 1257 1184 1225V958ZM1184 377Q1184 344 1143 344H231Q190 344 190 377V643Q190 676 231 676H1143Q1184 676
1184 643V377Z" />
<glyph unicode="&gt;" glyph-name="greater" horiz-adv-x="1372" d="M1186 801Q1186 772 1155 741L672 295Q646 274 614 274H211Q200 274 192 281T184 297Q184 310 199 322L723 801L199 1280Q184 1291 184 1305Q184 1314 192 1320T211 1327H614Q648 1327 672 1307L1155
860Q1186 831 1186 801Z" />
<glyph unicode="?" glyph-name="question" horiz-adv-x="1024" d="M963 1237Q963 1151 939 1092T866 963L596 559Q566 518 530 518H256Q239 518 227 530T215 559V643Q215 742 230 791T301 934L399 1102Q426 1149 426 1174Q426 1200 389 1200Q328 1200 102 1178Q61
1173 61 1219V1513Q61 1538 102 1554Q258 1614 455 1614Q717 1614 840 1529T963 1237ZM635 41Q635 24 622 12T592 0H236Q219 0 206 12T193 41V352Q193 369 206 381T236 393H592Q609 393 622 381T635 352V41Z" />
<glyph unicode="@" glyph-name="at" horiz-adv-x="1622" d="M1561 727Q1561 591 1521 482T1409 298T1239 173T1024 99T776 76Q696 76 629 93T508 147T424 245T393 387Q393 393 394 404T395 422L414 657Q441 1022 854 1022Q996 1022 1137 989Q1170 982 1186 966T1198
913L1143 326Q1233 347 1294 460T1356 727Q1356 800 1342 864T1294 989T1208 1093T1073 1163T885 1190Q614 1190 472 1072T305 702L272 356Q268 312 268 293Q268 208 293 143T362 35T471 -35T610 -73T776 -84Q917 -84 1098 -68H1100Q1116 -68 1116 -92V-193Q1116
-212 1100 -215Q1047 -225 950 -234T776 -244Q658 -244 555 -226T360 -167T203 -65T101 87T63 293Q63 312 68 375L100 717Q131 1032 333 1200T885 1368Q1023 1368 1137 1333T1328 1238T1459 1095T1537 921T1561 727ZM877 764Q840 770 817 770Q764 770 745 748T719
647L696 426Q694 414 694 387Q694 347 714 336T776 324Q801 324 838 326L877 764Z" />
<glyph unicode="A" glyph-name="A" horiz-adv-x="1466" d="M1395 0H969Q952 0 941 11T926 41L889 270H578L541 41Q538 23 526 12T498 0H72Q34 0 41 41L285 1278Q300 1355 336 1407T431 1488T562 1530T733 1542T904 1530T1035 1489T1130 1407T1182 1278L1425 41Q1429
23 1422 12T1395 0ZM827 647L752 1124Q751 1134 750 1139T744 1147T733 1151Q723 1151 720 1145T715 1124L639 647H827Z" />
<glyph unicode="B" glyph-name="B" horiz-adv-x="1441" d="M1360 467Q1360 377 1337 304T1276 181T1182 94T1067 36T936 1T802 -16T668 -20Q392 -20 256 4Q171 20 142 54T113 182V1341Q113 1434 142 1468T256 1518Q324 1529 459 1535T668 1542Q800 1542 900 1530T1089
1488T1233 1407T1320 1279T1352 1094V1061Q1352 970 1312 896T1210 780Q1271 738 1315 656T1360 489V467ZM889 1022V1055Q889 1097 857 1125T752 1153H584V924H752Q889 924 889 1022ZM895 485V498Q895 610 752 610H584V369H752Q827 369 861 402T895 485Z" />
<glyph unicode="C" glyph-name="C" horiz-adv-x="1122" d="M1051 63Q1051 44 1043 36T1008 18Q894 -20 739 -20Q410 -20 246 158T82 678V844Q82 1187 245 1364T739 1542Q900 1542 1008 1503Q1035 1494 1043 1486T1051 1458V1135Q1051 1112 1042 1104T1010 1098Q1005
1098 957 1103T866 1112T784 1116Q731 1116 696 1106T631 1069T586 986T571 844V678Q571 606 581 556T609 476T655 431T713 411T786 406Q848 406 1010 424Q1033 427 1042 419T1051 387V63Z" />
<glyph unicode="D" glyph-name="D" horiz-adv-x="1445" d="M1364 668Q1364 489 1316 356T1177 141T964 20T686 -20Q403 -20 184 18Q145 25 129 43T113 106V1415Q113 1460 129 1478T184 1503Q399 1542 686 1542Q841 1542 963 1503T1176 1382T1315 1167T1364 854V668ZM874
668V854Q874 1015 834 1071T686 1128H596V393H686Q794 393 834 450T874 668Z" />
<glyph unicode="E" glyph-name="E" horiz-adv-x="1218" d="M1106 43Q1106 26 1094 15T1065 2Q880 -20 653 -20Q592 -20 541 -16T431 2T328 36T239 94T166 180T120 300T102 459V1063Q102 1151 119 1222T166 1342T238 1427T327 1485T431 1520T540 1537T653 1542Q880
1542 1065 1520Q1082 1518 1094 1507T1106 1479V1169Q1106 1152 1094 1140T1065 1128H653Q614 1128 600 1115T586 1063V952H1065Q1082 952 1094 940T1106 911V623Q1106 606 1094 594T1065 582H586V459Q586 421 600 407T653 393H1065Q1082 393 1094 381T1106 352V43Z"
/>
<glyph unicode="F" glyph-name="F" horiz-adv-x="1208" d="M1106 623Q1106 606 1094 594T1065 582H586V41Q586 24 574 12T545 0H145Q128 0 115 12T102 41V1063Q102 1151 119 1222T166 1342T238 1427T327 1485T431 1520T540 1537T653 1542Q880 1542 1065 1520Q1082
1518 1094 1507T1106 1479V1169Q1106 1152 1094 1140T1065 1128H653Q614 1128 600 1115T586 1063V952H1065Q1082 952 1094 940T1106 911V623Z" />
<glyph unicode="G" glyph-name="G" horiz-adv-x="1378" d="M1266 82Q1266 57 1259 50T1223 37Q959 -20 733 -20Q672 -20 615 -13T491 14T368 67T257 153T166 278T105 450T82 674V848Q82 973 105 1075T167 1248T260 1373T374 1458T501 1509T630 1535T754 1542Q1005
1542 1223 1479Q1253 1470 1259 1462T1266 1434V1133Q1266 1109 1259 1101T1231 1096Q1076 1116 868 1116Q779 1116 727 1106T637 1067T585 985T571 848V670Q571 593 582 538T609 456T650 414T692 396T733 393Q772 393 801 399V768Q801 785 813 797T842 809H1225Q1242
809 1254 797T1266 768V82Z" />
<glyph unicode="H" glyph-name="H" horiz-adv-x="1542" d="M1430 41Q1430 24 1418 12T1389 0H989Q972 0 959 12T946 41V563H596V41Q596 24 584 12T555 0H156Q139 0 126 12T113 41V1481Q113 1497 126 1509T156 1522H555Q572 1522 584 1510T596 1481V977H946V1481Q946
1497 959 1509T989 1522H1389Q1406 1522 1418 1510T1430 1481V41Z" />
<glyph unicode="I" glyph-name="I" horiz-adv-x="729" d="M606 41Q606 24 594 12T565 0H166Q149 0 136 12T123 41V1481Q123 1497 136 1509T166 1522H565Q582 1522 594 1510T606 1481V41Z" />
<glyph unicode="J" glyph-name="J" horiz-adv-x="729" d="M606 10Q606 -108 579 -192T498 -326T376 -399T217 -422Q70 -422 -10 -410Q-28 -407 -39 -396T-51 -369V-94Q-51 -77 -39 -65T-10 -53H78Q106 -53 114 -41T123 10V1481Q123 1497 136 1509T166 1522H565Q582
1522 594 1510T606 1481V10Z" />
<glyph unicode="K" glyph-name="K" horiz-adv-x="1523" d="M1477 25Q1477 0 1452 0H969Q940 0 926 10T903 41L596 670V41Q596 24 584 12T555 0H156Q139 0 126 12T113 41V1481Q113 1497 126 1509T156 1522H555Q572 1522 584 1510T596 1481V836L934 1481Q941 1495
945 1501T957 1515T977 1522H1450Q1475 1522 1475 1497Q1475 1487 1470 1481L1065 764L1473 41Q1477 35 1477 25Z" />
<glyph unicode="L" glyph-name="L" horiz-adv-x="1064" d="M1014 43Q1014 27 1003 16T973 2Q844 -20 664 -20Q603 -20 552 -16T442 2T339 36T250 94T177 180T131 300T113 459V1481Q113 1497 126 1509T156 1522H555Q572 1522 584 1510T596 1481V459Q596 421 610
407T664 393H973Q990 393 1002 381T1014 352V43Z" />
<glyph unicode="M" glyph-name="M" horiz-adv-x="1773" d="M1651 23Q1651 0 1618 0H1214Q1202 0 1194 12T1186 41V682Q1186 694 1185 697T1174 700T1153 682L1001 457Q986 434 975 426T946 418H827Q810 418 799 426T772 457L621 682Q608 700 600 700Q591 700 590
697T588 682V41Q588 24 580 12T559 0H156Q146 0 141 0T129 6T123 23V1450Q123 1479 144 1500T195 1522H463Q507 1522 534 1506T582 1454L862 1001Q875 979 887 979Q898 979 911 1001L1192 1454Q1213 1490 1239 1506T1311 1522H1579Q1608 1522 1629 1501T1651 1450V23Z"
/>
<glyph unicode="N" glyph-name="N" horiz-adv-x="1562" d="M1440 72Q1440 43 1419 22T1368 0H1018Q979 0 952 45L614 608Q604 625 594 625T584 606V41Q584 24 571 12T541 0H166Q149 0 136 12T123 41V1450Q123 1479 144 1500T195 1522H530Q576 1522 608 1464L952
899Q963 881 973 881Q977 881 978 881T981 886T983 899V1481Q983 1498 995 1510T1024 1522H1399Q1416 1522 1428 1510T1440 1481V72Z" />
<glyph unicode="O" glyph-name="O" horiz-adv-x="1466" d="M1384 672Q1384 520 1349 400T1253 203T1109 74T932 2T733 -20T535 1T358 74T213 202T118 400T82 672V850Q82 1002 117 1122T213 1319T357 1448T534 1520T733 1542T931 1521T1108 1448T1253 1320T1348
1122T1384 850V672ZM895 672V850Q895 994 858 1055T733 1116T609 1055T571 850V672Q571 527 608 467T733 406T857 466T895 672Z" />
<glyph unicode="P" glyph-name="P" horiz-adv-x="1429" d="M1368 993Q1368 870 1327 775T1221 621T1068 525T893 473T715 459Q704 459 590 463V41Q590 24 578 12T549 0H156Q113 0 113 33V1343Q113 1436 142 1469T256 1518Q409 1542 705 1542Q802 1542 889 1529T1067
1478T1221 1382T1327 1228T1368 1008V993ZM889 993V1008Q889 1075 843 1107T715 1139H590V862H715Q795 862 842 895T889 993Z" />
<glyph unicode="Q" glyph-name="Q" horiz-adv-x="1466" d="M1384 672Q1384 525 1353 409T1263 215T1130 86T963 10V-29Q963 -46 967 -49T987 -53H1143Q1165 -53 1179 -62T1194 -86V-338Q1194 -353 1180 -367T1143 -387Q1020 -422 864 -422Q808 -422 760 -412T665
-374T584 -304T531 -191T510 -29V8Q416 35 341 85T206 213T114 408T82 672V850Q82 1002 117 1122T213 1319T357 1448T534 1520T733 1542T931 1521T1108 1448T1253 1320T1348 1122T1384 850V672ZM895 672V850Q895 994 858 1055T733 1116T609 1055T571 850V672Q571
527 608 467T733 406T857 466T895 672Z" />
<glyph unicode="R" glyph-name="R" horiz-adv-x="1497" d="M1425 37Q1425 20 1414 10T1389 0H961Q944 0 932 7T916 20T905 41L662 522H596V41Q596 24 584 12T555 0H156Q139 0 126 12T113 41V1343Q113 1436 142 1469T256 1518Q311 1526 456 1534T705 1542Q832 1542
932 1527T1117 1474T1256 1379T1341 1234T1372 1032V991Q1372 840 1303 739T1137 594L1419 59Q1425 47 1425 37ZM891 989V1030Q891 1085 859 1112T750 1139H596V881H750Q821 881 856 912T891 989Z" />
<glyph unicode="S" glyph-name="S" horiz-adv-x="1277" d="M1206 469Q1206 395 1186 326T1119 194T1004 83T833 8T606 -20Q366 -20 166 41Q123 52 123 82V387Q123 433 166 428Q167 428 275 417T464 399T606 393Q682 393 682 457Q682 473 670 487T625 520L317 698Q181
777 127 884T72 1126Q72 1542 621 1542Q749 1542 898 1525T1118 1485Q1159 1474 1159 1444V1139Q1159 1117 1151 1106T1118 1098Q848 1128 621 1128Q578 1128 578 1096Q578 1081 591 1068T653 1030L944 877Q1080 804 1143 704T1206 469Z" />
<glyph unicode="T" glyph-name="T" horiz-adv-x="1232" d="M1182 1169Q1182 1153 1169 1141T1139 1128H860V41Q860 24 848 12T819 0H420Q403 0 391 12T379 41V1128H92Q76 1128 64 1140T51 1169V1481Q51 1498 63 1510T92 1522H1139Q1156 1522 1169 1510T1182 1481V1169Z" />
<glyph unicode="U" glyph-name="U" horiz-adv-x="1540" d="M1417 586Q1417 476 1398 387T1345 235T1262 127T1159 53T1037 8T906 -14T770 -20T634 -15T504 8T382 52T278 126T195 235T143 386T123 586V1481Q123 1497 136 1509T166 1522H565Q582 1522 594 1510T606
1481V586Q606 471 645 430T770 389T895 430T934 586V1481Q934 1498 946 1510T975 1522H1374Q1391 1522 1404 1510T1417 1481V586Z" />
<glyph unicode="V" glyph-name="V" horiz-adv-x="1486" d="M1405 1522Q1443 1522 1436 1481L1192 244Q1177 167 1141 115T1045 34T914 -8T743 -20Q611 -20 524 1T376 82T295 244L51 1481Q44 1522 82 1522H508Q524 1522 536 1510T551 1481L725 397Q728 371 743
371Q750 371 754 374T759 382T762 397L936 1481Q939 1498 950 1510T979 1522H1405Z" />
<glyph unicode="W" glyph-name="W" horiz-adv-x="1935" d="M1851 1522Q1869 1522 1876 1518T1882 1499L1690 129Q1678 46 1639 13T1524 -20H1313Q1239 -20 1204 9T1143 113L985 580Q979 602 967 602Q954 602 948 580L791 113Q766 38 730 9T621 -20H410Q334 -20
295 13T244 129L51 1499Q50 1513 59 1517T82 1522H502Q514 1522 520 1515T528 1503T530 1481L614 758Q617 733 629 733Q640 733 647 758L739 1030Q754 1074 777 1091T854 1108H1079Q1132 1108 1156 1091T1194 1030L1286 758Q1293 733 1303 733Q1316 733 1319 758L1403
1481Q1405 1501 1410 1511T1432 1522H1851Z" />
<glyph unicode="X" glyph-name="X" horiz-adv-x="1515" d="M1456 0H963Q938 0 927 8T901 41L725 340L571 41Q559 17 549 9T524 0H59Q45 0 40 14T41 41L451 807L53 1481Q45 1493 51 1507T72 1522H580Q602 1522 627 1481L793 1200L926 1481Q946 1522 973 1522H1440Q1455
1522 1460 1508T1458 1481L1055 754L1475 41Q1483 29 1477 15T1456 0Z" />
<glyph unicode="Y" glyph-name="Y" horiz-adv-x="1452" d="M1395 1522Q1411 1522 1419 1509T1421 1481L1120 776Q1055 624 967 588V41Q967 24 954 12T924 0H524Q507 0 495 12T483 41V588Q395 624 330 776L31 1481Q25 1495 31 1508T55 1522H492Q507 1522 517 1515T531
1502T541 1481L713 973Q716 961 725 961T737 973L911 1481Q917 1495 921 1501T936 1515T965 1522H1395Z" />
<glyph unicode="Z" glyph-name="Z" horiz-adv-x="1288" d="M1186 41Q1186 24 1173 12T1143 0H143Q126 0 114 12T102 41V307Q102 356 143 420L553 1065Q563 1082 563 1092Q563 1108 539 1108H150Q133 1108 121 1120T109 1149V1481Q109 1498 121 1510T150 1522H1137Q1154
1522 1166 1510T1178 1481V1194Q1178 1145 1133 1073L731 455Q723 440 723 430Q723 414 750 414H1143Q1160 414 1173 402T1186 373V41Z" />
<glyph unicode="[" glyph-name="bracketleft" horiz-adv-x="835" d="M774 -365Q774 -380 763 -388T735 -397H137Q122 -397 112 -386T102 -358V1483Q102 1498 112 1510T137 1522H735Q752 1522 763 1512T774 1487V1204Q774 1189 763 1180T735 1171H561V-47H735Q752
-47 763 -56T774 -82V-365Z" />
<glyph unicode="\" glyph-name="backslash" horiz-adv-x="911" d="M889 39Q889 24 874 12T842 0H473Q442 0 430 45L20 1479Q20 1480 19 1482T18 1487Q18 1500 32 1511T63 1522H432Q467 1522 479 1479L889 45V39Z" />
<glyph unicode="]" glyph-name="bracketright" horiz-adv-x="835" d="M733 -358Q733 -374 723 -385T698 -397H100Q83 -397 72 -389T61 -365V-82Q61 -66 72 -57T100 -47H274V1171H100Q83 1171 72 1180T61 1204V1487Q61 1502 72 1512T100 1522H698Q713 1522 723
1511T733 1483V-358Z" />
<glyph unicode="^" glyph-name="asciicircum" horiz-adv-x="1372" d="M1288 1180Q1288 1159 1264 1159H881Q854 1159 841 1164T813 1186L686 1317L559 1186Q544 1170 532 1165T492 1159H109Q84 1159 84 1180Q84 1191 94 1204L315 1503Q333 1527 347 1534T393 1542H979Q1010
1542 1024 1535T1057 1503L1278 1204Q1288 1191 1288 1180Z" />
<glyph unicode="_" glyph-name="underscore" horiz-adv-x="1187" d="M1255 -233Q1255 -266 1214 -266H-25Q-66 -266 -66 -233V-94Q-66 -78 -54 -70T-25 -61H1214Q1255 -61 1255 -94V-233Z" />
<glyph unicode="`" glyph-name="grave" horiz-adv-x="1024" d="M684 1315Q684 1300 666 1300H358Q344 1300 335 1303T321 1309T307 1321L41 1565Q31 1575 31 1581Q31 1595 55 1595H434Q457 1595 467 1589T494 1565L676 1335Q684 1327 684 1315Z" />
<glyph unicode="a" glyph-name="a" horiz-adv-x="1208" d="M1106 41Q1106 24 1094 12T1065 0H727Q710 0 698 12T686 41V84Q618 30 553 5T397 -20Q352 -20 307 -9T217 31T138 101T83 210T61 360V393Q61 467 85 523T154 616T268 675T418 707T604 717H653V760Q653
854 551 854Q303 854 193 842Q152 837 152 885V1118Q152 1155 193 1169Q244 1188 364 1208T571 1229Q666 1229 742 1217T888 1172T1004 1087T1078 953T1106 760V41ZM668 315V487H604Q554 487 522 465T489 393V371Q489 297 567 297Q607 297 668 315Z" />
<glyph unicode="b" glyph-name="b" horiz-adv-x="1302" d="M1231 524Q1231 261 1080 121T668 -20Q434 -20 184 29Q135 39 119 55T102 100V1552Q102 1570 116 1582T150 1595H516Q535 1595 546 1583T557 1552V1217Q611 1229 668 1229Q945 1229 1088 1083T1231 684V524ZM776
524V684Q776 852 668 852Q656 852 557 846V362Q616 356 668 356Q727 356 751 400T776 524Z" />
<glyph unicode="c" glyph-name="c" horiz-adv-x="972" d="M901 53Q901 24 860 14Q709 -20 571 -20Q326 -20 199 129T72 537V672Q72 931 199 1080T571 1229Q718 1229 860 1194Q880 1189 890 1181T901 1155V877Q901 855 893 844T856 834Q661 846 635 846Q574 846
550 806T526 672V537Q526 443 550 403T635 362Q715 362 856 375Q883 378 892 366T901 332V53Z" />
<glyph unicode="d" glyph-name="d" horiz-adv-x="1302" d="M1200 100Q1200 72 1184 56T1118 29Q870 -20 635 -20Q375 -20 224 120T72 524V684Q72 937 215 1083T635 1229Q693 1229 745 1217V1552Q745 1571 756 1583T786 1595H1153Q1172 1595 1186 1583T1200 1552V100ZM745
362V846Q649 852 635 852Q526 852 526 684V524Q526 356 635 356Q688 356 745 362Z" />
<glyph unicode="e" glyph-name="e" horiz-adv-x="1257" d="M1186 528Q1186 510 1173 498T1141 485H522Q522 408 558 381T698 354Q767 354 899 359T1083 369Q1106 371 1117 363T1128 332V117Q1128 91 1121 79T1090 57Q903 -20 621 -20Q504 -20 407 12T233 109T115
281T72 528V653Q72 941 222 1085T641 1229Q916 1229 1051 1077T1186 653V528ZM754 715Q754 796 728 840T637 885Q522 885 522 715H754Z" />
<glyph unicode="f" glyph-name="f" horiz-adv-x="866" d="M815 918Q815 899 803 886T772 872H643V45Q643 26 630 13T598 0H229Q211 0 198 13T184 45V872L86 891Q66 894 54 906T41 936V1165Q41 1184 54 1196T86 1208H184V1237Q184 1355 212 1435T295 1558T420 1620T584
1638Q664 1638 772 1616Q815 1609 815 1573V1350Q815 1331 803 1319T772 1307H702Q665 1307 654 1294T643 1237V1208H772Q791 1208 803 1196T815 1165V918Z" />
<glyph unicode="g" glyph-name="g" horiz-adv-x="1288" d="M1268 985Q1268 968 1256 956T1225 940L1171 930Q1200 877 1200 811V784Q1200 381 651 381Q529 381 461 401Q438 386 438 365Q438 337 475 330L698 289Q920 248 1011 214Q1196 145 1221 11Q1225 -12 1225
-37V-78Q1225 -204 1153 -281T949 -391T616 -424Q349 -424 211 -339T72 -92V-47Q72 8 102 61T184 156L158 170Q133 182 109 225T84 332Q84 392 116 442T193 522Q140 575 116 633T92 784V811Q92 1208 602 1208H1225Q1243 1208 1255 1195T1268 1163V985ZM762 784V811Q762
856 738 880T651 905T565 881T541 811V784Q541 738 565 713T651 688T737 713T762 784ZM743 -72V-43Q743 -20 715 -4T600 29L510 45Q509 43 505 38T499 30T494 23T490 13T488 1T487 -14V-59Q487 -91 521 -117T616 -143Q691 -143 717 -124T743 -72Z" />
<glyph unicode="h" glyph-name="h" horiz-adv-x="1335" d="M1233 45Q1233 26 1221 13T1190 0H821Q803 0 790 13T776 45V754Q776 804 747 829T672 854Q614 854 559 823V45Q559 26 548 13T518 0H150Q131 0 117 13T102 45V1554Q102 1571 114 1583T143 1595H516Q533
1595 545 1583T557 1554V1143Q624 1191 696 1210T858 1229Q946 1229 1012 1204T1120 1136T1187 1032T1223 903T1233 754V45Z" />
<glyph unicode="i" glyph-name="i" horiz-adv-x="673" d="M578 1343Q578 1325 564 1313T530 1300H143Q125 1300 111 1312T96 1343V1552Q96 1570 110 1582T143 1595H530Q549 1595 563 1583T578 1552V1343ZM567 45Q567 26 554 13T522 0H156Q137 0 123 13T109 45V1165Q109
1183 123 1195T156 1208H522Q541 1208 554 1196T567 1165V45Z" />
<glyph unicode="j" glyph-name="j" horiz-adv-x="673" d="M578 1343Q578 1325 564 1313T530 1300H143Q125 1300 111 1312T96 1343V1552Q96 1570 110 1582T143 1595H530Q549 1595 563 1583T578 1552V1343ZM567 -23Q567 -138 540 -219T462 -345T347 -410T199 -430Q107
-430 -20 -408Q-63 -399 -63 -362V-141Q-63 -123 -51 -111T-20 -98H66Q92 -98 100 -79T109 -23V1165Q109 1183 123 1195T156 1208H522Q541 1208 554 1196T567 1165V-23Z" />
<glyph unicode="k" glyph-name="k" horiz-adv-x="1370" d="M1321 29Q1321 0 1294 0H852Q830 0 815 8T786 45L557 514V45Q557 26 546 13T516 0H150Q131 0 117 13T102 45V1552Q102 1570 116 1582T150 1595H516Q535 1595 546 1583T557 1552V696L803 1165Q817 1193
831 1200T868 1208H1276Q1309 1208 1309 1180Q1309 1169 1303 1157L981 625L1317 49Q1321 43 1321 29Z" />
<glyph unicode="l" glyph-name="l" horiz-adv-x="663" d="M561 45Q561 26 549 13T518 0H150Q131 0 117 13T102 45V1552Q102 1570 116 1582T150 1595H518Q537 1595 549 1583T561 1552V45Z" />
<glyph unicode="m" glyph-name="m" horiz-adv-x="1902" d="M1800 45Q1800 26 1788 13T1757 0H1389Q1370 0 1357 13T1343 45V745Q1343 797 1325 815T1266 834Q1228 834 1176 821Q1180 761 1180 745V45Q1180 26 1168 13T1137 0H768Q749 0 736 13T723 45V745Q723
797 705 815T647 834Q596 834 559 821V45Q559 26 548 13T518 0H150Q131 0 117 13T102 45V1167Q102 1184 114 1196T143 1208H481Q498 1208 510 1196T522 1167V1106Q598 1176 677 1202T852 1229Q933 1229 1001 1200T1106 1106Q1180 1179 1246 1204T1425 1229Q1614
1229 1707 1109T1800 745V45Z" />
<glyph unicode="n" glyph-name="n" horiz-adv-x="1335" d="M1233 45Q1233 26 1221 13T1190 0H821Q803 0 790 13T776 45V754Q776 804 747 829T672 854Q614 854 559 823V45Q559 26 548 13T518 0H150Q131 0 117 13T102 45V1167Q102 1184 114 1196T143 1208H481Q498
1208 510 1196T522 1167V1110Q603 1176 670 1202T858 1229Q946 1229 1012 1204T1120 1136T1187 1032T1223 903T1233 754V45Z" />
<glyph unicode="o" glyph-name="o" horiz-adv-x="1269" d="M1198 557Q1198 267 1051 124T635 -20T219 123T72 557V651Q72 941 219 1085T635 1229T1051 1085T1198 651V557ZM743 557V651Q743 766 717 809T635 852T553 809T526 651V557Q526 443 552 400T635 356T717
399T743 557Z" />
<glyph unicode="p" glyph-name="p" horiz-adv-x="1302" d="M1231 524Q1231 271 1088 126T668 -20Q611 -20 557 -8V-344Q557 -363 546 -375T516 -387H150Q131 -387 117 -375T102 -344V1108Q102 1137 118 1153T184 1180Q448 1229 668 1229Q927 1229 1079 1088T1231
684V524ZM776 524V684Q776 764 752 808T668 852Q616 852 557 846V362Q656 356 668 356Q776 356 776 524Z" />
<glyph unicode="q" glyph-name="q" horiz-adv-x="1302" d="M1200 -344Q1200 -362 1186 -374T1153 -387H786Q768 -387 757 -375T745 -344V-8Q693 -20 635 -20Q358 -20 215 125T72 524V684Q72 947 224 1088T635 1229Q857 1229 1118 1180Q1167 1169 1183 1153T1200
1108V-344ZM745 362V846Q688 852 635 852Q526 852 526 684V524Q526 356 635 356Q649 356 745 362Z" />
<glyph unicode="r" glyph-name="r" horiz-adv-x="899" d="M846 905Q846 858 805 858H788Q735 858 707 857T635 848T559 823V45Q559 26 548 13T518 0H150Q131 0 117 13T102 45V1167Q102 1184 114 1196T143 1208H481Q498 1208 510 1196T522 1167V1108Q581 1173 656
1201T793 1229H805Q830 1229 838 1219T846 1188V905Z" />
<glyph unicode="s" glyph-name="s" horiz-adv-x="1105" d="M1024 369Q1024 285 994 216T904 93T743 10T510 -20Q288 -20 127 33Q88 47 88 78V334Q88 362 100 373T141 381Q393 342 498 342Q539 342 554 351T569 383Q569 407 522 430L289 549Q181 603 132 685T82
891Q82 1053 202 1141T563 1229Q748 1229 954 1174Q997 1161 997 1130V864Q997 841 988 829T954 821Q896 831 770 844T590 858Q547 858 547 836Q547 818 573 805L799 694Q1024 584 1024 369Z" />
<glyph unicode="t" glyph-name="t" horiz-adv-x="878" d="M840 918Q840 899 828 886T797 872H649V371Q649 337 657 324T692 311H791Q809 311 821 299T834 268V45Q834 27 822 15T791 0Q674 -20 573 -20Q487 -20 422 -3T303 58T219 181T190 379V872L74 893Q54 896
42 908T29 938V1165Q29 1184 42 1196T74 1208H190V1376Q190 1412 236 1419L604 1483Q627 1487 638 1474T649 1440V1208H797Q815 1208 827 1196T840 1165V918Z" />
<glyph unicode="u" glyph-name="u" horiz-adv-x="1335" d="M1233 41Q1233 24 1221 12T1192 0H854Q837 0 825 12T813 41V98Q739 37 668 9T477 -20Q389 -20 323 5T215 73T148 177T112 306T102 455V1163Q102 1182 114 1195T145 1208H514Q533 1208 546 1195T559 1163V455Q559
404 588 379T664 354Q719 354 776 385V1163Q776 1182 787 1195T817 1208H1186Q1204 1208 1218 1195T1233 1163V41Z" />
<glyph unicode="v" glyph-name="v" horiz-adv-x="1333" d="M1268 1208Q1287 1208 1298 1199T1303 1165L1057 264Q1036 188 1003 134T934 51T850 5T761 -16T668 -20T575 -16T486 4T402 50T333 134T279 264L33 1165Q21 1208 68 1208H471Q489 1208 501 1196T516 1165L649
475Q657 444 668 444Q678 444 686 475L819 1165Q822 1183 834 1195T864 1208H1268Z" />
<glyph unicode="w" glyph-name="w" horiz-adv-x="1839" d="M1327 1176L1249 565Q1247 551 1235 551Q1222 551 1217 565L1116 848Q1101 891 1082 906T1022 922H817Q776 922 757 907T723 848L623 565Q617 551 604 551Q592 551 590 565L512 1176Q508 1208 483 1208H76Q60
1208 51 1202T45 1178L236 150Q247 89 260 55T299 4T347 -16T420 -20H612Q697 -20 731 9T801 139L901 434Q907 453 920 453Q932 453 938 434L1038 139Q1073 38 1107 9T1227 -20H1419Q1452 -20 1469 -19T1508 -13T1542 3T1566 33T1587 80T1604 150L1794 1178Q1801
1208 1763 1208H1356Q1331 1208 1327 1176Z" />
<glyph unicode="x" glyph-name="x" horiz-adv-x="1366" d="M836 0Q827 0 820 5T809 14T799 30T791 45L645 289L518 43Q496 0 469 0H70Q50 0 44 15T47 43L391 641L41 1165Q34 1178 40 1193T66 1208H514Q540 1208 565 1165L698 944L815 1165Q835 1208 864 1208H1268Q1289
1208 1294 1194T1290 1165L954 588L1321 45Q1331 33 1325 17T1298 0H836Z" />
<glyph unicode="y" glyph-name="y" horiz-adv-x="1343" d="M1253 1208H1280Q1299 1208 1308 1197T1311 1165L961 -63Q936 -151 903 -211T813 -322T667 -397T451 -422Q382 -422 285 -409T143 -379Q128 -374 120 -370T104 -358T96 -338V-104Q96 -54 143 -59Q327
-74 451 -74Q491 -74 507 -64T532 -27L551 43H539Q504 43 484 45T441 54T402 77T370 118T337 184T305 279L33 1165Q22 1208 68 1208H479Q513 1208 520 1165L659 526Q668 498 678 498H692L823 1165Q826 1183 838 1195T868 1208H1253Z" />
<glyph unicode="z" glyph-name="z" horiz-adv-x="1161" d="M1059 41Q1059 24 1047 12T1018 0H143Q126 0 114 12T102 41V256Q102 290 108 310T135 358L475 813Q485 826 485 836Q485 850 463 850H145Q130 850 122 859T113 883V1167Q113 1184 125 1196T154 1208H1016Q1033
1208 1045 1196T1057 1167V948Q1057 914 1049 895T1008 829L688 397Q678 384 678 375Q678 358 700 358H1024Q1039 358 1049 349T1059 326V41Z" />
<glyph unicode="{" glyph-name="braceleft" horiz-adv-x="892" d="M831 -379Q831 -394 820 -404T793 -414H655Q546 -414 470 -405T337 -373T247 -317T194 -230T167 -112T160 45V250Q160 303 129 350T51 426V682Q98 710 129 757T160 858V1063Q160 1157 167 1220T193
1338T246 1425T336 1480T469 1513T655 1522H793Q809 1522 820 1512T831 1487V1204Q831 1189 821 1180T793 1171H696Q647 1171 633 1147T618 1063V858Q618 635 428 555Q524 516 571 437T618 250V45Q618 -15 632 -39T696 -63H793Q810 -63 820 -72T831 -96V-379Z"
/>
<glyph unicode="|" glyph-name="bar" horiz-adv-x="663" d="M561 -352Q561 -371 549 -384T518 -397H150Q131 -397 117 -384T102 -352V1479Q102 1497 116 1509T150 1522H518Q537 1522 549 1510T561 1479V-352Z" />
<glyph unicode="}" glyph-name="braceright" horiz-adv-x="892" d="M842 426Q795 398 764 351T733 250V45Q733 -49 726 -112T700 -230T647 -317T557 -372T424 -405T238 -414H100Q83 -414 72 -404T61 -379V-96Q61 -81 72 -72T100 -63H197Q246 -63 260 -40T274 45V250Q274
357 321 436T465 555Q369 594 322 672T274 858V1063Q274 1124 260 1147T197 1171H100Q83 1171 72 1180T61 1204V1487Q61 1502 72 1512T100 1522H238Q347 1522 423 1513T556 1481T646 1425T699 1338T726 1220T733 1063V858Q733 805 764 758T842 682V426Z" />
<glyph unicode="~" glyph-name="asciitilde" horiz-adv-x="1372" d="M1274 1004Q1274 811 1178 729T893 647Q857 647 796 662T692 700L590 754Q523 788 494 788Q472 788 463 780T453 750V707Q453 686 440 674T406 662H147Q125 662 112 674T98 707V750Q98 940 197
1023T485 1106Q587 1106 680 1057L782 1004Q855 965 887 965Q906 965 913 975T920 1006V1049Q920 1070 932 1082T967 1094H1225Q1246 1094 1260 1082T1274 1049V1004Z" />
</font>
</defs>
</svg>
