<?xml version="1.0" standalone="no"?> <!DOCTYPE svg PUBLIC "-//W3C//DTD SVG 1.0//EN" "http://www.w3.org/TR/2001/REC-SVG-20010904/DTD/svg10.dtd" > <svg xmlns="http://www.w3.org/2000/svg" width="100%" height="100%">
<defs >
<font id="neosansstdbold" horiz-adv-x="989" ><font-face
    font-family="Neo Sans Std"
    units-per-em="2048"
    panose-1="2 11 8 4 3 5 4 4 2 4"
    ascent="1567"
    descent="-481"
    alphabetic="0" />
<missing-glyph horiz-adv-x="1024" d="M25 0V1362H997V0H25ZM180 1266L512 768L842 1266H180ZM123 1178V186Q123 185 205 309T370 558L453 682L123 1178ZM901 1178L569 682L901 184V1178ZM842 98L512 594L180 98H842Z" />
<glyph unicode=" " glyph-name="space" horiz-adv-x="532" />
<glyph unicode="!" glyph-name="exclam" horiz-adv-x="559" d="M451 1532V1530L410 508Q410 491 398 478T369 465H195Q178 465 164 478T150 508L109 1530V1532Q109 1547 123 1559T154 1571H410Q426 1571 438 1559T451 1532ZM440 41Q440 24 429 12T401 0H160Q143
0 131 12T119 41V299Q119 316 131 327T160 338H401Q418 338 429 327T440 299V41Z" />
<glyph unicode="&quot;" glyph-name="quotedbl" horiz-adv-x="966" d="M920 1548Q920 1542 915 1532L762 1083Q754 1062 746 1053T723 1044H516Q498 1044 498 1065Q498 1077 500 1083L610 1532Q618 1571 651 1571H895Q920 1571 920 1548ZM471 1548Q471 1544 467
1532L313 1083Q305 1062 297 1053T274 1044H68Q49 1044 49 1065Q49 1077 51 1083L162 1532Q170 1571 203 1571H446Q471 1571 471 1548Z" />
<glyph unicode="#" glyph-name="numbersign" horiz-adv-x="1431" d="M1333 1104V1100L1309 944Q1308 934 1299 928T1278 922H1104L1073 592H1245Q1259 592 1270 584T1282 563V559L1260 414Q1258 403 1248 393T1227 383H1055L1026 39Q1022 0 989 0H780Q765 0 757
10T748 35V39L776 383H545L514 39Q512 23 502 12T477 0H266Q253 0 243 10T233 35V39L262 383H88Q76 383 68 390T59 410V414L84 567Q85 578 93 585T113 592H283L311 922H137Q109 922 109 946V950L133 1108Q134 1118 144 1124T166 1130H330L360 1483Q362 1498 373
1510T399 1522H610Q624 1522 632 1512T641 1487V1483L610 1130H842L874 1483Q876 1499 886 1510T913 1522H1122Q1137 1522 1145 1512T1153 1487V1483L1120 1130H1298Q1312 1130 1322 1123T1333 1104ZM825 922H594L563 592H795L825 922Z" />
<glyph unicode="$" glyph-name="dollar" horiz-adv-x="1320" d="M1178 430Q1178 359 1157 294T1093 168T974 64T797 -2V-195Q797 -212 785 -224T756 -236H530Q514 -236 502 -224T489 -195V-12Q349 -4 229 27Q190 39 190 68V268Q190 285 201 296T229 307H233Q300
299 425 291T621 283Q723 283 764 317T805 426Q805 470 778 502T670 582L387 750Q252 830 198 925T143 1141Q143 1466 489 1526V1702Q489 1718 501 1730T530 1743H756Q772 1743 784 1731T797 1702V1534Q991 1521 1096 1495Q1135 1483 1135 1456V1253Q1135 1238
1124 1228T1098 1217H1094Q861 1239 659 1239Q575 1239 539 1213T502 1130Q502 1091 530 1061T639 987L899 846Q1051 763 1114 662T1178 430Z" />
<glyph unicode="%" glyph-name="percent" horiz-adv-x="1718" d="M1640 340Q1640 164 1563 76T1339 -12Q1193 -12 1115 76T1036 340V494Q1036 669 1114 757T1339 846Q1486 846 1563 758T1640 494V340ZM1430 1505Q1430 1493 1421 1481L569 43Q559 26 554 19T541
6T522 0H311Q289 0 289 23Q289 31 295 43L1147 1481Q1161 1504 1171 1513T1198 1522H1409Q1430 1522 1430 1505ZM684 1028Q684 853 606 765T381 676Q234 676 156 764T78 1028V1182Q78 1357 156 1444T381 1532Q527 1532 605 1445T684 1182V1028ZM1436 340V494Q1436
593 1412 630T1339 668Q1291 668 1266 630T1241 494V340Q1241 242 1266 204T1339 166Q1388 166 1412 203T1436 340ZM477 1028V1182Q477 1280 453 1318T381 1356T308 1318T283 1182V1028Q283 930 308 891T381 852T453 890T477 1028Z" />
<glyph unicode="&amp;" glyph-name="ampersand" horiz-adv-x="1499" d="M1462 25Q1462 14 1456 7T1438 0H1147Q1128 0 1112 16L1051 82Q890 -18 670 -18Q545 -18 445 4T266 72T145 198T102 383V401Q102 527 171 621T375 799L358 817Q252 936 214 1014T176 1167V1186Q176
1345 298 1442T662 1540Q884 1540 1006 1444T1128 1186V1167Q1128 1112 1113 1064T1076 979T1016 906T943 843T858 784L795 743L1061 463Q1096 547 1096 717V733Q1096 751 1106 762T1133 774H1323Q1340 774 1351 762T1362 733V717Q1362 590 1336 482T1243 270L1452
49Q1462 39 1462 25ZM823 1167V1186Q823 1244 782 1277T662 1311Q574 1311 527 1278T479 1186V1167Q479 1117 500 1073T594 956L610 940L664 973Q758 1032 790 1071T823 1167ZM874 266L561 600Q492 558 467 512T442 401V383Q442 303 503 261T670 219Q788 219 874
266Z" />
<glyph unicode="&apos;" glyph-name="quotesingle" horiz-adv-x="518" d="M471 1548Q471 1544 467 1532L313 1083Q305 1062 297 1053T274 1044H68Q49 1044 49 1065Q49 1077 51 1083L162 1532Q170 1571 203 1571H446Q471 1571 471 1548Z" />
<glyph unicode="(" glyph-name="parenleft" horiz-adv-x="739" d="M672 -377Q672 -397 647 -397H442Q393 -397 373 -369Q237 -179 171 37T104 543V580Q104 868 170 1085T373 1493Q393 1522 442 1522H647Q672 1522 672 1501Q672 1490 662 1468Q440 1059 440 580V543Q440
67 662 -344Q672 -364 672 -377Z" />
<glyph unicode=")" glyph-name="parenright" horiz-adv-x="739" d="M635 543Q635 254 569 38T367 -369Q345 -397 297 -397H92Q68 -397 68 -377Q68 -364 78 -344Q299 68 299 543V580Q299 1058 78 1468Q68 1490 68 1501Q68 1522 92 1522H297Q346 1522 367 1493Q502
1303 568 1086T635 580V543Z" />
<glyph unicode="*" glyph-name="asterisk" horiz-adv-x="980" d="M911 1167Q911 1147 881 1137L645 1067L793 866Q803 849 803 838Q803 820 791 813L684 735Q675 729 666 729Q646 729 633 750L492 954L350 750Q337 729 317 729Q308 729 299 735L190 813Q176 821
176 838Q176 846 188 866L336 1067L102 1137Q70 1148 70 1169Q70 1176 72 1180L113 1309Q119 1329 139 1329Q146 1329 162 1325L397 1247L391 1491Q391 1509 399 1521T424 1534H559Q590 1534 590 1491L588 1247L819 1325Q835 1329 842 1329Q862 1329 868 1309L909
1180Q911 1176 911 1167Z" />
<glyph unicode="+" glyph-name="plus" horiz-adv-x="1320" d="M1174 709Q1174 676 1133 676H784V330Q784 289 752 289H567Q535 289 535 330V676H188Q147 676 147 709V893Q147 909 158 917T188 926H535V1274Q535 1315 567 1315H752Q784 1315 784 1274V926H1133Q1150
926 1162 918T1174 893V709Z" />
<glyph unicode="," glyph-name="comma" horiz-adv-x="561" d="M473 313Q473 307 469 299L272 -160Q258 -192 248 -197Q242 -201 233 -201H53Q39 -201 29 -192T18 -170Q18 -168 19 -165T20 -160L152 299Q161 338 193 338H442Q473 338 473 313Z" />
<glyph unicode="-" glyph-name="hyphen" horiz-adv-x="618" d="M549 541Q549 524 537 514T508 504H111Q93 504 82 514T70 541V705Q70 721 82 732T111 743H508Q525 743 537 732T549 705V541Z" />
<glyph unicode="." glyph-name="period" horiz-adv-x="561" d="M442 41Q442 24 430 12T401 0H162Q145 0 132 12T119 41V299Q119 316 131 327T162 338H401Q418 338 430 327T442 299V41Z" />
<glyph unicode="/" glyph-name="slash" horiz-adv-x="829" d="M801 1489Q801 1488 800 1486T799 1481L367 43Q354 0 326 0H66Q50 0 39 10T27 35Q27 36 28 39T29 43L463 1481Q474 1522 504 1522H764Q778 1522 789 1512T801 1489Z" />
<glyph unicode="0" glyph-name="zero" horiz-adv-x="1320" d="M1212 672Q1212 313 1071 148T659 -18Q389 -18 249 147T109 672V848Q109 1207 249 1373T659 1540Q929 1540 1070 1373T1212 848V672ZM862 672V848Q862 943 852 1014T824 1129T780 1200T725 1238T659
1249Q613 1249 579 1231T517 1170T474 1046T459 848V672Q459 554 473 474T516 350T579 290T659 272Q696 272 724 282T779 320T823 391T851 506T862 672Z" />
<glyph unicode="1" glyph-name="one" horiz-adv-x="1320" d="M248 291H520V1171L254 1057Q239 1051 229 1051Q207 1051 207 1077V1311Q207 1330 227 1339L598 1513Q616 1522 645 1522H829Q846 1522 857 1511T868 1483V291H1141Q1158 291 1170 280T1182 252V41Q1182
24 1170 12T1141 0H248Q231 0 219 12T207 41V252Q207 268 219 279T248 291Z" />
<glyph unicode="2" glyph-name="two" horiz-adv-x="1320" d="M1167 1149Q1167 1028 1108 936T932 764L758 647Q695 604 659 579T580 516T514 449T477 380T461 299V291H1108Q1125 291 1137 280T1149 252V41Q1149 24 1137 12T1108 0H197Q180 0 168 12T156 41V250Q156
411 233 546T434 770L623 903Q758 998 785 1024Q825 1062 830 1112Q831 1125 831 1141Q831 1208 784 1236T614 1264T211 1237H207Q190 1237 180 1248T170 1278V1438Q170 1464 209 1477Q422 1540 645 1540Q923 1540 1045 1445T1167 1149Z" />
<glyph unicode="3" glyph-name="three" horiz-adv-x="1320" d="M1159 434Q1159 319 1121 232T1011 90T843 9T625 -18Q384 -18 201 39Q162 50 162 78V242Q162 258 172 268T199 279H203Q412 260 610 260Q717 260 765 303T813 434V471Q813 647 647 647H287Q270 647
259 659T248 688V862Q248 879 259 890T287 901H639Q731 901 772 951T813 1079V1108Q813 1183 768 1222T610 1262Q484 1262 207 1237H203Q187 1237 177 1247T166 1274V1438Q166 1463 207 1477Q416 1540 625 1540Q886 1540 1022 1441T1159 1120V1092Q1159 1002 1108
913T977 778Q1062 734 1110 652T1159 471V434Z" />
<glyph unicode="4" glyph-name="four" horiz-adv-x="1320" d="M1241 383Q1241 366 1229 354T1200 342H1065V41Q1065 24 1054 12T1026 0H754Q737 0 726 12T715 41V342H123Q106 342 94 354T82 383V582Q82 614 104 645L752 1493Q775 1522 805 1522H1024Q1041 1522
1053 1510T1065 1481V612H1200Q1217 612 1229 600T1241 571V383ZM725 612V1063Q725 1075 717 1075Q715 1075 711 1071L389 633Q385 629 385 621Q385 612 397 612H725Z" />
<glyph unicode="5" glyph-name="five" horiz-adv-x="1320" d="M1159 483Q1159 240 1017 111T606 -18Q393 -18 203 41Q162 53 162 86V248Q162 264 172 274T199 285H203Q418 260 571 260Q643 260 690 274T762 319T797 388T807 483V500Q807 605 745 646T516 688H199Q187
688 179 696T170 717V719L233 1483Q235 1498 247 1510T274 1522H1071Q1088 1522 1100 1511T1112 1483V1278Q1112 1261 1100 1250T1071 1239H514L489 956H549Q660 956 749 943T916 898T1046 815T1129 684T1159 500V483Z" />
<glyph unicode="6" glyph-name="six" horiz-adv-x="1320" d="M1206 502Q1206 263 1066 123T666 -18Q411 -18 264 134T117 584V897Q117 1540 686 1540Q926 1540 1090 1499Q1135 1488 1135 1454V1276Q1135 1233 1098 1233H1087Q909 1262 715 1262Q577 1262 518 1196T459
963V948Q591 973 700 973Q808 973 896 949T1056 873T1166 730T1206 516V502ZM864 502V516Q864 633 805 681T645 729Q576 729 459 709V584Q459 502 469 442T497 345T542 286T598 256T666 248Q759 248 811 304T864 502Z" />
<glyph unicode="7" glyph-name="seven" horiz-adv-x="1320" d="M1159 1305Q1159 1278 1126 1210L588 39Q569 0 537 0H256Q219 0 219 25Q219 35 225 47L782 1217Q784 1221 784 1227Q784 1239 770 1239H203Q185 1239 173 1250T160 1278V1483Q160 1499 173 1510T203
1522H1090Q1117 1522 1138 1502T1159 1454V1305Z" />
<glyph unicode="8" glyph-name="eight" horiz-adv-x="1320" d="M1214 436Q1214 218 1067 100T672 -18H649Q402 -18 254 100T106 436V463Q106 562 153 647T281 791Q115 903 115 1098V1120Q115 1329 257 1434T649 1540H672Q922 1540 1065 1435T1208 1120V1098Q1208
905 1040 791Q1121 732 1167 647T1214 463V436ZM879 1087V1098Q879 1184 829 1234T672 1284H649Q542 1284 492 1234T442 1098V1087Q442 1006 489 958T629 909H692Q784 909 831 957T879 1087ZM877 446V467Q877 547 832 605T692 664H629Q535 664 490 606T444 467V446Q444
354 497 297T649 240H672Q770 240 823 297T877 446Z" />
<glyph unicode="9" glyph-name="nine" horiz-adv-x="1320" d="M1206 625Q1206 -18 637 -18Q397 -18 233 23Q188 34 188 68V246Q188 289 225 289H236Q403 260 608 260Q746 260 805 326T864 559V573Q737 549 623 549Q515 549 427 573T267 649T157 792T117 1006V1020Q117
1258 257 1399T657 1540Q912 1540 1059 1388T1206 938V625ZM864 813V938Q864 1020 854 1080T826 1177T781 1236T725 1266T657 1274Q564 1274 512 1218T459 1020V1006Q459 889 518 841T678 793Q746 793 864 813Z" />
<glyph unicode=":" glyph-name="colon" horiz-adv-x="563" d="M442 823Q442 807 430 796T401 784H162Q145 784 132 795T119 823V1081Q119 1098 132 1110T162 1122H401Q418 1122 430 1110T442 1081V823ZM442 41Q442 24 430 12T401 0H162Q145 0 132 12T119 41V299Q119
316 131 327T162 338H401Q418 338 430 327T442 299V41Z" />
<glyph unicode=";" glyph-name="semicolon" horiz-adv-x="563" d="M442 823Q442 807 429 796T399 784H160Q143 784 131 795T119 823V1081Q119 1098 131 1110T160 1122H399Q416 1122 429 1110T442 1081V823ZM442 309Q442 303 438 295L244 -164Q227 -197 216 -202Q210
-205 203 -205H23Q9 -205 -1 -196T-12 -174Q-12 -172 -11 -169T-10 -164L121 295Q131 334 162 334H412Q442 334 442 309Z" />
<glyph unicode="&lt;" glyph-name="less" horiz-adv-x="1320" d="M1098 307Q1098 296 1091 289T1073 281H788Q766 281 739 303L262 727Q221 762 221 801T262 874L739 1298Q766 1321 788 1321H1073Q1083 1321 1090 1313T1098 1294Q1098 1282 1085 1270L555 801L1085
332Q1098 320 1098 307Z" />
<glyph unicode="=" glyph-name="equal" horiz-adv-x="1320" d="M1130 971Q1130 938 1090 938H231Q190 938 190 971V1155Q190 1188 231 1188H1090Q1130 1188 1130 1155V971ZM1130 446Q1130 414 1090 414H231Q190 414 190 446V631Q190 647 202 655T231 664H1090Q1107
664 1118 656T1130 631V446Z" />
<glyph unicode="&gt;" glyph-name="greater" horiz-adv-x="1320" d="M1098 837T1098 801T1055 727L580 303Q552 281 530 281H246Q235 281 228 288T221 307Q221 320 233 332L764 801L233 1270Q221 1282 221 1294Q221 1305 228 1313T246 1321H530Q553 1321 580 1298L1055
874Q1098 837 1098 801Z" />
<glyph unicode="?" glyph-name="question" horiz-adv-x="980" d="M883 1188Q883 1120 848 1050T725 866L633 748Q543 632 531 610Q518 585 518 561V504Q518 486 503 476T469 465H264Q248 465 237 477T225 506V561Q225 649 240 704T311 831L410 961Q465 1034 484
1078T504 1167V1188Q504 1264 403 1264Q299 1264 111 1241H104Q70 1241 70 1284V1466Q70 1489 77 1501T106 1520Q253 1563 434 1563Q657 1563 770 1485T883 1223V1188ZM537 39Q537 22 525 11T496 0H254Q237 0 225 11T213 39V297Q213 314 225 326T254 338H496Q512
338 524 326T537 297V39Z" />
<glyph unicode="@" glyph-name="at" horiz-adv-x="1585" d="M1518 739Q1518 595 1481 484T1379 300T1217 180T1008 114T758 94Q597 94 499 170T401 391Q401 397 402 409T403 428L422 666Q435 839 542 923T827 1008Q952 1008 1100 977Q1149 967 1149 922V913L1092
301Q1352 345 1352 739Q1352 834 1323 916T1235 1065T1081 1169T862 1208Q595 1208 444 1079T270 705L240 377Q236 327 236 307Q236 122 365 12T745 -98Q813 -98 915 -90T1047 -82H1049H1057Q1067 -82 1070 -86T1073 -102V-182Q1073 -206 1049 -209Q874 -229 745
-229Q547 -229 396 -168T158 16T70 311V317Q70 356 72 377L104 715Q134 1012 332 1183T864 1354Q993 1354 1101 1321T1285 1229T1414 1092T1493 925T1518 739ZM905 803Q847 813 801 813Q727 813 696 779T655 657L633 430Q631 418 631 395Q631 336 663 313T772 289Q831
289 858 291L905 803Z" />
<glyph unicode="A" glyph-name="A" horiz-adv-x="1370" d="M1331 33Q1331 0 1296 0H1010Q995 0 984 10T969 37L895 373H475L401 37Q398 21 387 11T360 0H74Q39 0 39 33Q39 34 40 37T41 43L346 1313Q363 1383 398 1430T482 1500T578 1531T686 1540T793 1532T889
1501T972 1431T1024 1313L1329 43Q1329 41 1330 38T1331 33ZM838 653L713 1219Q710 1236 705 1242T686 1249Q664 1249 657 1219L532 653H838Z" />
<glyph unicode="B" glyph-name="B" horiz-adv-x="1370" d="M1276 440Q1276 335 1243 255T1152 123T1010 40T835 -5T631 -18Q393 -18 256 6Q193 17 168 44T143 139V1384Q143 1452 167 1480T252 1518Q406 1540 618 1540Q770 1540 884 1519T1086 1449T1220 1316T1266
1112V1075Q1266 975 1221 895T1094 774Q1177 733 1226 654T1276 471V440ZM928 1059V1090Q928 1176 864 1214T645 1253Q518 1253 489 1251V897H719Q928 897 928 1059ZM936 449V471Q936 552 885 602T719 653H489V270Q506 270 575 269T657 268Q809 268 872 313T936
449Z" />
<glyph unicode="C" glyph-name="C" horiz-adv-x="1148" d="M1065 63Q1065 43 1055 33T1020 16Q982 4 898 -7T715 -18Q618 -18 532 2T367 71T232 192T143 378T109 633V891Q109 1033 142 1145T232 1330T367 1451T532 1519T715 1540Q813 1540 898 1529T1020 1505Q1044
1498 1054 1489T1065 1460V1262Q1065 1221 1026 1221H1020Q812 1237 717 1237Q660 1237 617 1221T537 1167T482 1060T463 891V633Q463 534 482 465T537 357T616 303T717 287Q812 287 1020 303H1026Q1065 303 1065 262V63Z" />
<glyph unicode="D" glyph-name="D" horiz-adv-x="1396" d="M1292 629Q1292 310 1121 146T639 -18Q383 -18 203 12Q143 21 143 84V1438Q143 1472 157 1488T203 1509Q377 1540 639 1540Q950 1540 1121 1376T1292 893V629ZM942 629V893Q942 974 928 1035T889 1135T825
1199T742 1233T639 1243Q550 1243 494 1239V283Q550 279 639 279Q712 279 764 295T858 349T921 458T942 629Z" />
<glyph unicode="E" glyph-name="E" horiz-adv-x="1187" d="M1073 51Q1073 14 1032 8Q847 -18 635 -18Q574 -18 524 -14T421 4T328 37T250 92T189 171T151 280T137 422V1102Q137 1193 155 1264T208 1382T287 1461T390 1509T508 1533T637 1540Q858 1540 1032 1513Q1054
1510 1063 1501T1073 1473V1282Q1073 1265 1061 1253T1032 1241H616Q543 1241 514 1211T485 1102V915H1016Q1033 915 1045 903T1057 874V680Q1057 663 1045 651T1016 639H485V422Q485 343 514 313T616 283H1032Q1049 283 1061 271T1073 242V51Z" />
<glyph unicode="F" glyph-name="F" horiz-adv-x="1189" d="M1073 1280Q1073 1263 1061 1251T1032 1239H616Q543 1239 514 1209T485 1100V915H1016Q1033 915 1045 903T1057 874V680Q1057 663 1045 651T1016 639H485V41Q485 24 473 12T444 0H178Q161 0 149 12T137
41V1100Q137 1191 155 1262T208 1380T287 1459T390 1507T508 1531T637 1538Q858 1538 1032 1511Q1054 1508 1063 1499T1073 1470V1280Z" />
<glyph unicode="G" glyph-name="G" horiz-adv-x="1320" d="M1188 1245Q1188 1219 1157 1219H1151Q1127 1220 1045 1224T883 1232T725 1235Q592 1235 525 1157T457 887V631Q457 530 478 458T534 350T607 299T686 283Q770 283 844 289V760Q844 777 855 789T883 801H1145Q1162
801 1174 789T1186 760V72Q1186 50 1177 40T1145 25Q937 -18 686 -18Q610 -18 535 -1T380 63T240 179T141 367T102 633V887Q102 1038 139 1155T235 1343T378 1460T545 1523T725 1540Q930 1540 1153 1493Q1188 1486 1188 1462V1245Z" />
<glyph unicode="H" glyph-name="H" horiz-adv-x="1492" d="M1350 41Q1350 24 1338 12T1309 0H1040Q1023 0 1011 12T999 41V633H494V41Q494 24 482 12T453 0H184Q167 0 155 12T143 41V1483Q143 1499 155 1510T184 1522H453Q470 1522 482 1511T494 1483V938H999V1483Q999
1499 1011 1510T1040 1522H1309Q1326 1522 1338 1511T1350 1483V41Z" />
<glyph unicode="I" glyph-name="I" horiz-adv-x="636" d="M494 41Q494 24 483 12T455 0H180Q164 0 154 12T143 41V1483Q143 1500 153 1511T180 1522H455Q472 1522 483 1511T494 1483V41Z" />
<glyph unicode="J" glyph-name="J" horiz-adv-x="636" d="M494 -12Q494 -113 467 -184T388 -294T273 -350T127 -367Q67 -367 -4 -358Q-18 -357 -26 -348T-35 -324V-115Q-35 -103 -29 -95T-12 -86H90Q123 -86 133 -70T143 -12V1483Q143 1499 155 1510T184 1522H453Q470
1522 482 1511T494 1483V-12Z" />
<glyph unicode="K" glyph-name="K" horiz-adv-x="1388" d="M1335 1499Q1335 1488 1325 1470L838 778L1327 43Q1335 32 1335 20Q1335 0 1307 0H954Q928 0 909 29L494 705V41Q494 24 482 12T453 0H184Q167 0 155 12T143 41V1483Q143 1499 155 1510T184 1522H453Q470
1522 482 1511T494 1483V831L944 1497Q960 1522 989 1522H1303Q1335 1522 1335 1499Z" />
<glyph unicode="L" glyph-name="L" horiz-adv-x="1062" d="M1018 51Q1018 16 977 8Q926 -2 826 -10T643 -18Q582 -18 532 -14T429 4T335 37T257 92T196 171T157 280T143 422V1481Q143 1498 155 1510T184 1522H453Q470 1522 482 1510T494 1481V422Q494 343 522
313T625 283H977Q994 283 1006 271T1018 242V51Z" />
<glyph unicode="M" glyph-name="M" horiz-adv-x="1671" d="M1528 29Q1528 0 1493 0H1223Q1209 0 1200 12T1190 41V895Q1190 911 1180 911Q1171 911 1163 897L979 559Q959 524 918 524H754Q714 524 692 559L508 897Q500 911 492 911Q481 911 481 895V41Q481 24
472 12T449 0H178Q143 0 143 29V1452Q143 1484 163 1503T217 1522H410Q470 1522 500 1466L813 883Q826 856 836 856Q845 856 858 883L1171 1466Q1201 1522 1262 1522H1454Q1486 1522 1507 1502T1528 1450V29Z" />
<glyph unicode="N" glyph-name="N" horiz-adv-x="1492" d="M1350 78Q1350 46 1326 23T1270 0H1069Q1033 0 1009 12T963 63L496 870Q484 887 477 887Q467 887 467 870V41Q467 24 455 12T426 0H184Q167 0 155 12T143 41V1444Q143 1476 166 1499T221 1522H428Q457
1522 475 1508T514 1458L999 614Q1011 598 1016 598Q1026 598 1026 616V1483Q1026 1499 1038 1510T1067 1522H1309Q1326 1522 1338 1511T1350 1483V78Z" />
<glyph unicode="O" glyph-name="O" horiz-adv-x="1429" d="M1321 639Q1321 466 1275 337T1144 132T953 19T715 -18T477 18T286 131T156 337T109 639V883Q109 1056 155 1185T286 1390T477 1503T715 1540T953 1504T1144 1391T1274 1185T1321 883V639ZM969 639V883Q969
1065 907 1149T715 1233T524 1150T463 883V639Q463 456 524 373T715 289T907 372T969 639Z" />
<glyph unicode="P" glyph-name="P" horiz-adv-x="1333" d="M1266 1028Q1266 917 1232 830T1140 688T1002 597T837 547T655 532Q626 532 562 535T489 539V41Q489 24 478 12T449 0H184Q167 0 155 11T143 39V1415Q143 1465 164 1485T236 1513Q401 1540 651 1540Q749
1540 834 1526T1001 1477T1139 1388T1231 1246T1266 1047V1028ZM918 1028V1047Q918 1153 853 1201T655 1249Q564 1249 489 1243V825Q535 821 655 821Q791 821 854 872T918 1028Z" />
<glyph unicode="Q" glyph-name="Q" horiz-adv-x="1429" d="M1321 639Q1321 357 1203 199T881 -2V-43Q881 -73 893 -83T932 -94H1116Q1165 -94 1165 -127V-295Q1165 -328 1118 -340Q1008 -367 891 -367Q817 -367 758 -351T651 -298T577 -197T551 -45V-2Q347 40
228 198T109 639V883Q109 1056 155 1185T286 1390T477 1503T715 1540T953 1504T1144 1391T1274 1185T1321 883V639ZM969 639V883Q969 1065 907 1149T715 1233T524 1150T463 883V639Q463 456 524 373T715 289T907 372T969 639Z" />
<glyph unicode="R" glyph-name="R" horiz-adv-x="1392" d="M1319 25Q1319 0 1288 0H975Q965 0 957 6T946 18T936 37Q935 40 934 41L659 559L637 557Q615 557 563 559T492 561V41Q492 24 480 12T451 0H184Q167 0 155 12T143 41V1415Q143 1465 164 1485T236 1513Q405
1540 651 1540Q1268 1540 1268 1061V1034Q1268 879 1196 776T1004 625L1313 47Q1319 35 1319 25ZM920 1034V1061Q920 1243 651 1243Q564 1243 492 1237V844Q536 840 637 840Q796 840 858 884T920 1034Z" />
<glyph unicode="S" glyph-name="S" horiz-adv-x="1204" d="M1118 430Q1118 362 1101 300T1041 179T936 77T777 8T559 -18Q345 -18 172 27Q131 39 131 68V268Q131 307 168 307H174Q426 283 563 283Q666 283 705 316T745 426Q745 470 718 502T610 582L328 750Q193
829 140 924T86 1141Q86 1540 610 1540Q719 1540 851 1526T1044 1495Q1075 1488 1075 1458V1251Q1075 1217 1040 1217H1036Q723 1239 602 1239Q516 1239 479 1213T442 1130Q442 1088 469 1060T580 987L842 846Q994 764 1056 664T1118 430Z" />
<glyph unicode="T" glyph-name="T" horiz-adv-x="1202" d="M1151 1272Q1151 1255 1138 1244T1108 1233H776V41Q776 24 764 12T735 0H467Q450 0 438 12T426 41V1233H92Q75 1233 63 1244T51 1272V1483Q51 1499 63 1510T92 1522H1108Q1125 1522 1138 1511T1151 1483V1272Z" />
<glyph unicode="U" glyph-name="U" horiz-adv-x="1456" d="M1319 571Q1319 435 1288 331T1205 162T1076 55T914 -2T727 -18T540 -2T379 55T250 161T168 331T137 571V1483Q137 1499 149 1510T178 1522H446Q463 1522 475 1511T487 1483V571Q487 410 539 342T727
274T915 342T969 571V1483Q969 1499 981 1510T1010 1522H1276Q1293 1522 1306 1511T1319 1483V571Z" />
<glyph unicode="V" glyph-name="V" horiz-adv-x="1404" d="M1348 1489Q1348 1488 1347 1485T1346 1479L1040 209Q1026 152 1000 110T942 44T869 6T788 -13T702 -18Q642 -18 595 -10T499 21T414 91T362 209L57 1479Q57 1481 56 1484T55 1489Q55 1502 66 1512T92
1522H377Q392 1522 403 1511T418 1485L674 303Q677 286 683 279T702 272Q716 272 722 279T731 303L987 1485Q990 1501 1001 1511T1026 1522H1313Q1328 1522 1338 1513T1348 1489Z" />
<glyph unicode="W" glyph-name="W" horiz-adv-x="1820" d="M1786 1495V1491L1595 150Q1583 64 1538 29T1407 -6H1290Q1137 -6 1102 133L940 745Q937 757 934 759T922 762Q913 762 911 760T905 745L743 133Q708 -6 555 -6H438Q353 -6 308 29T250 150L59 1491V1495Q59
1522 92 1522H371Q383 1522 392 1511T403 1483L520 385Q523 358 532 358T547 385L694 948Q721 1047 821 1047H1024Q1124 1047 1151 948L1298 385Q1306 358 1313 358Q1322 358 1325 385L1442 1483Q1444 1500 1453 1511T1475 1522H1753Q1786 1522 1786 1495Z" />
<glyph unicode="X" glyph-name="X" horiz-adv-x="1439" d="M1374 20Q1374 0 1348 0H1022Q1002 0 991 6T969 31L702 463L463 41Q440 0 412 0H109Q78 0 78 27Q78 33 82 41L510 780L78 1483Q74 1491 74 1495Q74 1506 83 1514T104 1522H434Q459 1522 485 1483L739
1069L969 1483Q991 1522 1020 1522H1323Q1335 1522 1344 1514T1354 1495Q1354 1491 1350 1483L928 760L1368 41Q1374 29 1374 20Z" />
<glyph unicode="Y" glyph-name="Y" horiz-adv-x="1325" d="M1282 1491Q1282 1481 1280 1477L971 768Q917 644 838 610V41Q838 24 826 12T797 0H528Q511 0 499 12T487 41V610Q406 645 352 768L43 1477Q41 1481 41 1491Q41 1504 50 1513T74 1522H369Q396 1522 410
1487L631 909Q638 890 644 885T662 879Q673 879 679 884T692 909L913 1487Q927 1522 954 1522H1249Q1264 1522 1273 1513T1282 1491Z" />
<glyph unicode="Z" glyph-name="Z" horiz-adv-x="1259" d="M1157 41Q1157 24 1145 12T1116 0H186Q102 0 102 63V227Q102 270 133 317L705 1182Q713 1193 713 1202Q713 1219 690 1219H180Q163 1219 151 1230T139 1257V1483Q139 1499 151 1510T180 1522H1063Q1098
1522 1121 1507T1145 1464Q1147 1444 1147 1415L1145 1278Q1145 1250 1128 1225L551 340Q541 327 541 317Q541 303 563 303H1116Q1134 303 1145 293T1157 266V41Z" />
<glyph unicode="[" glyph-name="bracketleft" horiz-adv-x="765" d="M705 -356Q705 -373 693 -385T664 -397H164Q149 -397 139 -386T129 -358V1483Q129 1499 139 1510T164 1522H662Q678 1522 690 1510T702 1481V1303Q702 1286 691 1274T662 1262H465V-137H664Q680
-137 692 -149T705 -178V-356Z" />
<glyph unicode="\" glyph-name="backslash" horiz-adv-x="829" d="M803 25Q803 11 791 1T764 -10H504Q476 -10 465 33L29 1481Q29 1482 28 1485T27 1489Q27 1502 38 1512T66 1522H324Q354 1522 367 1481L801 33Q801 32 802 29T803 25Z" />
<glyph unicode="]" glyph-name="bracketright" horiz-adv-x="765" d="M637 -358Q637 -374 627 -385T602 -397H102Q85 -397 73 -385T61 -356V-178Q61 -162 73 -150T102 -137H301V1262H104Q87 1262 75 1274T63 1303V1481Q63 1498 75 1510T104 1522H602Q617 1522
627 1511T637 1483V-358Z" />
<glyph unicode="^" glyph-name="asciicircum" horiz-adv-x="1320" d="M1180 1176Q1180 1157 1155 1157H889Q864 1157 853 1163T825 1188L662 1370L498 1188Q481 1169 470 1163T434 1157H168Q143 1157 143 1176Q143 1187 154 1200L381 1503Q398 1526 411 1533T451
1540H872Q899 1540 912 1533T942 1503L1169 1200Q1180 1187 1180 1176Z" />
<glyph unicode="_" glyph-name="underscore" horiz-adv-x="1107" d="M1174 -211Q1174 -227 1162 -235T1133 -244H-23Q-40 -244 -51 -236T-63 -211V-113Q-63 -80 -23 -80H1133Q1174 -80 1174 -113V-211Z" />
<glyph unicode="`" glyph-name="grave" horiz-adv-x="907" d="M600 1305Q600 1290 582 1290H362Q344 1290 336 1295T313 1315L63 1565Q55 1573 55 1581Q55 1595 78 1595H348Q368 1595 378 1589T403 1565L592 1325Q600 1314 600 1305Z" />
<glyph unicode="a" glyph-name="a" horiz-adv-x="1150" d="M1028 41Q1028 24 1016 12T987 0H758Q741 0 729 12T717 41V74Q653 28 587 5T432 -18Q361 -18 302 0T191 57T111 167T82 334V352Q82 532 203 615T586 698H696V772Q696 855 659 884T543 913Q350 913 203
899H193Q156 899 156 936V1102Q156 1138 195 1147Q374 1190 549 1190Q1028 1190 1028 772V41ZM702 276V502H586Q482 502 444 467T406 352V334Q406 273 436 252T535 231Q610 231 702 276Z" />
<glyph unicode="b" glyph-name="b" horiz-adv-x="1222" d="M1137 506Q1137 256 1004 119T623 -18Q400 -18 186 35Q147 44 135 56T123 94V1530Q123 1546 136 1558T166 1571H414Q430 1571 442 1559T455 1530V1176Q558 1190 623 1190Q877 1190 1007 1052T1137 666V506ZM805
506V666Q805 723 797 766T769 844T713 897T623 915Q537 915 455 905V266Q533 254 623 254Q725 254 765 319T805 506Z" />
<glyph unicode="c" glyph-name="c" horiz-adv-x="970" d="M885 59Q885 38 876 28T842 12Q718 -18 569 -18Q349 -18 221 117T92 500V672Q92 919 220 1054T569 1190Q722 1190 842 1159Q866 1153 875 1144T885 1112V930Q885 915 874 905T846 895H842Q709 909 592
909Q424 909 424 672V500Q424 262 592 262Q709 262 842 276H846Q862 276 873 267T885 242V59Z" />
<glyph unicode="d" glyph-name="d" horiz-adv-x="1222" d="M1100 94Q1100 68 1088 56T1036 35Q824 -18 600 -18Q352 -18 219 119T86 506V666Q86 913 216 1051T600 1190Q665 1190 768 1176V1530Q768 1547 780 1559T809 1571H1057Q1074 1571 1087 1559T1100 1530V94ZM768
266V905Q686 915 600 915Q547 915 511 897T455 844T427 766T418 666V506Q418 385 458 320T600 254Q690 254 768 266Z" />
<glyph unicode="e" glyph-name="e" horiz-adv-x="1208" d="M1116 532Q1116 509 1105 496T1073 483H420V479Q420 433 430 395T464 324T530 274T631 256Q840 256 1024 274H1030Q1069 274 1069 242V86Q1069 60 1061 49T1026 31Q831 -18 606 -18Q528 -18 457 -2T319
54T202 152T122 302T92 508V651Q92 900 230 1045T610 1190Q854 1190 985 1041T1116 651V532ZM793 688V696Q793 808 745 866T608 924Q522 924 471 865T420 696V688H793Z" />
<glyph unicode="f" glyph-name="f" horiz-adv-x="868" d="M807 1372Q807 1337 764 1337H664Q618 1337 607 1321T596 1241V1174H764Q780 1174 792 1162T805 1133V967Q805 950 793 938T764 926H596V41Q596 24 584 12T555 0H303Q286 0 274 12T262 41V926L98 952Q81
955 68 967T55 995V1130Q55 1147 68 1160T98 1174H262V1239Q262 1346 283 1416T350 1523T456 1575T606 1589Q670 1589 768 1573Q786 1570 796 1559T807 1532V1372Z" />
<glyph unicode="g" glyph-name="g" horiz-adv-x="1226" d="M1182 1004Q1182 984 1174 975T1145 958L1081 938Q1100 910 1113 867T1126 786V770Q1126 387 621 387Q483 387 408 418Q379 399 379 371Q379 346 391 334T440 313L672 262Q768 241 832 224T954 186T1046
142T1105 88T1141 20T1151 -68V-84Q1151 -253 1018 -335T614 -418Q360 -418 227 -332T94 -84V-68Q94 67 217 162Q165 191 139 243T113 352Q113 454 203 526Q157 567 133 634T109 770V786Q109 968 235 1071T621 1174H1130Q1152 1174 1167 1158T1182 1120V1004ZM803
770V786Q803 856 763 895T621 934Q518 934 476 895T434 786V770Q434 627 621 627Q723 627 763 663T803 770ZM813 -84V-68Q813 -46 800 -32T739 1T602 39L451 72Q410 15 410 -68V-84Q410 -139 455 -163T614 -188Q731 -188 772 -162T813 -84Z" />
<glyph unicode="h" glyph-name="h" horiz-adv-x="1253" d="M1130 43Q1130 26 1117 13T1087 0H840Q823 0 811 13T799 43V725Q799 835 769 875T647 915Q576 915 455 850V43Q455 26 443 13T414 0H166Q149 0 136 13T123 43V1530Q123 1547 135 1559T164 1571H414Q430
1571 442 1559T455 1530V1098Q533 1148 604 1169T768 1190Q855 1190 919 1166T1024 1102T1088 1000T1121 873T1130 725V43Z" />
<glyph unicode="i" glyph-name="i" horiz-adv-x="593" d="M471 1348Q471 1331 459 1319T430 1307H164Q147 1307 135 1319T123 1348V1538Q123 1555 135 1567T164 1579H430Q447 1579 459 1567T471 1538V1348ZM463 41Q463 24 451 12T422 0H172Q155 0 143 12T131 41V1133Q131
1150 143 1162T172 1174H422Q438 1174 450 1162T463 1133V41Z" />
<glyph unicode="j" glyph-name="j" horiz-adv-x="593" d="M471 1348Q471 1331 458 1319T428 1307H164Q147 1307 135 1319T123 1348V1538Q123 1555 135 1567T164 1579H428Q445 1579 458 1567T471 1538V1348ZM463 -66Q463 -260 381 -338T139 -416Q57 -416 -25 -401Q-66
-395 -66 -360V-199Q-66 -182 -55 -172T-23 -162H68Q108 -162 119 -142T131 -66V1130Q131 1148 142 1161T170 1174H424Q440 1174 451 1161T463 1130V-66Z" />
<glyph unicode="k" glyph-name="k" horiz-adv-x="1204" d="M1143 1160T1143 1151T1135 1130L754 612L1133 43Q1137 39 1137 27Q1137 16 1130 8T1110 0H801Q783 0 772 5T750 29L455 510V43Q455 26 443 13T414 0H166Q149 0 136 13T123 43V1530Q123 1546 136 1558T166
1571H414Q430 1571 442 1559T455 1530V674L766 1143Q787 1174 819 1174H1112Q1125 1174 1134 1167Z" />
<glyph unicode="l" glyph-name="l" horiz-adv-x="577" d="M455 43Q455 26 444 13T416 0H166Q149 0 136 13T123 43V1530Q123 1546 136 1558T166 1571H416Q432 1571 443 1559T455 1530V43Z" />
<glyph unicode="m" glyph-name="m" horiz-adv-x="1792" d="M1669 43Q1669 26 1656 13T1626 0H1378Q1362 0 1350 13T1337 43V741Q1337 839 1311 875T1212 911Q1133 911 1055 874Q1061 814 1061 741V43Q1061 26 1049 13T1020 0H772Q755 0 742 13T729 43V741Q729
840 705 875T610 911Q556 911 455 858V43Q455 26 443 13T414 0H166Q149 0 136 13T123 43V1133Q123 1150 135 1162T164 1174H397Q414 1174 426 1162T438 1133V1087Q591 1190 741 1190Q900 1190 983 1090Q1079 1144 1151 1167T1317 1190Q1416 1190 1485 1159T1594
1066T1651 925T1669 741V43Z" />
<glyph unicode="n" glyph-name="n" horiz-adv-x="1253" d="M1130 43Q1130 26 1117 13T1087 0H840Q823 0 811 13T799 43V725Q799 835 769 875T647 915Q576 915 455 850V43Q455 26 443 13T414 0H166Q149 0 136 13T123 43V1133Q123 1150 135 1162T164 1174H393Q410
1174 422 1162T434 1133V1083Q518 1142 593 1166T768 1190Q855 1190 919 1166T1024 1102T1088 1000T1121 873T1130 725V43Z" />
<glyph unicode="o" glyph-name="o" horiz-adv-x="1206" d="M1116 514Q1116 266 983 124T604 -18T224 124T90 514V657Q90 905 224 1047T604 1190T983 1048T1116 657V514ZM786 514V657Q786 907 604 907Q514 907 467 844T420 657V514Q420 390 467 326T604 262Q693
262 739 326T786 514Z" />
<glyph unicode="p" glyph-name="p" horiz-adv-x="1222" d="M1137 506Q1137 259 1007 121T623 -18Q558 -18 455 -4V-358Q455 -375 443 -387T414 -399H166Q149 -399 136 -387T123 -358V1077Q123 1103 135 1115T186 1137Q407 1190 623 1190Q870 1190 1003 1053T1137
666V506ZM805 506V666Q805 786 765 850T623 915Q520 915 455 905V266Q553 254 623 254Q676 254 712 272T768 326T796 405T805 506Z" />
<glyph unicode="q" glyph-name="q" horiz-adv-x="1222" d="M1100 -358Q1100 -375 1087 -387T1057 -399H809Q792 -399 780 -387T768 -358V-4Q665 -18 600 -18Q346 -18 216 120T86 506V666Q86 916 219 1053T600 1190Q816 1190 1036 1137Q1076 1128 1088 1116T1100
1077V-358ZM768 266V905Q703 915 600 915Q498 915 458 851T418 666V506Q418 448 426 405T454 327T510 273T600 254Q670 254 768 266Z" />
<glyph unicode="r" glyph-name="r" horiz-adv-x="811" d="M766 954Q766 939 757 927T735 915H719Q585 915 455 844V43Q455 26 443 13T414 0H166Q149 0 136 13T123 43V1133Q123 1150 135 1162T164 1174H408Q424 1174 436 1162T449 1133V1092Q505 1139 578 1164T725
1190Q742 1190 754 1178T766 1149V954Z" />
<glyph unicode="s" glyph-name="s" horiz-adv-x="1030" d="M944 326Q944 173 833 78T506 -18Q296 -18 133 27Q94 37 94 74V240Q94 256 105 267T133 279H141Q356 250 489 250Q560 250 585 268T610 330Q610 353 594 372T535 416L268 569Q181 619 134 696T86 872Q86
1190 506 1190Q682 1190 870 1143Q909 1134 909 1096V930Q909 891 874 891H868Q669 918 528 918Q468 918 444 906T420 858Q420 836 434 822T483 786L737 641Q855 573 899 496T944 326Z" />
<glyph unicode="t" glyph-name="t" horiz-adv-x="862" d="M799 39Q799 23 789 12T760 -2Q661 -18 598 -18Q508 -18 449 -4T343 47T275 155T254 332V926L90 952Q73 955 60 967T47 995V1130Q47 1147 60 1160T90 1174H254V1341Q254 1375 295 1382L545 1425H551Q566
1425 577 1416T588 1391V1174H756Q772 1174 784 1162T797 1133V967Q797 950 785 938T756 926H588V330Q588 267 599 250T655 233H756Q799 233 799 199V39Z" />
<glyph unicode="u" glyph-name="u" horiz-adv-x="1253" d="M1130 41Q1130 24 1119 12T1090 0H860Q843 0 831 12T819 41V90Q736 31 661 8T485 -16Q398 -16 334 8T229 72T165 174T132 300T123 449V1130Q123 1147 136 1160T166 1174H414Q430 1174 442 1161T455 1130V449Q455
338 484 298T606 258Q674 258 799 324V1130Q799 1148 811 1161T840 1174H1087Q1104 1174 1117 1161T1130 1130V41Z" />
<glyph unicode="v" glyph-name="v" horiz-adv-x="1198" d="M1155 1139Q1155 1130 1153 1126L895 197Q880 144 856 105T804 42T740 5T671 -13T598 -18Q547 -18 507 -10T426 20T353 86T303 197L47 1126Q45 1130 45 1139Q45 1154 54 1164T78 1174H348Q380 1174 391
1130L567 328Q575 285 598 285Q623 285 631 328L807 1130Q818 1174 850 1174H1120Q1134 1174 1144 1164T1155 1139Z" />
<glyph unicode="w" glyph-name="w" horiz-adv-x="1730" d="M1671 1139V1130L1489 143Q1473 62 1427 31T1309 0H1184Q1046 0 1012 131L874 666Q873 673 871 674T864 676Q856 676 854 666L717 131Q682 0 545 0H420Q348 0 302 31T240 143L57 1130V1139Q57 1153 66
1163T88 1174H336Q356 1174 366 1167T379 1139L500 360Q503 334 512 334Q522 334 528 360L666 901Q679 954 704 973T780 993H948Q999 993 1024 974T1063 901L1200 360Q1206 334 1217 334Q1226 334 1229 360L1350 1139Q1353 1160 1363 1167T1393 1174H1640Q1654
1174 1662 1164T1671 1139Z" />
<glyph unicode="x" glyph-name="x" horiz-adv-x="1263" d="M1198 29Q1198 17 1190 9T1169 0H860Q832 0 807 43L604 360L414 41Q400 17 389 9T360 0H86Q63 0 63 25Q63 35 68 41L426 610L78 1130Q74 1140 74 1143Q74 1155 83 1164T104 1174H410Q425 1174 435 1164T463
1130L645 848L813 1130Q827 1154 838 1164T866 1174H1141Q1151 1174 1158 1166T1165 1147Q1165 1137 1161 1130L823 594L1194 43Q1198 35 1198 29Z" />
<glyph unicode="y" glyph-name="y" horiz-adv-x="1212" d="M1167 1137Q1167 1135 1166 1132T1165 1126L821 -80Q801 -151 779 -200T723 -292T643 -361T529 -400T373 -414Q317 -414 241 -404T125 -381Q109 -375 103 -373T89 -363T82 -344V-178Q82 -162 94 -151T123
-139H127Q137 -140 240 -148T383 -156Q440 -156 470 -133T518 -49L537 14H506Q472 14 451 19T403 42T355 100T315 205L45 1126Q43 1133 43 1141Q43 1174 84 1174H356Q371 1174 381 1163T395 1135L580 365Q588 326 604 326H606H614H623L813 1135Q816 1151 828 1162T856
1174H1128Q1144 1174 1155 1163T1167 1137Z" />
<glyph unicode="z" glyph-name="z" horiz-adv-x="1054" d="M967 41Q967 24 955 12T926 0H158Q130 0 109 20T88 68V199Q88 237 117 276L561 883Q567 892 567 897Q567 907 553 907H141Q126 907 116 916T106 940V1133Q106 1150 118 1162T147 1174H895Q923 1174 943
1153T963 1104V952Q963 914 940 881L516 301Q510 292 510 287Q510 279 524 279H930Q945 279 956 270T967 246V41Z" />
<glyph unicode="{" glyph-name="braceleft" horiz-adv-x="833" d="M772 -356Q772 -373 760 -385T731 -397H612Q381 -397 290 -316T199 -18V250Q199 386 82 461V655Q140 693 168 743T197 866V1143Q197 1360 288 1441T610 1522H729Q746 1522 758 1510T770 1481V1303Q770
1286 758 1274T729 1262H610Q561 1262 547 1240T532 1143V866Q532 757 492 682T362 559Q532 472 532 250V-18Q532 -93 547 -115T612 -137H731Q748 -137 760 -149T772 -178V-356Z" />
<glyph unicode="|" glyph-name="bar" horiz-adv-x="593" d="M465 -354Q465 -371 453 -384T424 -397H172Q155 -397 142 -384T129 -354V1481Q129 1497 142 1509T172 1522H424Q440 1522 452 1510T465 1481V-354Z" />
<glyph unicode="}" glyph-name="braceright" horiz-adv-x="833" d="M752 461Q635 386 635 250V-18Q635 -235 544 -316T221 -397H102Q85 -397 73 -385T61 -356V-178Q61 -162 73 -150T102 -137H221Q271 -137 286 -115T301 -18V250Q301 472 471 559Q381 606 341 681T301
866V1143Q301 1218 287 1240T223 1262H104Q87 1262 75 1274T63 1303V1481Q63 1498 75 1510T104 1522H223Q454 1522 545 1441T637 1143V866Q637 794 665 744T752 655V461Z" />
<glyph unicode="~" glyph-name="asciitilde" horiz-adv-x="1320" d="M1180 983Q1180 823 1108 749T887 674Q801 674 700 733L555 821Q512 848 467 848Q428 848 416 827T403 766V729Q403 712 393 700T367 688H184Q143 688 143 729V766Q143 941 219 1015T436 1090Q470
1090 514 1081T586 1055L770 944Q819 915 858 915Q891 915 904 930T918 983V1034Q918 1075 956 1075H1139Q1180 1075 1180 1034V983Z" />
</font>
</defs>
</svg>
