<?xml version="1.0" standalone="no"?> <!DOCTYPE svg PUBLIC "-//W3C//DTD SVG 1.0//EN" "http://www.w3.org/TR/2001/REC-SVG-20010904/DTD/svg10.dtd" > <svg xmlns="http://www.w3.org/2000/svg" width="100%" height="100%">
<defs >
<font id="nettootbold" horiz-adv-x="1053" ><font-face
    font-family="NettoOT-Bold"
    units-per-em="2048"
    panose-1="2 0 8 0 0 0 0 0 0 0"
    ascent="2009"
    descent="-457"
    alphabetic="0" />
<missing-glyph horiz-adv-x="1116" d="M809 0H307Q252 0 213 39T174 133V1305Q174 1359 214 1397T307 1436H809Q863 1436 902 1397T942 1305V133Q942 78 902 39T809 0ZM731 201V1235H385V201H731Z" />
<glyph unicode=" " glyph-name="space" horiz-adv-x="512" />
<glyph unicode="!" glyph-name="exclam" horiz-adv-x="743" d="M373 -20Q318 -20 279 19T240 113T279 207T373 246Q426 246 465 207T504 113T466 19T373 -20ZM266 539V1350Q266 1394 297 1425T373 1456Q416 1456 446 1425T477 1350V539Q477 496 447 465T373 434Q328
434 297 464T266 539Z" />
<glyph unicode="&quot;" glyph-name="quotedbl" horiz-adv-x="901" d="M166 1059V1350Q166 1394 197 1425T272 1456T346 1425T377 1350V1059Q377 1014 347 983T272 952T197 983T166 1059ZM522 1059V1350Q522 1394 553 1425T629 1456T704 1425T735 1350V1059Q735
1014 704 983T629 952T554 983T522 1059Z" />
<glyph unicode="#" glyph-name="numbersign" horiz-adv-x="1064" d="M889 377H795L748 61Q743 26 716 3T653 -20Q616 -20 587 8T557 76Q557 85 561 111L600 377H365L317 61Q313 26 286 3T223 -20Q186 -20 157 8T127 76Q127 85 131 111L170 377H102Q62 377 36 402T10
467T36 533T102 559H197L244 877H174Q134 877 108 902T82 967T108 1033T174 1059H270L317 1374Q322 1409 350 1432T412 1456Q450 1456 480 1428T510 1360Q510 1352 508 1337L467 1059H700L748 1374Q752 1409 780 1432T842 1456Q880 1456 910 1428T940 1360Q940
1352 938 1337L897 1059H961Q1001 1059 1028 1033T1055 967T1028 902T961 877H868L821 559H889Q929 559 956 533T983 467Q983 428 956 403T889 377ZM627 559L674 877H438L391 559H627Z" />
<glyph unicode="$" glyph-name="dollar" horiz-adv-x="1064" d="M649 -6V-178Q649 -223 618 -254T543 -285Q498 -285 467 -254T436 -178V-14Q289 1 154 57Q90 85 90 154Q90 198 117 228T188 258Q223 258 254 244Q399 180 520 180Q632 180 694 233T756 387Q756
458 706 513T578 602L332 711Q213 762 152 853T90 1065Q90 1211 188 1311T436 1444V1614Q436 1658 467 1689T543 1720Q586 1720 616 1689T647 1614V1450Q772 1438 891 1389Q971 1354 971 1284Q971 1244 941 1215T868 1186Q849 1186 829 1194Q822 1196 798 1206T754
1223T703 1238T631 1251T543 1255Q502 1255 464 1246T389 1218T331 1162T309 1075Q309 1007 340 968T438 899L672 797Q738 768 786 738T880 663T951 556T975 414Q975 258 887 144T649 -6Z" />
<glyph unicode="%" glyph-name="percent" horiz-adv-x="1832" d="M756 1147V963Q756 828 671 741T449 653Q314 653 227 738T139 963V1147Q139 1282 224 1369T449 1456Q583 1456 669 1371T756 1147ZM584 963V1147Q584 1213 549 1248T449 1284Q382 1284 347 1249T311
1147V963Q311 896 346 861T449 825Q514 825 549 860T584 963ZM395 104L1309 1421Q1330 1456 1374 1456Q1404 1456 1428 1434T1452 1378Q1452 1352 1438 1331L526 14Q501 -20 461 -20Q429 -20 405 3T381 59Q381 84 395 104ZM1694 473V289Q1694 154 1609 67T1386
-20Q1252 -20 1165 65T1077 289V473Q1077 608 1162 695T1386 782Q1520 782 1607 697T1694 473ZM1522 289V473Q1522 539 1487 574T1386 610Q1320 610 1285 575T1249 473V289Q1249 223 1284 188T1386 152Q1451 152 1486 187T1522 289Z" />
<glyph unicode="&amp;" glyph-name="ampersand" horiz-adv-x="1425" d="M1151 12L991 180Q896 88 791 34T549 -20Q375 -20 252 98T129 383Q129 507 201 614Q271 715 401 799L371 831Q244 966 244 1112Q244 1255 349 1355T602 1456Q750 1456 854 1356T958 1112Q958
1069 928 1038T854 1006Q810 1006 779 1037T748 1112Q748 1169 705 1214T602 1260T500 1215T457 1112Q457 1049 524 979L991 489L1147 670Q1178 707 1227 707Q1270 707 1301 677T1333 602Q1333 564 1309 532L1137 334L1305 160Q1333 131 1333 86Q1333 44 1302 12T1227
-20T1151 12ZM846 334L545 651Q430 584 377 506Q340 450 340 383Q340 302 402 239T549 176Q633 176 697 214T846 334Z" />
<glyph unicode="&apos;" glyph-name="quotesingle" horiz-adv-x="542" d="M166 1059V1350Q166 1394 197 1425T272 1456T346 1425T377 1350V1059Q377 1014 347 983T272 952T197 983T166 1059Z" />
<glyph unicode="(" glyph-name="parenleft" horiz-adv-x="636" d="M412 -297Q348 -297 317 -242Q102 166 102 649Q102 1121 317 1538Q346 1595 412 1595Q455 1595 485 1563T516 1489Q516 1464 504 1440Q313 1065 313 649Q313 204 504 -143Q516 -165 516 -190Q516
-234 485 -265T412 -297Z" />
<glyph unicode=")" glyph-name="parenright" horiz-adv-x="645" d="M328 -242Q297 -297 233 -297Q191 -297 160 -266T129 -190Q129 -166 141 -143Q332 204 332 649Q332 1065 141 1440Q129 1464 129 1489Q129 1530 159 1562T233 1595Q299 1595 328 1538Q543 1121
543 649Q543 166 328 -242Z" />
<glyph unicode="*" glyph-name="asterisk" horiz-adv-x="917" d="M557 786L459 922L360 786Q336 750 289 750Q252 750 226 775T199 840Q199 872 215 893L313 1028L154 1079Q125 1089 109 1112T92 1165Q92 1199 118 1226T180 1253Q201 1253 211 1249L369 1198V1366Q369
1403 395 1429T459 1456T522 1430T549 1366V1198L707 1247Q722 1253 737 1253Q769 1253 797 1227T825 1163Q825 1135 809 1112T764 1079L604 1028L702 893Q721 870 721 840Q721 804 696 777T631 750Q584 750 557 786Z" />
<glyph unicode="+" glyph-name="plus" horiz-adv-x="1064" d="M936 420H637V86Q637 41 607 11T532 -20Q489 -20 458 11T426 86V420H129Q87 420 57 448T27 520T56 592T129 621H426V952Q426 997 457 1028T532 1059Q577 1059 607 1028T637 952V621H936Q979 621 1008
592T1038 520T1008 449T936 420Z" />
<glyph unicode="," glyph-name="comma" horiz-adv-x="411" d="M305 109L207 -180Q197 -212 168 -232T106 -252Q64 -252 32 -221T0 -145Q0 -129 6 -111L104 176Q115 208 143 228T205 248Q246 248 278 218T311 143Q311 127 305 109Z" />
<glyph unicode="-" glyph-name="hyphen" horiz-adv-x="897" d="M686 510H209Q168 510 140 539T111 610T139 681T209 711H686Q727 711 756 682T786 610Q786 569 757 540T686 510Z" />
<glyph unicode="." glyph-name="period" horiz-adv-x="411" d="M207 -16Q152 -16 113 23T74 117Q74 171 113 209T207 248Q261 248 299 209T338 117Q338 62 300 23T207 -16Z" />
<glyph unicode="/" glyph-name="slash" horiz-adv-x="1118" d="M211 125L711 1389Q723 1419 751 1437T811 1456Q854 1456 884 1424T915 1352Q915 1330 907 1311L408 47Q396 17 367 -1T307 -20Q265 -20 234 12T203 84Q203 106 211 125Z" />
<glyph unicode="0" glyph-name="zero" horiz-adv-x="1181" d="M1061 985V451Q1061 240 932 111Q801 -20 590 -20Q381 -20 250 111Q121 240 121 451V985Q121 1196 250 1325Q381 1456 590 1456Q801 1456 930 1327Q1061 1196 1061 985ZM850 432V1004Q850 1127 782
1194T590 1262T400 1195T332 1004V432Q332 309 399 242T590 174T781 241T850 432Z" />
<glyph unicode="1" glyph-name="one" horiz-adv-x="786" d="M381 86V1188L197 1081Q166 1063 137 1063Q95 1063 66 1092T37 1163Q37 1223 90 1253L414 1440Q443 1456 473 1456Q522 1456 557 1421T592 1337V86Q592 42 562 11T487 -20T412 11T381 86Z" />
<glyph unicode="2" glyph-name="two" horiz-adv-x="1011" d="M805 0H174Q125 0 90 35T55 119Q55 160 82 195L598 815Q684 920 684 1040Q684 1134 627 1198T473 1262Q344 1262 231 1204Q199 1188 178 1188Q137 1188 107 1216T76 1284Q76 1313 91 1338T133 1376Q221
1422 299 1439T473 1456Q662 1456 778 1337Q895 1222 895 1030Q895 973 884 924T847 828T805 756T752 684Q738 666 668 583T504 386T350 201H805Q849 201 879 173T909 102Q909 58 879 29T805 0Z" />
<glyph unicode="3" glyph-name="three" horiz-adv-x="1040" d="M444 641H406Q361 641 330 671T299 745T330 819T406 850H432Q533 850 605 908T678 1049Q678 1145 621 1203T465 1262Q334 1262 219 1206Q198 1194 170 1194Q131 1194 101 1222T70 1290Q70 1354 127
1382Q214 1425 292 1440T465 1456Q651 1456 770 1343Q889 1232 889 1049Q889 870 739 754Q829 693 879 606T930 416Q930 224 800 102T465 -20Q277 -20 115 55Q55 86 55 147Q55 189 86 217T162 246Q181 246 207 233Q335 174 465 174Q567 174 643 237T719 416Q719
508 639 574T444 641Z" />
<glyph unicode="4" glyph-name="four" horiz-adv-x="1017" d="M905 295H782V84Q782 40 751 10T676 -20T602 10T571 84V295H166Q117 295 82 326T47 408Q47 429 55 449L403 1386Q416 1419 443 1437T506 1456Q547 1456 575 1425T604 1350Q604 1331 598 1313L289 496H571V700Q571
745 601 776T676 807T751 776T782 700V496H905Q949 496 978 467T1008 395T979 324T905 295Z" />
<glyph unicode="5" glyph-name="five" horiz-adv-x="1069" d="M958 485V418Q958 299 900 198T740 39T520 -20Q327 -20 170 57Q111 86 111 147Q111 189 141 218T215 248Q241 248 264 233Q376 174 520 174Q612 174 678 248T745 418V485Q745 581 679 655T520 729Q405
729 305 676Q277 662 250 662Q201 662 166 696T131 780V1305Q131 1358 169 1397T262 1436H817Q858 1436 888 1407T918 1335Q918 1295 889 1265T817 1235H342V899Q431 924 520 924Q701 924 829 796T958 485Z" />
<glyph unicode="6" glyph-name="six" horiz-adv-x="1079" d="M995 485V418Q995 236 867 108T557 -20Q377 -20 249 108T121 418V754Q121 1071 252 1251Q326 1351 437 1403T690 1456Q759 1456 831 1440Q870 1433 892 1406T915 1341Q915 1301 886 1274T813 1247Q799
1247 763 1254T690 1262Q667 1262 646 1260T591 1249T528 1225T466 1179T409 1106T365 999T338 854Q431 924 557 924Q738 924 866 796T995 485ZM784 399V504Q784 598 718 663T557 729Q464 729 398 663T332 504V399Q332 306 398 240T557 174Q651 174 717 239T784
399Z" />
<glyph unicode="7" glyph-name="seven" horiz-adv-x="972" d="M215 125L680 1235H121Q77 1235 48 1264T18 1333Q18 1377 47 1406T121 1436H807Q856 1436 891 1400T926 1317Q926 1293 918 1274L408 45Q396 15 369 -2T309 -20Q265 -20 236 10T207 84Q207 106 215 125Z" />
<glyph unicode="8" glyph-name="eight" horiz-adv-x="1134" d="M831 756Q917 693 970 603T1024 412Q1024 295 963 196T797 38T567 -20T338 38T172 195T111 412Q111 517 160 606T299 756Q225 811 184 889T143 1057Q143 1222 267 1339T567 1456Q682 1456 779 1403T934
1258T991 1057Q991 970 947 892T831 756ZM780 972T780 1057T718 1202T567 1262Q480 1262 418 1202T356 1057T418 911T567 850Q655 850 717 911ZM813 314T813 412T741 581T567 653T394 582T322 412Q322 314 394 244T567 174T740 244Z" />
<glyph unicode="9" glyph-name="nine" horiz-adv-x="1079" d="M958 1020V645Q958 531 940 436T891 273T815 153T722 69T615 16T502 -12T389 -20Q327 -20 248 -6Q211 2 188 29T164 92Q164 132 193 161T266 190Q278 190 317 182T389 174Q433 174 471 180T549 203T621
250T680 325T723 436T745 588Q652 512 520 512Q341 512 213 640T84 950V1020Q84 1200 212 1328T520 1456Q701 1456 829 1328T958 1020ZM748 934V1036Q748 1128 681 1195T520 1262Q428 1262 362 1195T295 1036V934Q295 840 361 774T520 707Q614 707 681 773T748
934Z" />
<glyph unicode=":" glyph-name="colon" horiz-adv-x="411" d="M207 -20Q152 -20 113 19T74 113T113 207T207 246Q261 246 299 207T338 113T300 19T207 -20ZM207 795Q152 795 113 833T74 926Q74 981 113 1020T207 1059Q261 1059 299 1020T338 926Q338 872 300 834T207
795Z" />
<glyph unicode=";" glyph-name="semicolon" horiz-adv-x="411" d="M338 926Q338 872 299 834T205 795T112 833T74 926Q74 981 112 1020T205 1059T299 1020T338 926ZM305 109L207 -180Q197 -212 168 -232T106 -252Q65 -252 33 -221T0 -145Q0 -129 6 -111L104 176Q115
208 143 228T205 248Q246 248 278 218T311 143Q311 127 305 109Z" />
<glyph unicode="&lt;" glyph-name="less" horiz-adv-x="1064" d="M819 -4L158 408Q130 425 113 455T96 520Q96 592 158 631L817 1042Q846 1059 872 1059Q916 1059 945 1030T975 958Q975 903 926 872L344 520L926 168Q948 155 961 131T975 80Q975 36 946 8T874
-20Q849 -20 819 -4Z" />
<glyph unicode="=" glyph-name="equal" horiz-adv-x="1064" d="M938 633H125Q84 633 56 662T27 733T55 804T125 834H938Q979 834 1008 804T1038 733T1009 663T938 633ZM938 211H125Q84 211 56 240T27 311T55 382T125 412H938Q979 412 1008 383T1038 311Q1038 270
1009 241T938 211Z" />
<glyph unicode="&gt;" glyph-name="greater" horiz-adv-x="1064" d="M907 408L246 -4Q216 -20 190 -20Q149 -20 120 8T90 80Q90 106 103 130T139 168L721 520L139 872Q90 903 90 958Q90 1000 119 1029T193 1059Q219 1059 248 1042L907 631Q969 592 969 520Q969
485 952 455T907 408Z" />
<glyph unicode="?" glyph-name="question" horiz-adv-x="983" d="M600 168T600 113T561 19T467 -20Q413 -20 375 19T336 113T374 207T467 246Q522 246 561 207ZM573 592V539Q573 495 542 465T467 434Q424 434 393 465T362 539V580Q362 650 394 716T481 821L602
907Q680 961 680 1067Q680 1154 618 1208T471 1262Q366 1262 264 1208Q240 1194 211 1194Q171 1194 141 1223T111 1294Q111 1358 172 1386Q312 1456 481 1456Q651 1456 771 1340T891 1059Q891 967 852 889T739 758L608 664Q573 637 573 592Z" />
<glyph unicode="@" glyph-name="at" horiz-adv-x="1509" d="M1307 913V367Q1307 325 1284 292T1223 244Q1101 195 963 195Q809 195 701 303T592 565T700 827T963 936H1094Q1094 1067 995 1164T764 1262Q627 1262 530 1165T432 932V205Q432 81 514 -10Q595 -105
713 -121Q753 -127 778 -153T803 -217Q803 -259 775 -288T700 -317Q656 -317 588 -295Q450 -247 354 -135Q221 17 221 219V913Q221 1060 294 1185T492 1383T764 1456T1036 1383T1234 1185T1307 913ZM1096 410V739H963Q895 739 849 691T803 565T849 439T963 389Q1014
389 1096 410Z" />
<glyph unicode="A" glyph-name="A" horiz-adv-x="1196" d="M961 49L850 360H346L233 49Q221 17 194 -1T133 -20Q91 -20 60 11T29 86Q29 103 35 121L485 1378Q498 1411 529 1433T598 1456Q634 1456 666 1434T711 1376L1161 121Q1167 106 1167 86Q1167 44 1137 12T1061
-20Q1028 -20 1001 -2T961 49ZM776 567L598 1063L420 567H776Z" />
<glyph unicode="B" glyph-name="B" horiz-adv-x="1140" d="M621 0H272Q217 0 178 38T139 131V1305Q139 1358 178 1397T272 1436H606Q787 1436 898 1327T1010 1038Q1010 865 872 754Q960 694 1004 608T1049 426Q1049 234 931 117T621 0ZM356 848H575Q668 848 730
903T793 1038Q793 1130 746 1179T606 1229H356V848ZM356 207H621Q724 207 777 264T831 426Q831 516 762 578T588 641V641V641V641V641V641V641V641V641V641V641V641V641V641H587V641V641V641V641V641H586V641V641V641H585V641V641V641H584V641V641H583V641V641H582V641H581V641V641H580V641H579V641H578V641H577V641H576V641H575V641H574V641H573V641H572V641H571V641H570H569V641H568V641H567H566V641H565V641H564H563H562V641H561H560H559V641H558H557H556H555H554H553H552V641H551H550H549H548H547H546H545H544H543H542H541H540H539H538H537H536H535H534H533H532H531H530H529H528H527H526H525H524H523H522H521H520H519H518H517H516H515H514H513H512H511H510H509H508H507H506H505H504H503H502H501H500H499H498H497H496H495H494H493H492H491H490H489H488H487H486H485H484H483H482H481H480H479H478H477H476H475H474H473H472H471H470H469H468H467H466H465H464H463H462H461H460H459H458H457H456H455H454H453H452H451H450H449H448H447H446H445H444H443H442H441H440H439H438H437H436H435H434H433H432H431H430H429H428H427H426H425H424H423H422H421H420H419H418H417H416H415H414H413H412H411H410H409H408H407H406H405H404H403H402H401H400H399H398H397H396H395H394H393H392H391H390H389H388H387H386H385H384H383H382H381H380H379H378H377H376H375H374H373H372H371H370H369H368H367H366H356V207Z"
/>
<glyph unicode="C" glyph-name="C" horiz-adv-x="1050" d="M102 510V926Q102 1164 248 1310T631 1456Q797 1456 946 1360Q995 1327 995 1272Q995 1231 964 1201T889 1171Q865 1171 834 1188Q726 1255 631 1255Q484 1255 402 1166T319 926V510Q319 359 401 270T631
180Q720 180 831 250Q860 268 891 268Q933 268 964 239T995 166Q995 108 946 76Q799 -20 631 -20Q394 -20 248 126T102 510Z" />
<glyph unicode="D" glyph-name="D" horiz-adv-x="1208" d="M543 0H272Q217 0 178 38T139 131V1305Q139 1358 178 1397T272 1436H543Q795 1436 950 1283T1106 879V557Q1106 307 951 154T543 0ZM889 553V883Q889 1046 799 1137T545 1229H356V207H545Q708 207 798
299T889 553Z" />
<glyph unicode="E" glyph-name="E" horiz-adv-x="1052" d="M881 0H272Q219 0 179 38T139 131V1305Q139 1357 178 1396T272 1436H866Q911 1436 942 1405T973 1329Q973 1286 942 1258T866 1229H356V848H840Q885 848 915 818T946 743Q946 700 915 671T840 641H356V207H881Q924
207 955 177T987 104Q987 60 956 30T881 0Z" />
<glyph unicode="F" glyph-name="F" horiz-adv-x="995" d="M834 641H356V86Q356 42 325 11T250 -20Q205 -20 172 11T139 86V1305Q139 1357 178 1396T272 1436H860Q905 1436 936 1406T967 1331Q967 1288 936 1259T860 1229H356V848H834Q879 848 909 818T940 743Q940
700 909 671T834 641Z" />
<glyph unicode="G" glyph-name="G" horiz-adv-x="1177" d="M858 217V596H657Q614 596 584 626T553 700Q553 743 583 774T657 805H942Q997 805 1036 766T1075 672V172Q1075 132 1054 100T997 51Q835 -20 631 -20Q394 -20 248 126T102 510V926Q102 1164 248 1310T631
1456Q716 1456 808 1431T971 1364Q1022 1332 1022 1270Q1022 1228 991 1200T915 1171Q889 1171 860 1188Q817 1215 753 1235T631 1255Q483 1255 401 1170T319 934V500Q319 350 401 265T631 180Q740 180 858 217Z" />
<glyph unicode="H" glyph-name="H" horiz-adv-x="1245" d="M889 88V641H356V88Q356 44 325 12T250 -20Q205 -20 172 12T139 88V1348Q139 1392 171 1424T248 1456Q291 1456 323 1424T356 1348V848H889V1348Q889 1392 921 1424T997 1456Q1042 1456 1074 1424T1106
1348V88Q1106 43 1075 12T999 -20Q955 -20 922 12T889 88Z" />
<glyph unicode="I" glyph-name="I" horiz-adv-x="495" d="M139 88V1348Q139 1392 171 1424T248 1456Q291 1456 323 1424T356 1348V88Q356 44 324 12T248 -20Q203 -20 171 12T139 88Z" />
<glyph unicode="J" glyph-name="J" horiz-adv-x="804" d="M459 383V1350Q459 1394 490 1425T565 1456Q610 1456 643 1425T676 1350V383Q676 217 557 98Q502 42 428 11T272 -20Q196 -20 135 -8Q95 -1 71 26T47 90Q47 137 77 165T147 193Q160 193 199 187T272 180Q347
180 401 236Q427 261 443 302T459 383Z" />
<glyph unicode="K" glyph-name="K" horiz-adv-x="1081" d="M866 16L356 604V88Q356 44 324 12T248 -20Q203 -20 171 12T139 88V1348Q139 1392 171 1424T248 1456Q291 1456 323 1424T356 1348V883L842 1421Q872 1456 922 1456Q964 1456 995 1426T1026 1350Q1026
1308 999 1280L508 743L1026 156Q1053 125 1053 86Q1053 44 1022 12T946 -20Q898 -20 866 16Z" />
<glyph unicode="L" glyph-name="L" horiz-adv-x="1015" d="M883 0H272Q218 0 179 40T139 133V1348Q139 1392 171 1424T248 1456T324 1423T356 1346V207H881Q925 207 956 177T987 104Q987 60 957 30T883 0Z" />
<glyph unicode="M" glyph-name="M" horiz-adv-x="1536" d="M1180 88V983L872 426Q857 398 829 382T768 365Q697 365 664 426L356 983V88Q356 44 324 12T248 -20Q203 -20 171 12T139 88V1337Q139 1386 174 1421T258 1456Q329 1456 365 1393L768 672L1171 1393Q1187
1421 1216 1438T1278 1456Q1327 1456 1362 1421T1397 1337V88Q1397 44 1364 12T1286 -20Q1243 -20 1212 12T1180 88Z" />
<glyph unicode="N" glyph-name="N" horiz-adv-x="1257" d="M897 41L356 989V86Q356 42 325 11T250 -20Q205 -20 172 11T139 86V1337Q139 1386 175 1421T258 1456Q330 1456 362 1397L901 446V1350Q901 1394 934 1425T1012 1456Q1055 1456 1086 1425T1118 1350V98Q1118
49 1082 15T999 -20Q934 -20 897 41Z" />
<glyph unicode="O" glyph-name="O" horiz-adv-x="1210" d="M1108 952V483Q1108 258 969 119T606 -20Q380 -20 241 118T102 483V952Q102 1178 241 1317T606 1456Q830 1456 969 1317T1108 952ZM891 471V965Q891 1102 817 1178T606 1255T395 1179T319 965V471Q319
334 394 257T606 180T816 257T891 471Z" />
<glyph unicode="P" glyph-name="P" horiz-adv-x="1114" d="M139 88V1305Q139 1358 178 1397T272 1436H614Q807 1436 928 1315T1049 997Q1049 803 930 686T614 569H356V88Q356 44 324 12T248 -20Q203 -20 171 12T139 88ZM356 776H614Q656 776 692 786T760 819T812
887T831 997Q831 1106 775 1167T614 1229H356V776Z" />
<glyph unicode="Q" glyph-name="Q" horiz-adv-x="1222" d="M1178 -205L455 -2Q292 43 197 171T102 483V952Q102 1178 241 1317T606 1456Q830 1456 969 1317T1108 952V483Q1108 214 920 84L1235 0Q1270 -9 1291 -37T1313 -100Q1313 -143 1282 -176T1206 -209Q1198
-209 1178 -205ZM891 475V961Q891 1099 816 1177T606 1255Q470 1255 395 1177T319 961V475Q319 338 394 259T606 180Q741 180 816 258T891 475Z" />
<glyph unicode="R" glyph-name="R" horiz-adv-x="1134" d="M883 31L541 602H356V86Q356 42 324 11T248 -20Q203 -20 171 11T139 86V1305Q139 1358 178 1397T272 1436H653Q841 1436 954 1321Q1073 1202 1073 1014Q1073 825 956 713Q885 645 778 616L1063 139Q1079
113 1079 84Q1079 44 1047 12T973 -20Q911 -20 883 31ZM356 809H653Q692 809 725 818T789 848T838 912T856 1014Q856 1109 803 1169T653 1229H356V809Z" />
<glyph unicode="S" glyph-name="S" horiz-adv-x="1030" d="M567 602L322 711Q203 762 142 853T80 1065Q80 1154 119 1229T224 1352T372 1428T543 1456Q728 1456 881 1389Q961 1354 961 1284Q961 1244 931 1215T858 1186Q839 1186 819 1194Q813 1196 788 1206T744
1223T692 1238T620 1251T532 1255Q491 1255 453 1246T379 1218T321 1162T299 1075Q299 1007 330 968T428 899L662 797Q728 768 776 738T870 663T941 556T965 414Q965 225 840 103T510 -20Q326 -20 143 57Q80 84 80 154Q80 198 107 228T178 258Q211 258 244 244Q389
180 510 180Q621 180 683 233T745 387Q745 458 695 513T567 602Z" />
<glyph unicode="T" glyph-name="T" horiz-adv-x="1052" d="M418 88V1229H115Q70 1229 40 1258T10 1331Q10 1376 40 1406T115 1436H936Q981 1436 1011 1406T1042 1331Q1042 1288 1011 1259T936 1229H635V88Q635 44 603 12T526 -20Q482 -20 450 12T418 88Z" />
<glyph unicode="U" glyph-name="U" horiz-adv-x="1261" d="M924 477V1348Q924 1392 956 1424T1032 1456T1108 1424T1141 1348V489Q1141 260 1001 120T631 -20T262 120T121 489V1348Q121 1392 154 1424T231 1456T306 1424T338 1348V477Q338 337 414 259T631 180Q770
180 847 258T924 477Z" />
<glyph unicode="V" glyph-name="V" horiz-adv-x="1136" d="M455 61L25 1315Q18 1332 18 1350Q18 1393 50 1424T125 1456Q158 1456 186 1436T225 1384L567 350L911 1384Q922 1416 950 1436T1010 1456Q1055 1456 1086 1423T1118 1348Q1118 1330 1112 1315L680 61Q668
24 637 2T567 -20Q528 -20 498 2T455 61Z" />
<glyph unicode="W" glyph-name="W" horiz-adv-x="1646" d="M1053 68L823 995L594 70Q585 30 552 5T479 -20Q438 -20 406 5T365 68L33 1323Q29 1343 29 1352Q29 1394 61 1425T133 1456Q169 1456 198 1434T238 1376L477 432L707 1366Q716 1405 750 1430T823 1456Q863
1456 896 1430T938 1368L1167 428L1409 1376Q1418 1412 1446 1434T1511 1456Q1555 1456 1586 1424T1618 1350Q1618 1339 1614 1323L1282 68Q1273 30 1240 5T1167 -20Q1127 -20 1095 5T1053 68Z" />
<glyph unicode="X" glyph-name="X" horiz-adv-x="1110" d="M897 27L555 539L213 27Q183 -20 125 -20Q83 -20 51 11T18 86Q18 117 37 145L430 723L43 1290Q25 1318 25 1350Q25 1392 56 1424T131 1456Q189 1456 219 1409L555 907L891 1409Q921 1456 979 1456Q1020
1456 1051 1425T1083 1350Q1083 1318 1065 1290L678 723L1073 145Q1092 116 1092 86Q1092 44 1061 12T985 -20Q929 -20 897 27Z" />
<glyph unicode="Y" glyph-name="Y" horiz-adv-x="1069" d="M428 86V629L33 1296Q18 1322 18 1350Q18 1392 48 1424T123 1456Q187 1456 215 1405L535 844L854 1405Q882 1456 946 1456Q988 1456 1019 1425T1051 1350Q1051 1319 1036 1296L641 629V86Q641 42 610
11T535 -20Q490 -20 459 11T428 86Z" />
<glyph unicode="Z" glyph-name="Z" horiz-adv-x="1067" d="M924 0H156Q106 0 72 35T37 119Q37 155 55 182L743 1229H150Q105 1229 74 1258T43 1331Q43 1376 74 1406T150 1436H903Q953 1436 987 1400T1022 1317Q1022 1282 1006 1255L317 207H924Q968 207 999 177T1030
104Q1030 60 999 30T924 0Z" />
<glyph unicode="[" glyph-name="bracketleft" horiz-adv-x="739" d="M506 -297H227Q184 -297 153 -268T121 -193V1489Q121 1531 151 1563T227 1595H506Q550 1595 580 1567T610 1495Q610 1451 581 1423T506 1395H332V-96H506Q550 -96 580 -125T610 -197T580 -268T506
-297Z" />
<glyph unicode="\" glyph-name="backslash" horiz-adv-x="1118" d="M711 47L211 1311Q203 1330 203 1352Q203 1392 233 1424T307 1456Q338 1456 367 1438T408 1389L907 125Q915 106 915 84Q915 45 884 13T811 -20Q779 -20 751 -2T711 47Z" />
<glyph unicode="]" glyph-name="bracketright" horiz-adv-x="749" d="M522 -297H244Q199 -297 169 -269T139 -197T169 -125T244 -96H418V1395H244Q199 1395 169 1423T139 1495Q139 1538 169 1566T244 1595H522Q567 1595 598 1563T629 1489V-193Q629 -238 597 -267T522
-297Z" />
<glyph unicode="^" glyph-name="asciicircum" horiz-adv-x="1116" d="M848 715L559 1182L268 715Q236 666 182 666Q139 666 111 696T82 768Q82 797 98 821L469 1407Q497 1456 559 1456Q586 1456 610 1443T647 1407L1018 823Q1034 799 1034 766Q1034 724 1005 695T934
666Q880 666 848 715Z" />
<glyph unicode="_" glyph-name="underscore" horiz-adv-x="1185" d="M1049 -338H135Q94 -338 66 -310T37 -240Q37 -198 65 -168T135 -137H1049Q1090 -137 1119 -167T1149 -240Q1149 -281 1120 -309T1049 -338Z" />
<glyph unicode="`" glyph-name="grave" horiz-adv-x="890" d="M496 1178L283 1307Q233 1336 233 1393Q233 1436 263 1464T336 1493Q365 1493 391 1477L606 1346Q657 1314 657 1257Q657 1214 627 1186T555 1157Q527 1157 496 1178Z" />
<glyph unicode="a" glyph-name="a" horiz-adv-x="1015" d="M895 711V158Q895 115 870 81T805 33Q654 -20 473 -20Q285 -20 180 70Q74 161 74 313Q74 461 180 549Q287 639 473 639H684V711Q684 777 638 820T514 864Q441 864 394 853T293 809Q262 791 236 791Q194
791 165 817T135 883Q135 946 186 977Q267 1023 347 1041T541 1059Q705 1059 800 957T895 711ZM684 201V444H473Q411 444 370 430T312 391T290 349T285 313Q285 298 287 284T300 249T329 212T385 186T473 174Q579 174 684 201Z" />
<glyph unicode="b" glyph-name="b" horiz-adv-x="1052" d="M950 649V391Q950 210 836 94Q725 -20 539 -20Q375 -20 219 33Q179 47 154 81T129 158V1350Q129 1394 160 1425T236 1456Q279 1456 309 1425T340 1350V1006Q459 1059 553 1059Q730 1059 838 948Q950 834
950 649ZM739 373V666Q739 760 687 812T539 864Q429 864 340 791V199Q437 174 539 174Q634 174 686 226T739 373Z" />
<glyph unicode="c" glyph-name="c" horiz-adv-x="901" d="M92 391V649Q92 831 205 944Q320 1059 502 1059Q651 1059 786 993Q846 965 846 899Q846 860 817 832T745 803Q726 803 696 815Q589 864 502 864Q408 864 356 812T303 666V375Q303 280 355 228T502 176Q595
176 702 227Q720 238 748 238Q787 238 816 210T846 139Q846 109 830 84T784 45Q651 -20 502 -20Q319 -20 205 94Q92 207 92 391Z" />
<glyph unicode="d" glyph-name="d" horiz-adv-x="1042" d="M92 391V649Q92 835 203 946Q316 1059 502 1059Q598 1059 702 1006V1350Q702 1394 732 1425T807 1456T882 1425T913 1350V158Q913 115 889 81T823 33Q669 -20 502 -20Q319 -20 205 94Q92 207 92 391ZM702
201V791Q617 864 502 864Q408 864 356 812T303 666V373Q303 278 355 226T502 174Q612 174 702 201Z" />
<glyph unicode="e" glyph-name="e" horiz-adv-x="1005" d="M780 420H303Q303 300 344 244Q398 174 502 174Q599 174 723 227Q749 238 766 238Q805 238 835 210T866 141Q866 76 813 49Q669 -20 502 -20Q319 -20 205 94Q92 207 92 391V649Q92 831 205 944Q320 1059
502 1059Q687 1059 799 944Q913 828 913 649V553Q913 498 875 459T780 420ZM303 614H702Q702 864 502 864Q303 864 303 614Z" />
<glyph unicode="f" glyph-name="f" horiz-adv-x="673" d="M129 86V1151Q129 1277 218 1366T434 1456Q489 1456 557 1446Q595 1440 620 1411T645 1343Q645 1303 616 1275T543 1247Q534 1247 506 1253T434 1260Q395 1260 368 1233T340 1167V1038H541Q585 1038 615
1010T645 938Q645 894 615 866T541 838H340V86Q340 42 310 11T236 -20Q191 -20 160 11T129 86Z" />
<glyph unicode="g" glyph-name="g" horiz-adv-x="1042" d="M702 -47V33Q598 -20 502 -20Q319 -20 205 94Q92 207 92 391V649Q92 831 205 944Q320 1059 502 1059Q664 1059 823 1006Q864 992 888 958T913 881V-47Q913 -226 799 -342Q687 -457 502 -457Q345 -457
205 -393Q141 -363 141 -299Q141 -259 171 -230T244 -201Q261 -201 291 -213Q404 -262 502 -262Q595 -262 648 -203T702 -47ZM702 248V838Q600 864 502 864Q408 864 356 812T303 666V373Q303 278 355 226T502 174Q615 174 702 248Z" />
<glyph unicode="h" glyph-name="h" horiz-adv-x="1071" d="M739 86V666Q739 760 687 812T539 864Q429 864 340 791V86Q340 42 310 11T236 -20Q191 -20 160 11T129 86V1350Q129 1394 160 1425T236 1456Q279 1456 309 1425T340 1350V1006Q459 1059 553 1059Q727
1059 838 948Q950 834 950 649V86Q950 42 919 11T844 -20Q799 -20 769 10T739 86Z" />
<glyph unicode="i" glyph-name="i" horiz-adv-x="495" d="M367 1386T367 1337T332 1254T248 1219T164 1253T129 1337T163 1421T248 1456Q297 1456 332 1421ZM141 86V952Q141 997 172 1028T248 1059T322 1028T352 952V86Q352 42 322 11T248 -20T173 11T141 86Z" />
<glyph unicode="j" glyph-name="j" horiz-adv-x="532" d="M412 1386T412 1337T377 1254T293 1219T209 1253T174 1337T209 1421T293 1456T377 1421ZM186 -31V952Q186 997 217 1028T293 1059Q336 1059 366 1028T397 952V-31Q397 -178 325 -286T123 -438Q82 -451
55 -451Q15 -451 -15 -423T-45 -350Q-45 -313 -23 -287T37 -252Q108 -235 147 -176T186 -31Z" />
<glyph unicode="k" glyph-name="k" horiz-adv-x="940" d="M719 16L350 440V86Q350 42 320 11T246 -20Q201 -20 170 11T139 86V1350Q139 1394 170 1425T246 1456Q289 1456 319 1425T350 1350V692L715 1030Q743 1059 788 1059Q830 1059 860 1028T891 952T856 877L506
565L879 156Q903 131 903 86Q903 45 874 13T801 -20Q749 -20 719 16Z" />
<glyph unicode="l" glyph-name="l" horiz-adv-x="489" d="M139 86V1350Q139 1394 170 1425T246 1456Q289 1456 319 1425T350 1350V86Q350 42 320 11T246 -20Q201 -20 170 11T139 86Z" />
<glyph unicode="m" glyph-name="m" horiz-adv-x="1587" d="M1255 86V688Q1255 760 1204 812T1079 864Q985 864 903 811V86Q903 42 872 11T797 -20T723 11T692 86V715Q692 864 524 864Q443 864 340 836V86Q340 42 310 11T236 -20Q191 -20 160 11T129 86V874Q129
916 152 950T215 999Q372 1059 545 1059Q692 1059 793 975Q921 1059 1079 1059Q1245 1059 1355 949T1466 672V86Q1466 42 1435 11T1360 -20Q1315 -20 1285 10T1255 86Z" />
<glyph unicode="n" glyph-name="n" horiz-adv-x="1071" d="M739 86V666Q739 760 687 812T539 864Q442 864 340 838V86Q340 42 310 11T236 -20Q191 -20 160 11T129 86V881Q129 924 153 958T219 1006Q375 1059 539 1059Q724 1059 836 944Q950 828 950 649V86Q950
42 919 11T844 -20Q799 -20 769 10T739 86Z" />
<glyph unicode="o" glyph-name="o" horiz-adv-x="1044" d="M952 629V410Q952 218 834 98Q716 -20 522 -20Q329 -20 211 98Q92 217 92 410V629Q92 821 211 940T522 1059Q715 1059 834 940Q952 820 952 629ZM741 391V645Q741 743 682 803T522 864Q418 864 361 807T303
645V391Q303 288 360 231T522 174Q627 174 684 231T741 391Z" />
<glyph unicode="p" glyph-name="p" horiz-adv-x="1052" d="M129 -350V881Q129 924 154 958T219 1006Q390 1059 539 1059Q724 1059 836 944Q950 828 950 649V391Q950 204 838 90Q731 -20 553 -20Q455 -20 340 33V-350Q340 -395 310 -426T236 -457Q191 -457 160
-426T129 -350ZM739 373V666Q739 760 687 812T539 864Q439 864 340 840V246Q427 174 539 174Q634 174 686 226T739 373Z" />
<glyph unicode="q" glyph-name="q" horiz-adv-x="1042" d="M823 1006Q863 993 888 959T913 881V-350Q913 -395 882 -426T807 -457Q764 -457 733 -426T702 -350V33Q587 -20 489 -20Q312 -20 205 90Q92 203 92 391V649Q92 829 207 944Q319 1059 504 1059Q654 1059
823 1006ZM504 174Q615 174 702 246V840Q604 864 504 864Q409 864 356 812T303 666V373Q303 278 356 226T504 174Z" />
<glyph unicode="r" glyph-name="r" horiz-adv-x="700" d="M129 86V754Q129 884 216 971T434 1059Q509 1059 588 1042Q625 1034 648 1007T672 942Q672 900 644 872T571 844Q553 844 537 848Q471 864 434 864Q396 864 368 836T340 770V86Q340 42 310 11T236 -20Q191
-20 160 11T129 86Z" />
<glyph unicode="s" glyph-name="s" horiz-adv-x="882" d="M451 408L283 469Q86 542 86 750Q86 885 186 972T440 1059Q603 1059 719 1008Q750 995 768 969T786 911Q786 871 758 842T688 813Q662 813 639 823Q555 864 436 864Q372 864 335 835T297 754Q297 716 321
691T381 653L582 588Q799 516 799 301Q799 164 698 72T434 -20Q263 -20 139 37Q76 66 76 131Q76 171 106 202T178 233Q197 233 225 221Q319 174 438 174Q588 174 588 281Q588 332 555 357T451 408Z" />
<glyph unicode="t" glyph-name="t" horiz-adv-x="700" d="M129 299V1350Q129 1394 160 1425T236 1456Q279 1456 309 1425T340 1350V1038H539Q583 1038 614 1010T645 938Q645 893 615 865T539 836H340V301Q340 244 366 209T434 174Q467 174 496 182T543 190Q584
190 614 163T645 92Q645 55 620 28T555 -8Q494 -20 434 -20Q306 -20 218 70T129 299Z" />
<glyph unicode="u" glyph-name="u" horiz-adv-x="1071" d="M731 201V952Q731 997 761 1028T836 1059Q880 1059 911 1028T942 952V158Q942 115 917 81T852 33Q701 -20 530 -20Q339 -20 229 90Q121 199 121 391V952Q121 997 152 1028T227 1059T301 1028T332 952V375Q332
280 384 228T530 176Q638 176 731 201Z" />
<glyph unicode="v" glyph-name="v" horiz-adv-x="899" d="M346 59L35 918Q29 936 29 952Q29 994 59 1026T133 1059Q166 1059 193 1041T233 989L457 319L664 987Q674 1019 701 1039T762 1059Q805 1059 837 1028T870 952Q870 935 864 920L573 63Q561 26 530 3T459
-20Q422 -20 389 5T346 59Z" />
<glyph unicode="w" glyph-name="w" horiz-adv-x="1443" d="M893 66L723 653L553 68Q542 29 510 5T438 -20Q399 -20 368 3T324 63L51 922Q47 932 47 952Q47 995 77 1027T152 1059Q187 1059 216 1039T254 985L436 362L608 971Q619 1009 651 1034T723 1059Q760 1059
793 1032T836 975L1008 362L1190 985Q1199 1018 1228 1038T1292 1059Q1335 1059 1366 1029T1397 952Q1397 932 1393 922L1120 66Q1108 27 1077 4T1008 -20Q968 -20 936 4T893 66Z" />
<glyph unicode="x" glyph-name="x" horiz-adv-x="915" d="M674 25L457 344L240 25Q207 -20 154 -20Q111 -20 79 11T47 86Q47 119 66 145L334 524L72 893Q53 919 53 952Q53 995 84 1027T160 1059Q212 1059 246 1014L457 705L668 1014Q698 1059 756 1059Q799 1059
829 1028T860 952Q860 920 842 893L580 524L848 145Q868 119 868 86Q868 43 836 12T760 -20Q703 -20 674 25Z" />
<glyph unicode="y" glyph-name="y" horiz-adv-x="935" d="M334 -127L385 41L47 915Q39 941 39 954Q39 995 71 1027T147 1059Q179 1059 206 1041T244 991L489 317L700 987Q711 1019 739 1039T799 1059Q842 1059 874 1028T907 952Q907 935 901 920L535 -176Q492
-305 388 -381T141 -457Q98 -457 68 -429T37 -356Q37 -316 66 -288T137 -258Q294 -251 334 -127Z" />
<glyph unicode="z" glyph-name="z" horiz-adv-x="931" d="M772 0H174Q125 0 90 35T55 119Q55 158 80 190L584 838H166Q121 838 91 866T61 938T91 1009T166 1038H750Q799 1038 833 1004T868 920Q868 878 848 852L340 201H770Q815 201 846 173T877 102Q877 58 847
29T772 0Z" />
<glyph unicode="{" glyph-name="braceleft" horiz-adv-x="856" d="M317 33V395Q317 452 280 494T186 543Q146 548 119 578T92 649Q92 689 119 719T186 754Q242 760 279 802T317 901V1264Q317 1401 414 1498T647 1595Q694 1595 724 1567T754 1495T724 1423T647
1395Q598 1395 563 1360T528 1276V901Q528 746 406 649Q528 553 528 395V23Q528 -26 563 -61T647 -96Q694 -96 724 -124T754 -197Q754 -240 724 -268T647 -297Q510 -297 414 -201T317 33Z" />
<glyph unicode="|" glyph-name="bar" horiz-adv-x="653" d="M221 -350V1489Q221 1533 252 1564T328 1595Q371 1595 401 1564T432 1489V-350Q432 -395 402 -426T328 -457Q283 -457 252 -426T221 -350Z" />
<glyph unicode="}" glyph-name="braceright" horiz-adv-x="856" d="M328 23V395Q328 554 451 649Q328 746 328 901V1276Q328 1325 293 1360T209 1395Q162 1395 132 1423T102 1495T132 1567T209 1595Q345 1595 442 1498T539 1264V901Q539 844 576 802T670 754Q710
750 737 720T764 649Q764 608 737 578T670 543Q614 537 577 495T539 395V33Q539 -104 443 -200T209 -297Q162 -297 132 -269T102 -197Q102 -152 132 -124T209 -96Q258 -96 293 -61T328 23Z" />
<glyph unicode="~" glyph-name="asciitilde" horiz-adv-x="1116" d="M924 414Q847 371 754 371Q645 371 504 453Q469 471 454 479T411 495T360 504Q326 504 293 486T242 440Q208 389 152 389Q108 389 80 419T51 492Q51 542 93 585T190 657Q270 700 360 700Q478
700 610 618Q699 567 754 567Q787 567 819 585T870 631Q906 682 961 682Q1005 682 1034 652T1063 580Q1063 529 1021 486T924 414Z" />
</font>
</defs>
</svg>
